AnekTelugu-Medium.ufo
<glyph name="period" format="2">
  <advance width="402"/>
  <unicode hex="002E"/>
  <outline>
    <contour>
      <point x="201" y="-21" type="curve" smooth="yes"/>
      <point x="280" y="-21"/>
      <point x="318" y="24"/>
      <point x="318" y="102" type="curve" smooth="yes"/>
      <point x="318" y="112" type="line" smooth="yes"/>
      <point x="318" y="189"/>
      <point x="280" y="234"/>
      <point x="201" y="234" type="curve" smooth="yes"/>
      <point x="121" y="234"/>
      <point x="84" y="189"/>
      <point x="84" y="112" type="curve" smooth="yes"/>
      <point x="84" y="102" type="line" smooth="yes"/>
      <point x="84" y="24"/>
      <point x="121" y="-21"/>
    </contour>
  </outline>
</glyph>
<glyph name="greater" format="2">
  <advance width="1041"/>
  <unicode hex="003E"/>
  <outline>
    <contour>
      <point x="800" y="629" type="line"/>
      <point x="800" y="611" type="line"/>
      <point x="136" y="445" type="line"/>
      <point x="136" y="275" type="line"/>
      <point x="942" y="490" type="line"/>
      <point x="942" y="750" type="line"/>
      <point x="136" y="965" type="line"/>
      <point x="136" y="795" type="line"/>
    </contour>
  </outline>
</glyph>
<glyph name="bracketleft" format="2">
  <advance width="618"/>
  <unicode hex="005B"/>
  <outline>
    <contour>
      <point x="143" y="-244" type="line"/>
      <point x="563" y="-244" type="line"/>
      <point x="563" y="-96" type="line"/>
      <point x="325" y="-96" type="line"/>
      <point x="325" y="1203" type="line"/>
      <point x="563" y="1203" type="line"/>
      <point x="563" y="1351" type="line"/>
      <point x="143" y="1351" type="line"/>
    </contour>
  </outline>
</glyph>
<glyph name="onesuperior" format="2">
  <advance width="429"/>
  <unicode hex="00B9"/>
  <outline>
    <contour>
      <point x="208" y="726" type="line"/>
      <point x="350" y="726" type="line"/>
      <point x="350" y="1404" type="line"/>
      <point x="215" y="1404" type="line"/>
      <point x="32" y="1300" type="line"/>
      <point x="27" y="1162" type="line"/>
      <point x="200" y="1257" type="line"/>
      <point x="208" y="1257" type="line"/>
    </contour>
  </outline>
</glyph>
<glyph name="Candrabindu_above.te" format="2">
  <advance width="11"/>
  <unicode hex="0C00"/>
  <outline>
    <contour>
      <point x="-556" y="1275" type="curve" smooth="yes"/>
      <point x="-288" y="1275"/>
      <point x="-174" y="1408"/>
      <point x="-174" y="1580" type="curve" smooth="yes"/>
      <point x="-174" y="1587" type="line"/>
      <point x="-332" y="1587" type="line"/>
      <point x="-335" y="1480"/>
      <point x="-395" y="1418"/>
      <point x="-556" y="1418" type="curve" smooth="yes"/>
      <point x="-717" y="1418"/>
      <point x="-776" y="1480"/>
      <point x="-779" y="1587" type="curve"/>
      <point x="-937" y="1587" type="line"/>
      <point x="-937" y="1580" type="line" smooth="yes"/>
      <point x="-937" y="1408"/>
      <point x="-824" y="1275"/>
    </contour>
    <contour>
      <point x="-556" y="1516" type="curve" smooth="yes"/>
      <point x="-495" y="1516"/>
      <point x="-464" y="1546"/>
      <point x="-464" y="1620" type="curve" smooth="yes"/>
      <point x="-464" y="1694"/>
      <point x="-495" y="1722"/>
      <point x="-556" y="1722" type="curve" smooth="yes"/>
      <point x="-616" y="1722"/>
      <point x="-647" y="1694"/>
      <point x="-647" y="1620" type="curve" smooth="yes"/>
      <point x="-647" y="1546"/>
      <point x="-616" y="1516"/>
    </contour>
  </outline>
</glyph>
<glyph name="Candrabindu.te" format="2">
  <advance width="729"/>
  <unicode hex="0C01"/>
  <outline>
    <contour>
      <point x="617" y="-25" type="curve" smooth="yes"/>
      <point x="637" y="-25" type="line"/>
      <point x="665" y="147" type="line"/>
      <point x="635" y="147" type="line" smooth="yes"/>
      <point x="414" y="147"/>
      <point x="298" y="268"/>
      <point x="298" y="502" type="curve" smooth="yes"/>
      <point x="298" y="653" type="line" smooth="yes"/>
      <point x="298" y="888"/>
      <point x="414" y="1008"/>
      <point x="635" y="1008" type="curve" smooth="yes"/>
      <point x="665" y="1008" type="line"/>
      <point x="637" y="1180" type="line"/>
      <point x="617" y="1180" type="line" smooth="yes"/>
      <point x="297" y="1180"/>
      <point x="108" y="1001"/>
      <point x="108" y="659" type="curve" smooth="yes"/>
      <point x="108" y="494" type="line" smooth="yes"/>
      <point x="108" y="155"/>
      <point x="297" y="-25"/>
    </contour>
  </outline>
</glyph>
<glyph name="Visarga.te" format="2">
  <advance width="817"/>
  <unicode hex="0C03"/>
  <outline>
    <contour>
      <point x="409" y="615" type="curve" smooth="yes"/>
      <point x="612" y="615"/>
      <point x="719" y="712"/>
      <point x="719" y="889" type="curve" smooth="yes"/>
      <point x="719" y="906" type="line" smooth="yes"/>
      <point x="719" y="1084"/>
      <point x="612" y="1179"/>
      <point x="409" y="1179" type="curve" smooth="yes"/>
      <point x="206" y="1179"/>
      <point x="98" y="1084"/>
      <point x="98" y="906" type="curve" smooth="yes"/>
      <point x="98" y="889" type="line" smooth="yes"/>
      <point x="98" y="712"/>
      <point x="206" y="615"/>
    </contour>
    <contour>
      <point x="409" y="-29" type="curve" smooth="yes"/>
      <point x="612" y="-29"/>
      <point x="719" y="68"/>
      <point x="719" y="245" type="curve" smooth="yes"/>
      <point x="719" y="262" type="line" smooth="yes"/>
      <point x="719" y="439"/>
      <point x="612" y="534"/>
      <point x="409" y="534" type="curve" smooth="yes"/>
      <point x="206" y="534"/>
      <point x="98" y="439"/>
      <point x="98" y="262" type="curve" smooth="yes"/>
      <point x="98" y="245" type="line" smooth="yes"/>
      <point x="98" y="68"/>
      <point x="206" y="-29"/>
    </contour>
    <contour>
      <point x="409" y="112" type="curve" smooth="yes"/>
      <point x="317" y="112"/>
      <point x="267" y="158"/>
      <point x="267" y="245" type="curve" smooth="yes"/>
      <point x="267" y="262" type="line" smooth="yes"/>
      <point x="267" y="348"/>
      <point x="317" y="394"/>
      <point x="409" y="394" type="curve" smooth="yes"/>
      <point x="501" y="394"/>
      <point x="550" y="348"/>
      <point x="550" y="262" type="curve" smooth="yes"/>
      <point x="550" y="245" type="line" smooth="yes"/>
      <point x="550" y="158"/>
      <point x="501" y="112"/>
    </contour>
    <contour>
      <point x="409" y="755" type="curve" smooth="yes"/>
      <point x="317" y="755"/>
      <point x="267" y="801"/>
      <point x="267" y="889" type="curve" smooth="yes"/>
      <point x="267" y="906" type="line" smooth="yes"/>
      <point x="267" y="992"/>
      <point x="317" y="1038"/>
      <point x="409" y="1038" type="curve" smooth="yes"/>
      <point x="501" y="1038"/>
      <point x="550" y="992"/>
      <point x="550" y="906" type="curve" smooth="yes"/>
      <point x="550" y="889" type="line" smooth="yes"/>
      <point x="550" y="801"/>
      <point x="501" y="755"/>
    </contour>
  </outline>
</glyph>
<glyph name="vowelA.te" format="2">
  <advance width="1589"/>
  <unicode hex="0C05"/>
  <outline>
    <contour>
      <point x="1091" y="1179" type="curve" smooth="yes"/>
      <point x="864" y="1179"/>
      <point x="747" y="1065"/>
      <point x="747" y="883" type="curve" smooth="yes"/>
      <point x="747" y="880" type="line" smooth="yes"/>
      <point x="747" y="765"/>
      <point x="792" y="685"/>
      <point x="885" y="640" type="curve"/>
      <point x="885" y="634" type="line"/>
      <point x="499" y="635" type="line"/>
      <point x="527" y="475" type="line"/>
      <point x="1079" y="480" type="line"/>
      <point x="1079" y="629" type="line"/>
      <point x="1022" y="635" type="line"/>
      <point x="953" y="673"/>
      <point x="925" y="729"/>
      <point x="925" y="823" type="curve" smooth="yes"/>
      <point x="925" y="830" type="line" smooth="yes"/>
      <point x="925" y="951"/>
      <point x="980" y="1015"/>
      <point x="1094" y="1015" type="curve" smooth="yes"/>
      <point x="1224" y="1015"/>
      <point x="1287" y="930"/>
      <point x="1287" y="745" type="curve" smooth="yes"/>
      <point x="1287" y="585" type="line" smooth="yes"/>
      <point x="1287" y="293"/>
      <point x="1131" y="147"/>
      <point x="794" y="147" type="curve" smooth="yes"/>
      <point x="454" y="147"/>
      <point x="302" y="288"/>
      <point x="302" y="585" type="curve" smooth="yes"/>
      <point x="302" y="673" type="line" smooth="yes"/>
      <point x="302" y="882"/>
      <point x="396" y="993"/>
      <point x="583" y="993" type="curve" smooth="yes"/>
      <point x="592" y="993" type="line"/>
      <point x="565" y="1163" type="line"/>
      <point x="555" y="1163" type="line" smooth="yes"/>
      <point x="264" y="1163"/>
      <point x="112" y="980"/>
      <point x="112" y="673" type="curve" smooth="yes"/>
      <point x="112" y="585" type="line" smooth="yes"/>
      <point x="112" y="187"/>
      <point x="330" y="-28"/>
      <point x="794" y="-28" type="curve" smooth="yes"/>
      <point x="1255" y="-28"/>
      <point x="1477" y="187"/>
      <point x="1477" y="585" type="curve" smooth="yes"/>
      <point x="1477" y="730" type="line" smooth="yes"/>
      <point x="1477" y="1030"/>
      <point x="1345" y="1179"/>
    </contour>
  </outline>
</glyph>
<glyph name="vowelAa.te" format="2">
  <advance width="1588"/>
  <unicode hex="0C06"/>
  <outline>
    <contour>
      <point x="795" y="-28" type="curve" smooth="yes"/>
      <point x="1251" y="-28"/>
      <point x="1476" y="187"/>
      <point x="1476" y="578" type="curve" smooth="yes"/>
      <point x="1476" y="635" type="line"/>
      <point x="1297" y="633" type="line"/>
      <point x="1297" y="639" type="line"/>
      <point x="1386" y="677"/>
      <point x="1431" y="756"/>
      <point x="1431" y="871" type="curve" smooth="yes"/>
      <point x="1431" y="887" type="line" smooth="yes"/>
      <point x="1431" y="1064"/>
      <point x="1315" y="1179"/>
      <point x="1081" y="1179" type="curve" smooth="yes"/>
      <point x="847" y="1179"/>
      <point x="731" y="1064"/>
      <point x="731" y="887" type="curve" smooth="yes"/>
      <point x="731" y="871" type="line" smooth="yes"/>
      <point x="731" y="756"/>
      <point x="776" y="677"/>
      <point x="865" y="639" type="curve"/>
      <point x="865" y="633" type="line"/>
      <point x="499" y="635" type="line"/>
      <point x="527" y="475" type="line"/>
      <point x="1278" y="482" type="line"/>
      <point x="1278" y="480" type="line"/>
      <point x="1251" y="289"/>
      <point x="1131" y="146"/>
      <point x="795" y="146" type="curve" smooth="yes"/>
      <point x="459" y="146"/>
      <point x="302" y="287"/>
      <point x="302" y="585" type="curve" smooth="yes"/>
      <point x="302" y="673" type="line" smooth="yes"/>
      <point x="302" y="881"/>
      <point x="396" y="993"/>
      <point x="583" y="993" type="curve" smooth="yes"/>
      <point x="592" y="993" type="line"/>
      <point x="565" y="1163" type="line"/>
      <point x="549" y="1163" type="line" smooth="yes"/>
      <point x="264" y="1163"/>
      <point x="112" y="979"/>
      <point x="112" y="673" type="curve" smooth="yes"/>
      <point x="112" y="585" type="line" smooth="yes"/>
      <point x="112" y="187"/>
      <point x="339" y="-28"/>
    </contour>
    <contour>
      <point x="1005" y="634" type="line"/>
      <point x="936" y="676"/>
      <point x="906" y="735"/>
      <point x="906" y="820" type="curve" smooth="yes"/>
      <point x="906" y="839" type="line" smooth="yes"/>
      <point x="906" y="949"/>
      <point x="963" y="1015"/>
      <point x="1081" y="1015" type="curve" smooth="yes"/>
      <point x="1198" y="1015"/>
      <point x="1256" y="949"/>
      <point x="1256" y="839" type="curve" smooth="yes"/>
      <point x="1256" y="820" type="line" smooth="yes"/>
      <point x="1256" y="735"/>
      <point x="1226" y="676"/>
      <point x="1157" y="634" type="curve"/>
    </contour>
  </outline>
</glyph>
<glyph name="vowelI.te" format="2">
  <advance width="1473"/>
  <unicode hex="0C07"/>
  <outline>
    <contour>
      <point x="680" y="-24" type="curve" smooth="yes"/>
      <point x="1079" y="-24"/>
      <point x="1359" y="200"/>
      <point x="1359" y="610" type="curve" smooth="yes"/>
      <point x="1359" y="767" type="line" smooth="yes"/>
      <point x="1359" y="1040"/>
      <point x="1239" y="1179"/>
      <point x="1007" y="1179" type="curve" smooth="yes"/>
      <point x="827" y="1179"/>
      <point x="742" y="1091"/>
      <point x="719" y="970" type="curve"/>
      <point x="713" y="970" type="line"/>
      <point x="691" y="1091"/>
      <point x="603" y="1179"/>
      <point x="422" y="1179" type="curve" smooth="yes"/>
      <point x="208" y="1179"/>
      <point x="92" y="1056"/>
      <point x="92" y="834" type="curve" smooth="yes"/>
      <point x="92" y="829" type="line" smooth="yes"/>
      <point x="92" y="779"/>
      <point x="98" y="724"/>
      <point x="113" y="674" type="curve"/>
      <point x="295" y="674" type="line"/>
      <point x="284" y="721"/>
      <point x="278" y="765"/>
      <point x="278" y="814" type="curve" smooth="yes"/>
      <point x="278" y="819" type="line" smooth="yes"/>
      <point x="278" y="946"/>
      <point x="332" y="1010"/>
      <point x="447" y="1010" type="curve" smooth="yes"/>
      <point x="569" y="1010"/>
      <point x="618" y="941"/>
      <point x="623" y="817" type="curve" smooth="yes"/>
      <point x="627" y="717" type="line"/>
      <point x="805" y="717" type="line"/>
      <point x="809" y="817" type="line" smooth="yes"/>
      <point x="814" y="941"/>
      <point x="867" y="1010"/>
      <point x="982" y="1010" type="curve" smooth="yes"/>
      <point x="1108" y="1010"/>
      <point x="1169" y="930"/>
      <point x="1169" y="757" type="curve" smooth="yes"/>
      <point x="1169" y="605" type="line" smooth="yes"/>
      <point x="1169" y="496"/>
      <point x="1150" y="410"/>
      <point x="1112" y="344" type="curve"/>
      <point x="1088" y="303" type="line"/>
      <point x="1004" y="205"/>
      <point x="875" y="151"/>
      <point x="676" y="151" type="curve" smooth="yes"/>
      <point x="477" y="151"/>
      <point x="378" y="194"/>
      <point x="378" y="287" type="curve" smooth="yes"/>
      <point x="378" y="289" type="line" smooth="yes"/>
      <point x="378" y="384"/>
      <point x="473" y="428"/>
      <point x="662" y="428" type="curve" smooth="yes"/>
      <point x="863" y="428"/>
      <point x="1004" y="364"/>
      <point x="1083" y="229" type="curve"/>
      <point x="1111" y="180" type="line"/>
      <point x="1150" y="101"/>
      <point x="1171" y="11"/>
      <point x="1182" y="-100" type="curve"/>
      <point x="1363" y="-100" type="line"/>
      <point x="1339" y="61"/>
      <point x="1300" y="172"/>
      <point x="1236" y="276" type="curve"/>
      <point x="1187" y="341" type="line"/>
      <point x="1070" y="517"/>
      <point x="903" y="593"/>
      <point x="652" y="593" type="curve" smooth="yes"/>
      <point x="351" y="593"/>
      <point x="192" y="491"/>
      <point x="192" y="287" type="curve" smooth="yes"/>
      <point x="192" y="283" type="line" smooth="yes"/>
      <point x="192" y="80"/>
      <point x="358" y="-24"/>
    </contour>
  </outline>
</glyph>
<glyph name="vowelIi.te" format="2">
  <advance width="2152"/>
  <unicode hex="0C08"/>
  <outline>
    <contour>
      <point x="1694" y="-28" type="curve" smooth="yes"/>
      <point x="1926" y="-28"/>
      <point x="2042" y="100"/>
      <point x="2042" y="289" type="curve" smooth="yes"/>
      <point x="2042" y="319" type="line" smooth="yes"/>
      <point x="2042" y="475"/>
      <point x="1967" y="586"/>
      <point x="1799" y="631" type="curve"/>
      <point x="1788" y="651"/>
      <point x="1767" y="666"/>
      <point x="1745" y="666" type="curve" smooth="yes"/>
      <point x="1126" y="666" type="line"/>
      <point x="1101" y="663" type="line"/>
      <point x="270" y="663" type="line"/>
      <point x="248" y="666" type="line"/>
      <point x="55" y="666" type="line"/>
      <point x="55" y="513" type="line"/>
      <point x="251" y="513" type="line"/>
      <point x="271" y="515" type="line"/>
      <point x="1099" y="515" type="line"/>
      <point x="1126" y="513" type="line"/>
      <point x="1470" y="513" type="line"/>
      <point x="1390" y="461"/>
      <point x="1356" y="390"/>
      <point x="1356" y="282" type="curve" smooth="yes"/>
      <point x="1356" y="269" type="line" smooth="yes"/>
      <point x="1356" y="97"/>
      <point x="1471" y="-28"/>
    </contour>
    <contour>
      <point x="696" y="-29" type="curve" smooth="yes"/>
      <point x="1035" y="-29"/>
      <point x="1212" y="157"/>
      <point x="1212" y="488" type="curve" smooth="yes"/>
      <point x="1212" y="650" type="line" smooth="yes"/>
      <point x="1212" y="979"/>
      <point x="1034" y="1156"/>
      <point x="696" y="1156" type="curve" smooth="yes"/>
      <point x="358" y="1156"/>
      <point x="180" y="979"/>
      <point x="180" y="649" type="curve" smooth="yes"/>
      <point x="180" y="488" type="line" smooth="yes"/>
      <point x="180" y="157"/>
      <point x="357" y="-29"/>
    </contour>
    <contour>
      <point x="695" y="146" type="curve" smooth="yes"/>
      <point x="473" y="146"/>
      <point x="362" y="269"/>
      <point x="362" y="500" type="curve" smooth="yes"/>
      <point x="362" y="645" type="line" smooth="yes"/>
      <point x="362" y="874"/>
      <point x="473" y="1000"/>
      <point x="695" y="1000" type="curve" smooth="yes"/>
      <point x="917" y="1000"/>
      <point x="1030" y="874"/>
      <point x="1030" y="645" type="curve" smooth="yes"/>
      <point x="1030" y="500" type="line" smooth="yes"/>
      <point x="1030" y="269"/>
      <point x="917" y="146"/>
    </contour>
    <contour>
      <point x="1697" y="136" type="curve" smooth="yes"/>
      <point x="1586" y="136"/>
      <point x="1531" y="203"/>
      <point x="1531" y="303" type="curve" smooth="yes"/>
      <point x="1531" y="324" type="line" smooth="yes"/>
      <point x="1531" y="416"/>
      <point x="1563" y="472"/>
      <point x="1646" y="517" type="curve"/>
      <point x="1747" y="517" type="line"/>
      <point x="1831" y="472"/>
      <point x="1862" y="417"/>
      <point x="1862" y="324" type="curve" smooth="yes"/>
      <point x="1862" y="303" type="line" smooth="yes"/>
      <point x="1862" y="203"/>
      <point x="1807" y="136"/>
    </contour>
    <contour>
      <point x="654" y="1086" type="curve"/>
      <point x="725" y="1086" type="line"/>
      <point x="880" y="1086"/>
      <point x="953" y="1148"/>
      <point x="1010" y="1226" type="curve" smooth="yes"/>
      <point x="1116" y="1371" type="line" smooth="yes"/>
      <point x="1162" y="1434"/>
      <point x="1209" y="1452"/>
      <point x="1274" y="1452" type="curve" smooth="yes"/>
      <point x="1326" y="1452" type="line"/>
      <point x="1310" y="1619" type="line"/>
      <point x="1247" y="1619" type="line" smooth="yes"/>
      <point x="1132" y="1619"/>
      <point x="1060" y="1581"/>
      <point x="993" y="1485" type="curve" smooth="yes"/>
      <point x="836" y="1261" type="line" smooth="yes"/>
      <point x="788" y="1192"/>
      <point x="744" y="1164"/>
      <point x="685" y="1164" type="curve"/>
      <point x="678" y="1164" type="line"/>
      <point x="613" y="1164"/>
      <point x="570" y="1197"/>
      <point x="541" y="1268" type="curve" smooth="yes"/>
      <point x="487" y="1402" type="line"/>
      <point x="291" y="1402" type="line"/>
      <point x="355" y="1254" type="line" smooth="yes"/>
      <point x="411" y="1124"/>
      <point x="493" y="1086"/>
    </contour>
    <contour>
      <point x="1803" y="594" type="line"/>
      <point x="1953" y="644"/>
      <point x="2034" y="731"/>
      <point x="2034" y="874" type="curve" smooth="yes"/>
      <point x="2034" y="889" type="line" smooth="yes"/>
      <point x="2034" y="1066"/>
      <point x="1923" y="1169"/>
      <point x="1712" y="1169" type="curve" smooth="yes"/>
      <point x="1607" y="1169"/>
      <point x="1526" y="1144"/>
      <point x="1443" y="1108" type="curve"/>
      <point x="1423" y="929" type="line"/>
      <point x="1493" y="971"/>
      <point x="1577" y="999"/>
      <point x="1669" y="999" type="curve" smooth="yes"/>
      <point x="1788" y="999"/>
      <point x="1849" y="944"/>
      <point x="1849" y="843" type="curve" smooth="yes"/>
      <point x="1849" y="831" type="line" smooth="yes"/>
      <point x="1849" y="746"/>
      <point x="1809" y="694"/>
      <point x="1719" y="658" type="curve"/>
    </contour>
  </outline>
</glyph>
<glyph name="vowelU.te" format="2">
  <advance width="1631"/>
  <unicode hex="0C09"/>
  <outline>
    <contour>
      <point x="524" y="-27" type="curve" smooth="yes"/>
      <point x="710" y="-27"/>
      <point x="806" y="70"/>
      <point x="823" y="211" type="curve"/>
      <point x="829" y="211" type="line"/>
      <point x="847" y="70"/>
      <point x="946" y="-27"/>
      <point x="1140" y="-27" type="curve" smooth="yes"/>
      <point x="1353" y="-27"/>
      <point x="1468" y="97"/>
      <point x="1468" y="331" type="curve" smooth="yes"/>
      <point x="1468" y="339" type="line" smooth="yes"/>
      <point x="1468" y="432"/>
      <point x="1447" y="505"/>
      <point x="1411" y="568" type="curve"/>
      <point x="1237" y="568" type="line"/>
      <point x="1272" y="507"/>
      <point x="1287" y="436"/>
      <point x="1287" y="360" type="curve" smooth="yes"/>
      <point x="1287" y="353" type="line" smooth="yes"/>
      <point x="1287" y="219"/>
      <point x="1229" y="152"/>
      <point x="1110" y="152" type="curve" smooth="yes"/>
      <point x="991" y="152"/>
      <point x="928" y="226"/>
      <point x="921" y="366" type="curve" smooth="yes"/>
      <point x="916" y="461" type="line"/>
      <point x="736" y="461" type="line"/>
      <point x="731" y="366" type="line" smooth="yes"/>
      <point x="724" y="225"/>
      <point x="665" y="152"/>
      <point x="556" y="152" type="curve" smooth="yes"/>
      <point x="427" y="152"/>
      <point x="365" y="236"/>
      <point x="365" y="424" type="curve" smooth="yes"/>
      <point x="365" y="544" type="line" smooth="yes"/>
      <point x="365" y="852"/>
      <point x="519" y="1001"/>
      <point x="836" y="1001" type="curve" smooth="yes"/>
      <point x="1066" y="1001"/>
      <point x="1206" y="944"/>
      <point x="1319" y="880" type="curve"/>
      <point x="1299" y="1063" type="line"/>
      <point x="1196" y="1119"/>
      <point x="1037" y="1166"/>
      <point x="837" y="1166" type="curve" smooth="yes"/>
      <point x="394" y="1166"/>
      <point x="175" y="958"/>
      <point x="175" y="537" type="curve" smooth="yes"/>
      <point x="175" y="415" type="line" smooth="yes"/>
      <point x="175" y="120"/>
      <point x="296" y="-27"/>
    </contour>
    <contour>
      <point x="55" y="521" type="line"/>
      <point x="1565" y="521" type="line"/>
      <point x="1565" y="676" type="line"/>
      <point x="55" y="676" type="line"/>
    </contour>
    <contour>
      <point x="779" y="1108" type="curve"/>
      <point x="866" y="1108" type="line"/>
      <point x="896" y="1212"/>
      <point x="917" y="1296"/>
      <point x="917" y="1356" type="curve" smooth="yes"/>
      <point x="917" y="1418"/>
      <point x="902" y="1457"/>
      <point x="893" y="1474" type="curve"/>
      <point x="752" y="1474" type="line"/>
      <point x="743" y="1457"/>
      <point x="727" y="1417"/>
      <point x="727" y="1356" type="curve" smooth="yes"/>
      <point x="727" y="1296"/>
      <point x="748" y="1212"/>
    </contour>
  </outline>
</glyph>
<glyph name="vowelUu.te" format="2">
  <advance width="2420"/>
  <unicode hex="0C0A"/>
  <outline>
    <contour>
      <point x="1960" y="-28" type="curve" smooth="yes"/>
      <point x="2192" y="-28"/>
      <point x="2308" y="100"/>
      <point x="2308" y="289" type="curve" smooth="yes"/>
      <point x="2308" y="319" type="line" smooth="yes"/>
      <point x="2308" y="480"/>
      <point x="2233" y="594"/>
      <point x="2065" y="640" type="curve"/>
      <point x="2054" y="660"/>
      <point x="2033" y="675"/>
      <point x="2011" y="675" type="curve"/>
      <point x="55" y="675" type="line"/>
      <point x="55" y="522" type="line"/>
      <point x="1736" y="522" type="line"/>
      <point x="1656" y="468"/>
      <point x="1622" y="394"/>
      <point x="1622" y="282" type="curve" smooth="yes"/>
      <point x="1622" y="269" type="line" smooth="yes"/>
      <point x="1622" y="97"/>
      <point x="1737" y="-28"/>
    </contour>
    <contour>
      <point x="524" y="-27" type="curve" smooth="yes"/>
      <point x="710" y="-27"/>
      <point x="806" y="70"/>
      <point x="823" y="211" type="curve"/>
      <point x="829" y="211" type="line"/>
      <point x="847" y="70"/>
      <point x="946" y="-27"/>
      <point x="1140" y="-27" type="curve" smooth="yes"/>
      <point x="1353" y="-27"/>
      <point x="1468" y="97"/>
      <point x="1468" y="331" type="curve" smooth="yes"/>
      <point x="1468" y="339" type="line" smooth="yes"/>
      <point x="1468" y="432"/>
      <point x="1447" y="505"/>
      <point x="1411" y="568" type="curve"/>
      <point x="1237" y="568" type="line"/>
      <point x="1272" y="507"/>
      <point x="1287" y="436"/>
      <point x="1287" y="360" type="curve" smooth="yes"/>
      <point x="1287" y="353" type="line" smooth="yes"/>
      <point x="1287" y="219"/>
      <point x="1229" y="152"/>
      <point x="1110" y="152" type="curve" smooth="yes"/>
      <point x="991" y="152"/>
      <point x="928" y="226"/>
      <point x="921" y="366" type="curve" smooth="yes"/>
      <point x="916" y="461" type="line"/>
      <point x="736" y="461" type="line"/>
      <point x="731" y="366" type="line" smooth="yes"/>
      <point x="724" y="225"/>
      <point x="665" y="152"/>
      <point x="556" y="152" type="curve" smooth="yes"/>
      <point x="427" y="152"/>
      <point x="365" y="236"/>
      <point x="365" y="424" type="curve" smooth="yes"/>
      <point x="365" y="544" type="line" smooth="yes"/>
      <point x="365" y="852"/>
      <point x="519" y="1001"/>
      <point x="836" y="1001" type="curve" smooth="yes"/>
      <point x="1066" y="1001"/>
      <point x="1206" y="944"/>
      <point x="1319" y="880" type="curve"/>
      <point x="1299" y="1063" type="line"/>
      <point x="1196" y="1119"/>
      <point x="1037" y="1166"/>
      <point x="837" y="1166" type="curve" smooth="yes"/>
      <point x="394" y="1166"/>
      <point x="175" y="958"/>
      <point x="175" y="537" type="curve" smooth="yes"/>
      <point x="175" y="415" type="line" smooth="yes"/>
      <point x="175" y="120"/>
      <point x="296" y="-27"/>
    </contour>
    <contour>
      <point x="611" y="1108" type="curve"/>
      <point x="698" y="1108" type="line"/>
      <point x="729" y="1212"/>
      <point x="749" y="1297"/>
      <point x="749" y="1356" type="curve" smooth="yes"/>
      <point x="749" y="1417"/>
      <point x="733" y="1457"/>
      <point x="725" y="1474" type="curve"/>
      <point x="584" y="1474" type="line"/>
      <point x="575" y="1457"/>
      <point x="560" y="1418"/>
      <point x="560" y="1356" type="curve" smooth="yes"/>
      <point x="560" y="1295"/>
      <point x="580" y="1212"/>
    </contour>
    <contour>
      <point x="943" y="1108" type="curve"/>
      <point x="1030" y="1108" type="line"/>
      <point x="1061" y="1212"/>
      <point x="1081" y="1297"/>
      <point x="1081" y="1356" type="curve" smooth="yes"/>
      <point x="1081" y="1418"/>
      <point x="1066" y="1457"/>
      <point x="1057" y="1474" type="curve"/>
      <point x="916" y="1474" type="line"/>
      <point x="907" y="1457"/>
      <point x="891" y="1418"/>
      <point x="891" y="1356" type="curve" smooth="yes"/>
      <point x="891" y="1295"/>
      <point x="912" y="1212"/>
    </contour>
    <contour>
      <point x="1963" y="136" type="curve" smooth="yes"/>
      <point x="1852" y="136"/>
      <point x="1797" y="203"/>
      <point x="1797" y="303" type="curve" smooth="yes"/>
      <point x="1797" y="324" type="line" smooth="yes"/>
      <point x="1797" y="418"/>
      <point x="1829" y="476"/>
      <point x="1912" y="522" type="curve"/>
      <point x="2013" y="522" type="line"/>
      <point x="2097" y="476"/>
      <point x="2128" y="419"/>
      <point x="2128" y="324" type="curve" smooth="yes"/>
      <point x="2128" y="303" type="line" smooth="yes"/>
      <point x="2128" y="203"/>
      <point x="2073" y="136"/>
    </contour>
    <contour>
      <point x="2069" y="600" type="line"/>
      <point x="2219" y="645"/>
      <point x="2300" y="731"/>
      <point x="2300" y="877" type="curve" smooth="yes"/>
      <point x="2300" y="892" type="line" smooth="yes"/>
      <point x="2300" y="1067"/>
      <point x="2189" y="1169"/>
      <point x="1978" y="1169" type="curve" smooth="yes"/>
      <point x="1873" y="1169"/>
      <point x="1792" y="1144"/>
      <point x="1709" y="1108" type="curve"/>
      <point x="1689" y="929" type="line"/>
      <point x="1759" y="971"/>
      <point x="1843" y="999"/>
      <point x="1935" y="999" type="curve" smooth="yes"/>
      <point x="2054" y="999"/>
      <point x="2115" y="945"/>
      <point x="2115" y="846" type="curve" smooth="yes"/>
      <point x="2115" y="834" type="line" smooth="yes"/>
      <point x="2115" y="753"/>
      <point x="2075" y="703"/>
      <point x="1985" y="667" type="curve"/>
    </contour>
  </outline>
</glyph>
<glyph name="vowelVocalicR.te" format="2">
  <advance width="2858"/>
  <unicode hex="0C0B"/>
  <anchor x="765" y="-10" name="bottom"/>
  <outline>
    <contour>
      <point x="439" y="-27" type="curve" smooth="yes"/>
      <point x="638" y="-27"/>
      <point x="742" y="73"/>
      <point x="761" y="209" type="curve"/>
      <point x="767" y="209" type="line"/>
      <point x="786" y="73"/>
      <point x="886" y="-27"/>
      <point x="1082" y="-27" type="curve" smooth="yes"/>
      <point x="1263" y="-27"/>
      <point x="1374" y="82"/>
      <point x="1396" y="267" type="curve"/>
      <point x="1418" y="307"/>
      <point x="1431" y="353"/>
      <point x="1431" y="404" type="curve" smooth="yes"/>
      <point x="1431" y="589" type="line"/>
      <point x="1241" y="589" type="line"/>
      <point x="1241" y="407" type="line" smooth="yes"/>
      <point x="1241" y="238"/>
      <point x="1177" y="152"/>
      <point x="1046" y="152" type="curve" smooth="yes"/>
      <point x="923" y="152"/>
      <point x="867" y="227"/>
      <point x="859" y="370" type="curve" smooth="yes"/>
      <point x="854" y="458" type="line"/>
      <point x="674" y="458" type="line"/>
      <point x="669" y="370" type="line" smooth="yes"/>
      <point x="661" y="227"/>
      <point x="597" y="149"/>
      <point x="467" y="149" type="curve" smooth="yes"/>
      <point x="348" y="149"/>
      <point x="289" y="213"/>
      <point x="289" y="307" type="curve" smooth="yes"/>
      <point x="289" y="309" type="line" smooth="yes"/>
      <point x="289" y="411"/>
      <point x="328" y="461"/>
      <point x="512" y="548" type="curve" smooth="yes"/>
      <point x="707" y="640"/>
      <point x="783" y="725"/>
      <point x="783" y="885" type="curve" smooth="yes"/>
      <point x="783" y="888" type="line" smooth="yes"/>
      <point x="783" y="1076"/>
      <point x="666" y="1179"/>
      <point x="446" y="1179" type="curve" smooth="yes"/>
      <point x="225" y="1179"/>
      <point x="110" y="1077"/>
      <point x="110" y="883" type="curve" smooth="yes"/>
      <point x="110" y="879" type="line" smooth="yes"/>
      <point x="110" y="815"/>
      <point x="125" y="749"/>
      <point x="148" y="691" type="curve"/>
      <point x="314" y="691" type="line"/>
      <point x="291" y="749"/>
      <point x="280" y="804"/>
      <point x="280" y="863" type="curve" smooth="yes"/>
      <point x="280" y="867" type="line" smooth="yes"/>
      <point x="280" y="974"/>
      <point x="336" y="1027"/>
      <point x="447" y="1027" type="curve" smooth="yes"/>
      <point x="554" y="1027"/>
      <point x="609" y="976"/>
      <point x="609" y="885" type="curve" smooth="yes"/>
      <point x="609" y="882" type="line" smooth="yes"/>
      <point x="609" y="782"/>
      <point x="564" y="742"/>
      <point x="395" y="662" type="curve" smooth="yes"/>
      <point x="169" y="555"/>
      <point x="98" y="465"/>
      <point x="98" y="292" type="curve" smooth="yes"/>
      <point x="98" y="288" type="line" smooth="yes"/>
      <point x="98" y="103"/>
      <point x="218" y="-27"/>
    </contour>
    <component base="matraUVar1.te" xOffset="1479"/>
    <component base="Terminals.te" xOffset="912"/>
  </outline>
</glyph>
<glyph name="vowelVocalicL.te" format="2">
  <advance width="1937"/>
  <unicode hex="0C0C"/>
  <outline>
    <contour>
      <point x="1209" y="-28" type="curve" smooth="yes"/>
      <point x="1615" y="-28"/>
      <point x="1825" y="174"/>
      <point x="1825" y="544" type="curve" smooth="yes"/>
      <point x="1825" y="677" type="line" smooth="yes"/>
      <point x="1825" y="979"/>
      <point x="1682" y="1163"/>
      <point x="1423" y="1163" type="curve" smooth="yes"/>
      <point x="1408" y="1163" type="line"/>
      <point x="1377" y="997" type="line"/>
      <point x="1384" y="997" type="line" smooth="yes"/>
      <point x="1549" y="997"/>
      <point x="1635" y="882"/>
      <point x="1635" y="677" type="curve" smooth="yes"/>
      <point x="1635" y="546" type="line" smooth="yes"/>
      <point x="1635" y="280"/>
      <point x="1494" y="147"/>
      <point x="1208" y="147" type="curve" smooth="yes"/>
      <point x="982" y="147"/>
      <point x="867" y="210"/>
      <point x="867" y="323" type="curve" smooth="yes"/>
      <point x="867" y="325" type="line" smooth="yes"/>
      <point x="867" y="419"/>
      <point x="912" y="462"/>
      <point x="1096" y="537" type="curve" smooth="yes"/>
      <point x="1290" y="617"/>
      <point x="1348" y="713"/>
      <point x="1348" y="861" type="curve" smooth="yes"/>
      <point x="1348" y="868" type="line" smooth="yes"/>
      <point x="1348" y="1068"/>
      <point x="1233" y="1179"/>
      <point x="1011" y="1179" type="curve" smooth="yes"/>
      <point x="826" y="1179"/>
      <point x="737" y="1091"/>
      <point x="714" y="970" type="curve"/>
      <point x="708" y="970" type="line"/>
      <point x="686" y="1091"/>
      <point x="598" y="1179"/>
      <point x="417" y="1179" type="curve" smooth="yes"/>
      <point x="203" y="1179"/>
      <point x="87" y="1056"/>
      <point x="87" y="834" type="curve" smooth="yes"/>
      <point x="87" y="829" type="line" smooth="yes"/>
      <point x="87" y="779"/>
      <point x="93" y="724"/>
      <point x="108" y="674" type="curve"/>
      <point x="290" y="674" type="line"/>
      <point x="279" y="721"/>
      <point x="273" y="765"/>
      <point x="273" y="814" type="curve" smooth="yes"/>
      <point x="273" y="819" type="line" smooth="yes"/>
      <point x="273" y="946"/>
      <point x="327" y="1010"/>
      <point x="442" y="1010" type="curve" smooth="yes"/>
      <point x="564" y="1010"/>
      <point x="613" y="941"/>
      <point x="618" y="817" type="curve" smooth="yes"/>
      <point x="622" y="717" type="line"/>
      <point x="800" y="717" type="line"/>
      <point x="804" y="817" type="line" smooth="yes"/>
      <point x="809" y="941"/>
      <point x="869" y="1010"/>
      <point x="987" y="1010" type="curve" smooth="yes"/>
      <point x="1108" y="1010"/>
      <point x="1161" y="956"/>
      <point x="1161" y="855" type="curve" smooth="yes"/>
      <point x="1161" y="850" type="line" smooth="yes"/>
      <point x="1161" y="777"/>
      <point x="1135" y="719"/>
      <point x="977" y="655" type="curve" smooth="yes"/>
      <point x="760" y="567"/>
      <point x="675" y="475"/>
      <point x="675" y="317" type="curve" smooth="yes"/>
      <point x="675" y="312" type="line" smooth="yes"/>
      <point x="675" y="97"/>
      <point x="863" y="-28"/>
    </contour>
  </outline>
</glyph>
<glyph name="vowelE.te" format="2">
  <advance width="1493"/>
  <unicode hex="0C0E"/>
  <outline>
    <contour>
      <point x="410" y="-27" type="curve" smooth="yes"/>
      <point x="588" y="-27"/>
      <point x="677" y="64"/>
      <point x="699" y="191" type="curve"/>
      <point x="705" y="191" type="line"/>
      <point x="731" y="54"/>
      <point x="830" y="-27"/>
      <point x="1010" y="-27" type="curve" smooth="yes"/>
      <point x="1255" y="-27"/>
      <point x="1381" y="128"/>
      <point x="1381" y="425" type="curve" smooth="yes"/>
      <point x="1381" y="679" type="line" smooth="yes"/>
      <point x="1381" y="1126"/>
      <point x="1162" y="1350"/>
      <point x="724" y="1350" type="curve" smooth="yes"/>
      <point x="658" y="1350" type="line"/>
      <point x="626" y="1182" type="line"/>
      <point x="700" y="1182" type="line" smooth="yes"/>
      <point x="1031" y="1182"/>
      <point x="1190" y="1019"/>
      <point x="1190" y="680" type="curve" smooth="yes"/>
      <point x="1190" y="429" type="line" smooth="yes"/>
      <point x="1190" y="242"/>
      <point x="1119" y="149"/>
      <point x="979" y="149" type="curve" smooth="yes"/>
      <point x="858" y="149"/>
      <point x="776" y="214"/>
      <point x="772" y="355" type="curve" smooth="yes"/>
      <point x="771" y="391" type="line" smooth="yes"/>
      <point x="765" y="599"/>
      <point x="641" y="713"/>
      <point x="432" y="713" type="curve" smooth="yes"/>
      <point x="210" y="713"/>
      <point x="89" y="584"/>
      <point x="89" y="367" type="curve" smooth="yes"/>
      <point x="89" y="315" type="line" smooth="yes"/>
      <point x="89" y="103"/>
      <point x="201" y="-27"/>
    </contour>
    <contour>
      <point x="432" y="145" type="curve" smooth="yes"/>
      <point x="323" y="145"/>
      <point x="265" y="208"/>
      <point x="265" y="324" type="curve" smooth="yes"/>
      <point x="265" y="367" type="line" smooth="yes"/>
      <point x="265" y="489"/>
      <point x="323" y="550"/>
      <point x="433" y="550" type="curve" smooth="yes"/>
      <point x="544" y="550"/>
      <point x="601" y="489"/>
      <point x="601" y="367" type="curve" smooth="yes"/>
      <point x="601" y="325" type="line" smooth="yes"/>
      <point x="601" y="207"/>
      <point x="544" y="145"/>
    </contour>
  </outline>
</glyph>
<glyph name="vowelEe.te" format="2">
  <advance width="1493"/>
  <unicode hex="0C0F"/>
  <outline>
    <contour>
      <point x="799" y="1701" type="line"/>
      <point x="815" y="1537" type="line"/>
      <point x="722" y="1537" type="line" smooth="yes"/>
      <point x="500" y="1537"/>
      <point x="395" y="1434"/>
      <point x="395" y="1208" type="curve" smooth="yes"/>
      <point x="395" y="1129" type="line"/>
      <point x="216" y="1129" type="line"/>
      <point x="216" y="1212" type="line" smooth="yes"/>
      <point x="216" y="1536"/>
      <point x="388" y="1701"/>
      <point x="703" y="1701" type="curve" smooth="yes"/>
    </contour>
    <component base="vowelE.te"/>
  </outline>
</glyph>
<glyph name="vowelAi.te" format="2">
  <advance width="1507"/>
  <unicode hex="0C10"/>
  <outline>
    <contour>
      <point x="427" y="-27" type="curve" smooth="yes"/>
      <point x="605" y="-27"/>
      <point x="696" y="59"/>
      <point x="716" y="192" type="curve"/>
      <point x="722" y="192" type="line"/>
      <point x="748" y="59"/>
      <point x="848" y="-27"/>
      <point x="1029" y="-27" type="curve" smooth="yes"/>
      <point x="1271" y="-27"/>
      <point x="1395" y="130"/>
      <point x="1395" y="435" type="curve" smooth="yes"/>
      <point x="1395" y="743" type="line" smooth="yes"/>
      <point x="1395" y="1026"/>
      <point x="1277" y="1179"/>
      <point x="1038" y="1179" type="curve" smooth="yes"/>
      <point x="854" y="1179"/>
      <point x="764" y="1094"/>
      <point x="744" y="970" type="curve"/>
      <point x="738" y="970" type="line"/>
      <point x="718" y="1094"/>
      <point x="626" y="1179"/>
      <point x="444" y="1179" type="curve" smooth="yes"/>
      <point x="221" y="1179"/>
      <point x="106" y="1059"/>
      <point x="106" y="845" type="curve" smooth="yes"/>
      <point x="106" y="840" type="line" smooth="yes"/>
      <point x="106" y="797"/>
      <point x="111" y="751"/>
      <point x="122" y="710" type="curve"/>
      <point x="305" y="710" type="line"/>
      <point x="297" y="747"/>
      <point x="292" y="785"/>
      <point x="292" y="825" type="curve" smooth="yes"/>
      <point x="292" y="828" type="line" smooth="yes"/>
      <point x="292" y="948"/>
      <point x="350" y="1010"/>
      <point x="470" y="1010" type="curve" smooth="yes"/>
      <point x="589" y="1010"/>
      <point x="641" y="944"/>
      <point x="648" y="818" type="curve" smooth="yes"/>
      <point x="652" y="749" type="line"/>
      <point x="830" y="749" type="line"/>
      <point x="833" y="818" type="line" smooth="yes"/>
      <point x="838" y="944"/>
      <point x="894" y="1010"/>
      <point x="1010" y="1010" type="curve" smooth="yes"/>
      <point x="1146" y="1010"/>
      <point x="1205" y="920"/>
      <point x="1205" y="739" type="curve" smooth="yes"/>
      <point x="1205" y="437" type="line" smooth="yes"/>
      <point x="1205" y="244"/>
      <point x="1134" y="149"/>
      <point x="993" y="149" type="curve" smooth="yes"/>
      <point x="873" y="149"/>
      <point x="794" y="216"/>
      <point x="790" y="355" type="curve" smooth="yes"/>
      <point x="789" y="376" type="line" smooth="yes"/>
      <point x="783" y="577"/>
      <point x="660" y="691"/>
      <point x="449" y="691" type="curve" smooth="yes"/>
      <point x="230" y="691"/>
      <point x="106" y="567"/>
      <point x="106" y="344" type="curve" smooth="yes"/>
      <point x="106" y="312" type="line" smooth="yes"/>
      <point x="106" y="93"/>
      <point x="220" y="-27"/>
    </contour>
    <contour>
      <point x="449" y="141" type="curve" smooth="yes"/>
      <point x="341" y="141"/>
      <point x="282" y="204"/>
      <point x="282" y="321" type="curve" smooth="yes"/>
      <point x="282" y="350" type="line" smooth="yes"/>
      <point x="282" y="466"/>
      <point x="342" y="528"/>
      <point x="449" y="528" type="curve" smooth="yes"/>
      <point x="557" y="528"/>
      <point x="617" y="466"/>
      <point x="617" y="350" type="curve" smooth="yes"/>
      <point x="617" y="323" type="line" smooth="yes"/>
      <point x="617" y="205"/>
      <point x="560" y="141"/>
    </contour>
  </outline>
</glyph>
<glyph name="vowelO.te" format="2">
  <advance width="1505"/>
  <unicode hex="0C12"/>
  <outline>
    <contour>
      <point x="439" y="-27" type="curve" smooth="yes"/>
      <point x="638" y="-27"/>
      <point x="742" y="73"/>
      <point x="761" y="209" type="curve"/>
      <point x="767" y="209" type="line"/>
      <point x="786" y="73"/>
      <point x="886" y="-27"/>
      <point x="1083" y="-27" type="curve" smooth="yes"/>
      <point x="1298" y="-27"/>
      <point x="1413" y="98"/>
      <point x="1413" y="326" type="curve" smooth="yes"/>
      <point x="1413" y="340" type="line" smooth="yes"/>
      <point x="1413" y="423"/>
      <point x="1398" y="495"/>
      <point x="1371" y="554" type="curve"/>
      <point x="1192" y="554" type="line"/>
      <point x="1215" y="502"/>
      <point x="1225" y="434"/>
      <point x="1225" y="367" type="curve" smooth="yes"/>
      <point x="1225" y="356" type="line" smooth="yes"/>
      <point x="1225" y="221"/>
      <point x="1167" y="152"/>
      <point x="1046" y="152" type="curve" smooth="yes"/>
      <point x="923" y="152"/>
      <point x="867" y="227"/>
      <point x="859" y="370" type="curve" smooth="yes"/>
      <point x="854" y="458" type="line"/>
      <point x="674" y="458" type="line"/>
      <point x="669" y="370" type="line" smooth="yes"/>
      <point x="661" y="227"/>
      <point x="597" y="149"/>
      <point x="467" y="149" type="curve" smooth="yes"/>
      <point x="348" y="149"/>
      <point x="289" y="213"/>
      <point x="289" y="307" type="curve" smooth="yes"/>
      <point x="289" y="309" type="line" smooth="yes"/>
      <point x="289" y="407"/>
      <point x="328" y="461"/>
      <point x="512" y="548" type="curve" smooth="yes"/>
      <point x="707" y="639"/>
      <point x="783" y="725"/>
      <point x="783" y="885" type="curve" smooth="yes"/>
      <point x="783" y="888" type="line" smooth="yes"/>
      <point x="783" y="1076"/>
      <point x="666" y="1179"/>
      <point x="446" y="1179" type="curve" smooth="yes"/>
      <point x="225" y="1179"/>
      <point x="110" y="1077"/>
      <point x="110" y="883" type="curve" smooth="yes"/>
      <point x="110" y="879" type="line" smooth="yes"/>
      <point x="110" y="815"/>
      <point x="125" y="749"/>
      <point x="148" y="691" type="curve"/>
      <point x="314" y="691" type="line"/>
      <point x="291" y="749"/>
      <point x="280" y="804"/>
      <point x="280" y="863" type="curve" smooth="yes"/>
      <point x="280" y="867" type="line" smooth="yes"/>
      <point x="280" y="974"/>
      <point x="336" y="1027"/>
      <point x="447" y="1027" type="curve" smooth="yes"/>
      <point x="554" y="1027"/>
      <point x="609" y="976"/>
      <point x="609" y="885" type="curve" smooth="yes"/>
      <point x="609" y="882" type="line" smooth="yes"/>
      <point x="609" y="782"/>
      <point x="564" y="742"/>
      <point x="395" y="662" type="curve" smooth="yes"/>
      <point x="169" y="555"/>
      <point x="98" y="463"/>
      <point x="98" y="292" type="curve" smooth="yes"/>
      <point x="98" y="288" type="line" smooth="yes"/>
      <point x="98" y="103"/>
      <point x="218" y="-27"/>
    </contour>
  </outline>
</glyph>
<glyph name="vowelOo.te" format="2">
  <advance width="1505"/>
  <unicode hex="0C13"/>
  <outline>
    <contour>
      <point x="764" y="1314" type="curve"/>
      <point x="751" y="1487" type="line"/>
      <point x="686" y="1523"/>
      <point x="595" y="1552"/>
      <point x="478" y="1552" type="curve" smooth="yes"/>
      <point x="281" y="1552"/>
      <point x="175" y="1470"/>
      <point x="175" y="1321" type="curve" smooth="yes"/>
      <point x="175" y="1208"/>
      <point x="252" y="1135"/>
      <point x="423" y="1116" type="curve"/>
      <point x="468" y="1174" type="line"/>
      <point x="379" y="1181"/>
      <point x="337" y="1221"/>
      <point x="337" y="1280" type="curve" smooth="yes"/>
      <point x="337" y="1351"/>
      <point x="394" y="1390"/>
      <point x="506" y="1390" type="curve" smooth="yes"/>
      <point x="613" y="1390"/>
      <point x="701" y="1357"/>
    </contour>
    <component base="vowelO.te"/>
  </outline>
</glyph>
<glyph name="vowelAu.te" format="2">
  <advance width="1587"/>
  <unicode hex="0C14"/>
  <outline>
    <contour>
      <point x="439" y="-27" type="curve" smooth="yes"/>
      <point x="638" y="-27"/>
      <point x="742" y="73"/>
      <point x="761" y="209" type="curve"/>
      <point x="767" y="209" type="line"/>
      <point x="786" y="73"/>
      <point x="886" y="-27"/>
      <point x="1083" y="-27" type="curve" smooth="yes"/>
      <point x="1298" y="-27"/>
      <point x="1413" y="98"/>
      <point x="1413" y="326" type="curve" smooth="yes"/>
      <point x="1413" y="340" type="line" smooth="yes"/>
      <point x="1413" y="419"/>
      <point x="1398" y="486"/>
      <point x="1372" y="544" type="curve"/>
      <point x="1194" y="544" type="line"/>
      <point x="1216" y="493"/>
      <point x="1225" y="430"/>
      <point x="1225" y="367" type="curve" smooth="yes"/>
      <point x="1225" y="356" type="line" smooth="yes"/>
      <point x="1225" y="221"/>
      <point x="1167" y="152"/>
      <point x="1046" y="152" type="curve" smooth="yes"/>
      <point x="923" y="152"/>
      <point x="867" y="227"/>
      <point x="859" y="370" type="curve" smooth="yes"/>
      <point x="854" y="458" type="line"/>
      <point x="674" y="458" type="line"/>
      <point x="669" y="370" type="line" smooth="yes"/>
      <point x="661" y="227"/>
      <point x="597" y="149"/>
      <point x="467" y="149" type="curve" smooth="yes"/>
      <point x="348" y="149"/>
      <point x="289" y="213"/>
      <point x="289" y="307" type="curve" smooth="yes"/>
      <point x="289" y="309" type="line" smooth="yes"/>
      <point x="289" y="408"/>
      <point x="328" y="461"/>
      <point x="512" y="548" type="curve" smooth="yes"/>
      <point x="707" y="639"/>
      <point x="783" y="725"/>
      <point x="783" y="885" type="curve" smooth="yes"/>
      <point x="783" y="888" type="line" smooth="yes"/>
      <point x="783" y="1076"/>
      <point x="666" y="1179"/>
      <point x="446" y="1179" type="curve" smooth="yes"/>
      <point x="225" y="1179"/>
      <point x="110" y="1077"/>
      <point x="110" y="883" type="curve" smooth="yes"/>
      <point x="110" y="879" type="line" smooth="yes"/>
      <point x="110" y="815"/>
      <point x="125" y="749"/>
      <point x="148" y="691" type="curve"/>
      <point x="314" y="691" type="line"/>
      <point x="291" y="749"/>
      <point x="280" y="804"/>
      <point x="280" y="863" type="curve" smooth="yes"/>
      <point x="280" y="867" type="line" smooth="yes"/>
      <point x="280" y="974"/>
      <point x="336" y="1027"/>
      <point x="447" y="1027" type="curve" smooth="yes"/>
      <point x="554" y="1027"/>
      <point x="609" y="976"/>
      <point x="609" y="885" type="curve" smooth="yes"/>
      <point x="609" y="882" type="line" smooth="yes"/>
      <point x="609" y="782"/>
      <point x="564" y="742"/>
      <point x="395" y="662" type="curve" smooth="yes"/>
      <point x="169" y="555"/>
      <point x="98" y="464"/>
      <point x="98" y="292" type="curve" smooth="yes"/>
      <point x="98" y="288" type="line" smooth="yes"/>
      <point x="98" y="103"/>
      <point x="218" y="-27"/>
    </contour>
    <contour>
      <point x="488" y="1103" type="line"/>
      <point x="661" y="1104"/>
      <point x="734" y="1164"/>
      <point x="734" y="1266" type="curve" smooth="yes"/>
      <point x="734" y="1371"/>
      <point x="651" y="1429"/>
      <point x="495" y="1429" type="curve" smooth="yes"/>
      <point x="364" y="1429" type="line"/>
      <point x="364" y="1367" type="line"/>
      <point x="458" y="1367" type="line" smooth="yes"/>
      <point x="529" y="1367"/>
      <point x="567" y="1334"/>
      <point x="567" y="1276" type="curve" smooth="yes"/>
      <point x="567" y="1215"/>
      <point x="529" y="1179"/>
      <point x="446" y="1179" type="curve"/>
    </contour>
    <contour>
      <point x="1223" y="639" type="curve" smooth="yes"/>
      <point x="1426" y="639"/>
      <point x="1531" y="764"/>
      <point x="1531" y="968" type="curve" smooth="yes"/>
      <point x="1531" y="1068" type="line" smooth="yes"/>
      <point x="1531" y="1348"/>
      <point x="1378" y="1519"/>
      <point x="1058" y="1519" type="curve" smooth="yes"/>
      <point x="179" y="1519" type="line"/>
      <point x="146" y="1367" type="line"/>
      <point x="620" y="1367" type="line"/>
      <point x="620" y="1373" type="line"/>
      <point x="781" y="1367" type="line"/>
      <point x="1057" y="1367" type="line" smooth="yes"/>
      <point x="1272" y="1367"/>
      <point x="1367" y="1256"/>
      <point x="1367" y="1110" type="curve"/>
      <point x="1367" y="1109" type="line"/>
      <point x="1358" y="1109" type="line"/>
      <point x="1365" y="1017" type="line"/>
      <point x="1365" y="947" type="line" smooth="yes"/>
      <point x="1365" y="847"/>
      <point x="1316" y="789"/>
      <point x="1223" y="789" type="curve" smooth="yes"/>
      <point x="1136" y="789"/>
      <point x="1090" y="840"/>
      <point x="1090" y="926" type="curve" smooth="yes"/>
      <point x="1090" y="960" type="line" smooth="yes"/>
      <point x="1090" y="1049"/>
      <point x="1134" y="1097"/>
      <point x="1220" y="1097" type="curve" smooth="yes"/>
      <point x="1288" y="1097"/>
      <point x="1342" y="1065"/>
      <point x="1369" y="1001" type="curve"/>
      <point x="1363" y="1105" type="line"/>
      <point x="1339" y="1181"/>
      <point x="1281" y="1239"/>
      <point x="1165" y="1239" type="curve" smooth="yes"/>
      <point x="1013" y="1239"/>
      <point x="924" y="1141"/>
      <point x="924" y="968" type="curve" smooth="yes"/>
      <point x="924" y="924" type="line" smooth="yes"/>
      <point x="924" y="751"/>
      <point x="1029" y="639"/>
    </contour>
  </outline>
</glyph>
<glyph name="Ka.te" format="2">
  <advance width="1158"/>
  <unicode hex="0C15"/>
  <anchor x="578" y="-61" name="bottom"/>
  <outline>
    <contour>
      <point x="578" y="-29" type="curve" smooth="yes"/>
      <point x="889" y="-29"/>
      <point x="1046" y="81"/>
      <point x="1046" y="308" type="curve" smooth="yes"/>
      <point x="1046" y="311" type="line" smooth="yes"/>
      <point x="1046" y="509"/>
      <point x="941" y="614"/>
      <point x="715" y="644" type="curve" smooth="yes"/>
      <point x="504" y="676" type="line" smooth="yes"/>
      <point x="358" y="695"/>
      <point x="305" y="743"/>
      <point x="305" y="834" type="curve" smooth="yes"/>
      <point x="305" y="838" type="line" smooth="yes"/>
      <point x="305" y="957"/>
      <point x="393" y="1009"/>
      <point x="572" y="1009" type="curve" smooth="yes"/>
      <point x="757" y="1009"/>
      <point x="846" y="955"/>
      <point x="846" y="835" type="curve" smooth="yes"/>
      <point x="846" y="832" type="line" smooth="yes"/>
      <point x="846" y="809"/>
      <point x="845" y="786"/>
      <point x="839" y="757" type="curve"/>
      <point x="1017" y="757" type="line"/>
      <point x="1025" y="790"/>
      <point x="1027" y="821"/>
      <point x="1027" y="851" type="curve" smooth="yes"/>
      <point x="1027" y="855" type="line" smooth="yes"/>
      <point x="1027" y="1047"/>
      <point x="891" y="1155"/>
      <point x="572" y="1155" type="curve" smooth="yes"/>
      <point x="276" y="1155"/>
      <point x="122" y="1045"/>
      <point x="122" y="840" type="curve" smooth="yes"/>
      <point x="122" y="832" type="line" smooth="yes"/>
      <point x="122" y="652"/>
      <point x="223" y="562"/>
      <point x="432" y="529" type="curve" smooth="yes"/>
      <point x="657" y="495" type="line" smooth="yes"/>
      <point x="811" y="471"/>
      <point x="860" y="416"/>
      <point x="860" y="316" type="curve" smooth="yes"/>
      <point x="860" y="312" type="line" smooth="yes"/>
      <point x="860" y="187"/>
      <point x="770" y="135"/>
      <point x="578" y="135" type="curve" smooth="yes"/>
      <point x="387" y="135"/>
      <point x="294" y="188"/>
      <point x="294" y="319" type="curve" smooth="yes"/>
      <point x="294" y="321" type="line" smooth="yes"/>
      <point x="294" y="347"/>
      <point x="295" y="374"/>
      <point x="300" y="399" type="curve"/>
      <point x="122" y="399" type="line"/>
      <point x="114" y="366"/>
      <point x="112" y="334"/>
      <point x="112" y="302" type="curve" smooth="yes"/>
      <point x="112" y="300" type="line" smooth="yes"/>
      <point x="112" y="77"/>
      <point x="268" y="-29"/>
    </contour>
    <contour>
      <point x="527" y="1086" type="curve" smooth="yes"/>
      <point x="598" y="1086" type="line" smooth="yes"/>
      <point x="749" y="1086"/>
      <point x="824" y="1146"/>
      <point x="882" y="1226" type="curve" smooth="yes"/>
      <point x="988" y="1371" type="line" smooth="yes"/>
      <point x="1035" y="1435"/>
      <point x="1079" y="1452"/>
      <point x="1145" y="1452" type="curve" smooth="yes"/>
      <point x="1198" y="1452" type="line"/>
      <point x="1181" y="1619" type="line"/>
      <point x="1116" y="1619" type="line" smooth="yes"/>
      <point x="1002" y="1619"/>
      <point x="931" y="1579"/>
      <point x="866" y="1485" type="curve" smooth="yes"/>
      <point x="711" y="1263" type="line" smooth="yes"/>
      <point x="661" y="1192"/>
      <point x="617" y="1164"/>
      <point x="557" y="1164" type="curve" smooth="yes"/>
      <point x="550" y="1164" type="line" smooth="yes"/>
      <point x="482" y="1164"/>
      <point x="440" y="1200"/>
      <point x="411" y="1269" type="curve" smooth="yes"/>
      <point x="356" y="1402" type="line"/>
      <point x="162" y="1402" type="line"/>
      <point x="227" y="1254" type="line" smooth="yes"/>
      <point x="283" y="1127"/>
      <point x="365" y="1086"/>
    </contour>
  </outline>
</glyph>
<glyph name="Ga.te" format="2">
  <advance width="1230"/>
  <unicode hex="0C17"/>
  <anchor x="613" y="-61" name="bottom"/>
  <outline>
    <contour>
      <point x="206" y="0" type="curve"/>
      <point x="409" y="0" type="line"/>
      <point x="336" y="152"/>
      <point x="304" y="295"/>
      <point x="304" y="468" type="curve" smooth="yes"/>
      <point x="304" y="606" type="line" smooth="yes"/>
      <point x="304" y="875"/>
      <point x="406" y="1000"/>
      <point x="615" y="1000" type="curve" smooth="yes"/>
      <point x="824" y="1000"/>
      <point x="926" y="875"/>
      <point x="926" y="606" type="curve" smooth="yes"/>
      <point x="926" y="468" type="line" smooth="yes"/>
      <point x="926" y="297"/>
      <point x="894" y="151"/>
      <point x="821" y="0" type="curve"/>
      <point x="1024" y="0" type="line"/>
      <point x="1094" y="150"/>
      <point x="1118" y="284"/>
      <point x="1118" y="465" type="curve" smooth="yes"/>
      <point x="1118" y="607" type="line" smooth="yes"/>
      <point x="1118" y="975"/>
      <point x="951" y="1153"/>
      <point x="615" y="1153" type="curve" smooth="yes"/>
      <point x="279" y="1153"/>
      <point x="112" y="975"/>
      <point x="112" y="607" type="curve" smooth="yes"/>
      <point x="112" y="465" type="line" smooth="yes"/>
      <point x="112" y="284"/>
      <point x="136" y="150"/>
    </contour>
    <contour>
      <point x="569" y="1086" type="curve"/>
      <point x="640" y="1086" type="line"/>
      <point x="789" y="1086"/>
      <point x="865" y="1143"/>
      <point x="925" y="1226" type="curve" smooth="yes"/>
      <point x="1030" y="1371" type="line" smooth="yes"/>
      <point x="1079" y="1439"/>
      <point x="1128" y="1452"/>
      <point x="1189" y="1452" type="curve" smooth="yes"/>
      <point x="1240" y="1452" type="line"/>
      <point x="1224" y="1619" type="line"/>
      <point x="1162" y="1619" type="line" smooth="yes"/>
      <point x="1049" y="1619"/>
      <point x="975" y="1580"/>
      <point x="908" y="1485" type="curve" smooth="yes"/>
      <point x="750" y="1261" type="line" smooth="yes"/>
      <point x="702" y="1193"/>
      <point x="660" y="1164"/>
      <point x="599" y="1164" type="curve"/>
      <point x="593" y="1164" type="line"/>
      <point x="523" y="1164"/>
      <point x="483" y="1202"/>
      <point x="456" y="1268" type="curve" smooth="yes"/>
      <point x="402" y="1402" type="line"/>
      <point x="206" y="1402" type="line"/>
      <point x="270" y="1254" type="line" smooth="yes"/>
      <point x="325" y="1126"/>
      <point x="407" y="1086"/>
    </contour>
  </outline>
</glyph>
<glyph name="Ja.te" format="2">
  <advance width="1514"/>
  <unicode hex="0C1C"/>
  <anchor x="765" y="-61" name="bottom"/>
  <outline>
    <contour>
      <point x="439" y="-27" type="curve" smooth="yes"/>
      <point x="638" y="-27"/>
      <point x="742" y="73"/>
      <point x="761" y="209" type="curve"/>
      <point x="767" y="209" type="line"/>
      <point x="786" y="73"/>
      <point x="886" y="-27"/>
      <point x="1083" y="-27" type="curve" smooth="yes"/>
      <point x="1298" y="-27"/>
      <point x="1413" y="98"/>
      <point x="1413" y="326" type="curve" smooth="yes"/>
      <point x="1413" y="340" type="line" smooth="yes"/>
      <point x="1413" y="419"/>
      <point x="1398" y="486"/>
      <point x="1372" y="544" type="curve"/>
      <point x="1194" y="544" type="line"/>
      <point x="1216" y="493"/>
      <point x="1225" y="430"/>
      <point x="1225" y="367" type="curve" smooth="yes"/>
      <point x="1225" y="356" type="line" smooth="yes"/>
      <point x="1225" y="221"/>
      <point x="1167" y="152"/>
      <point x="1046" y="152" type="curve" smooth="yes"/>
      <point x="923" y="152"/>
      <point x="867" y="227"/>
      <point x="859" y="370" type="curve" smooth="yes"/>
      <point x="854" y="458" type="line"/>
      <point x="674" y="458" type="line"/>
      <point x="669" y="370" type="line" smooth="yes"/>
      <point x="661" y="227"/>
      <point x="597" y="149"/>
      <point x="467" y="149" type="curve" smooth="yes"/>
      <point x="348" y="149"/>
      <point x="289" y="213"/>
      <point x="289" y="307" type="curve" smooth="yes"/>
      <point x="289" y="309" type="line" smooth="yes"/>
      <point x="289" y="407"/>
      <point x="328" y="461"/>
      <point x="512" y="548" type="curve" smooth="yes"/>
      <point x="707" y="639"/>
      <point x="783" y="725"/>
      <point x="783" y="885" type="curve" smooth="yes"/>
      <point x="783" y="888" type="line" smooth="yes"/>
      <point x="783" y="1076"/>
      <point x="666" y="1179"/>
      <point x="446" y="1179" type="curve" smooth="yes"/>
      <point x="225" y="1179"/>
      <point x="110" y="1077"/>
      <point x="110" y="883" type="curve" smooth="yes"/>
      <point x="110" y="879" type="line" smooth="yes"/>
      <point x="110" y="815"/>
      <point x="125" y="749"/>
      <point x="148" y="691" type="curve"/>
      <point x="314" y="691" type="line"/>
      <point x="291" y="749"/>
      <point x="280" y="804"/>
      <point x="280" y="863" type="curve" smooth="yes"/>
      <point x="280" y="867" type="line" smooth="yes"/>
      <point x="280" y="974"/>
      <point x="336" y="1027"/>
      <point x="447" y="1027" type="curve" smooth="yes"/>
      <point x="554" y="1027"/>
      <point x="609" y="976"/>
      <point x="609" y="885" type="curve" smooth="yes"/>
      <point x="609" y="882" type="line" smooth="yes"/>
      <point x="609" y="782"/>
      <point x="564" y="742"/>
      <point x="395" y="662" type="curve" smooth="yes"/>
      <point x="169" y="555"/>
      <point x="98" y="463"/>
      <point x="98" y="292" type="curve" smooth="yes"/>
      <point x="98" y="288" type="line" smooth="yes"/>
      <point x="98" y="103"/>
      <point x="218" y="-27"/>
    </contour>
    <contour>
      <point x="1061" y="650" type="curve" smooth="yes"/>
      <point x="1276" y="650"/>
      <point x="1389" y="760"/>
      <point x="1389" y="960" type="curve" smooth="yes"/>
      <point x="1389" y="964" type="line" smooth="yes"/>
      <point x="1389" y="1040"/>
      <point x="1369" y="1108"/>
      <point x="1334" y="1163" type="curve"/>
      <point x="1152" y="1163" type="line"/>
      <point x="1190" y="1110"/>
      <point x="1203" y="1050"/>
      <point x="1203" y="992" type="curve" smooth="yes"/>
      <point x="1203" y="988" type="line" smooth="yes"/>
      <point x="1203" y="874"/>
      <point x="1143" y="815"/>
      <point x="1015" y="815" type="curve" smooth="yes"/>
      <point x="902" y="815"/>
      <point x="807" y="860"/>
      <point x="766" y="973" type="curve"/>
      <point x="695" y="879" type="line"/>
      <point x="753" y="733"/>
      <point x="876" y="650"/>
    </contour>
  </outline>
</glyph>
<glyph name="Nya.te" format="2">
  <advance width="1945"/>
  <unicode hex="0C1E"/>
  <anchor x="759" y="-61" name="bottom"/>
  <outline>
    <contour>
      <point x="1571" y="741" type="curve"/>
      <point x="1663" y="741" type="line"/>
      <point x="1693" y="865"/>
      <point x="1713" y="964"/>
      <point x="1713" y="1037" type="curve" smooth="yes"/>
      <point x="1713" y="1101"/>
      <point x="1698" y="1144"/>
      <point x="1689" y="1162" type="curve"/>
      <point x="1545" y="1162" type="line"/>
      <point x="1536" y="1144"/>
      <point x="1521" y="1101"/>
      <point x="1521" y="1037" type="curve" smooth="yes"/>
      <point x="1521" y="965"/>
      <point x="1541" y="865"/>
    </contour>
    <contour>
      <point x="1307" y="621" type="line"/>
      <point x="1887" y="621" type="line"/>
      <point x="1887" y="776" type="line"/>
      <point x="1307" y="776" type="line"/>
    </contour>
    <component base="vowelI.te"/>
  </outline>
</glyph>
<glyph name="Ttha.te" format="2">
  <advance width="1274"/>
  <unicode hex="0C20"/>
  <anchor x="636" y="-61" name="bottom"/>
  <outline>
    <contour>
      <point x="636" y="-29" type="curve" smooth="yes"/>
      <point x="981" y="-29"/>
      <point x="1160" y="156"/>
      <point x="1160" y="500" type="curve" smooth="yes"/>
      <point x="1160" y="645" type="line" smooth="yes"/>
      <point x="1160" y="976"/>
      <point x="982" y="1156"/>
      <point x="636" y="1156" type="curve" smooth="yes"/>
      <point x="290" y="1156"/>
      <point x="112" y="976"/>
      <point x="112" y="645" type="curve" smooth="yes"/>
      <point x="112" y="500" type="line" smooth="yes"/>
      <point x="112" y="156"/>
      <point x="291" y="-29"/>
    </contour>
    <contour>
      <point x="636" y="146" type="curve" smooth="yes"/>
      <point x="411" y="146"/>
      <point x="297" y="267"/>
      <point x="297" y="500" type="curve" smooth="yes"/>
      <point x="297" y="645" type="line" smooth="yes"/>
      <point x="297" y="879"/>
      <point x="411" y="1000"/>
      <point x="636" y="1000" type="curve" smooth="yes"/>
      <point x="862" y="1000"/>
      <point x="975" y="879"/>
      <point x="975" y="645" type="curve" smooth="yes"/>
      <point x="975" y="500" type="line" smooth="yes"/>
      <point x="975" y="267"/>
      <point x="862" y="146"/>
    </contour>
    <contour>
      <point x="595" y="1086" type="curve"/>
      <point x="666" y="1086" type="line"/>
      <point x="815" y="1086"/>
      <point x="894" y="1145"/>
      <point x="951" y="1224" type="curve" smooth="yes"/>
      <point x="1057" y="1371" type="line" smooth="yes"/>
      <point x="1103" y="1435"/>
      <point x="1149" y="1452"/>
      <point x="1216" y="1452" type="curve" smooth="yes"/>
      <point x="1267" y="1452" type="line"/>
      <point x="1251" y="1619" type="line"/>
      <point x="1188" y="1619" type="line" smooth="yes"/>
      <point x="1078" y="1619"/>
      <point x="1003" y="1584"/>
      <point x="934" y="1485" type="curve" smooth="yes"/>
      <point x="777" y="1261" type="line" smooth="yes"/>
      <point x="729" y="1192"/>
      <point x="685" y="1164"/>
      <point x="626" y="1164" type="curve"/>
      <point x="619" y="1164" type="line"/>
      <point x="553" y="1164"/>
      <point x="510" y="1199"/>
      <point x="482" y="1268" type="curve" smooth="yes"/>
      <point x="428" y="1402" type="line"/>
      <point x="233" y="1402" type="line"/>
      <point x="297" y="1254" type="line" smooth="yes"/>
      <point x="349" y="1133"/>
      <point x="424" y="1086"/>
    </contour>
    <component base="chukka" xScale="1.0125" yScale="1.025" xOffset="638" yOffset="-130"/>
  </outline>
</glyph>
<glyph name="Dda.te" format="2">
  <advance width="1497"/>
  <unicode hex="0C21"/>
  <anchor x="762" y="-61" name="bottom"/>
  <outline>
    <contour>
      <point x="461" y="-27" type="curve" smooth="yes"/>
      <point x="647" y="-27"/>
      <point x="743" y="70"/>
      <point x="760" y="211" type="curve"/>
      <point x="766" y="211" type="line"/>
      <point x="784" y="70"/>
      <point x="884" y="-27"/>
      <point x="1079" y="-27" type="curve" smooth="yes"/>
      <point x="1294" y="-27"/>
      <point x="1411" y="96"/>
      <point x="1411" y="331" type="curve" smooth="yes"/>
      <point x="1411" y="346" type="line" smooth="yes"/>
      <point x="1411" y="447"/>
      <point x="1391" y="528"/>
      <point x="1354" y="598" type="curve"/>
      <point x="1172" y="598" type="line"/>
      <point x="1208" y="534"/>
      <point x="1224" y="458"/>
      <point x="1224" y="376" type="curve" smooth="yes"/>
      <point x="1224" y="363" type="line" smooth="yes"/>
      <point x="1224" y="222"/>
      <point x="1165" y="152"/>
      <point x="1045" y="152" type="curve" smooth="yes"/>
      <point x="928" y="152"/>
      <point x="866" y="225"/>
      <point x="858" y="366" type="curve" smooth="yes"/>
      <point x="852" y="472" type="line"/>
      <point x="674" y="472" type="line"/>
      <point x="668" y="366" type="line" smooth="yes"/>
      <point x="660" y="225"/>
      <point x="602" y="152"/>
      <point x="492" y="152" type="curve" smooth="yes"/>
      <point x="364" y="152"/>
      <point x="302" y="236"/>
      <point x="302" y="424" type="curve" smooth="yes"/>
      <point x="302" y="544" type="line" smooth="yes"/>
      <point x="302" y="850"/>
      <point x="455" y="1001"/>
      <point x="771" y="1001" type="curve" smooth="yes"/>
      <point x="1000" y="1001"/>
      <point x="1143" y="942"/>
      <point x="1254" y="872" type="curve"/>
      <point x="1234" y="1060" type="line"/>
      <point x="1130" y="1111"/>
      <point x="971" y="1156"/>
      <point x="771" y="1156" type="curve" smooth="yes"/>
      <point x="332" y="1156"/>
      <point x="112" y="950"/>
      <point x="112" y="537" type="curve" smooth="yes"/>
      <point x="112" y="415" type="line" smooth="yes"/>
      <point x="112" y="120"/>
      <point x="234" y="-27"/>
    </contour>
    <contour>
      <point x="713" y="1086" type="curve" smooth="yes"/>
      <point x="784" y="1086" type="line" smooth="yes"/>
      <point x="936" y="1086"/>
      <point x="1013" y="1143"/>
      <point x="1076" y="1224" type="curve" smooth="yes"/>
      <point x="1191" y="1371" type="line" smooth="yes"/>
      <point x="1240" y="1434"/>
      <point x="1284" y="1452"/>
      <point x="1351" y="1452" type="curve" smooth="yes"/>
      <point x="1413" y="1452" type="line"/>
      <point x="1399" y="1619" type="line"/>
      <point x="1326" y="1619" type="line" smooth="yes"/>
      <point x="1206" y="1619"/>
      <point x="1136" y="1578"/>
      <point x="1067" y="1485" type="curve" smooth="yes"/>
      <point x="899" y="1260" type="line" smooth="yes"/>
      <point x="848" y="1192"/>
      <point x="804" y="1164"/>
      <point x="744" y="1164" type="curve" smooth="yes"/>
      <point x="737" y="1164" type="line" smooth="yes"/>
      <point x="667" y="1164"/>
      <point x="625" y="1198"/>
      <point x="596" y="1268" type="curve" smooth="yes"/>
      <point x="541" y="1402" type="line"/>
      <point x="346" y="1402" type="line"/>
      <point x="410" y="1254" type="line" smooth="yes"/>
      <point x="464" y="1128"/>
      <point x="548" y="1086"/>
    </contour>
  </outline>
</glyph>
<glyph name="Ba.te" format="2">
  <advance width="1543"/>
  <unicode hex="0C2C"/>
  <anchor x="765" y="-61" name="bottom"/>
  <outline>
    <contour>
      <point x="439" y="-27" type="curve" smooth="yes"/>
      <point x="638" y="-27"/>
      <point x="742" y="73"/>
      <point x="761" y="209" type="curve"/>
      <point x="767" y="209" type="line"/>
      <point x="786" y="73"/>
      <point x="886" y="-27"/>
      <point x="1083" y="-27" type="curve" smooth="yes"/>
      <point x="1310" y="-27"/>
      <point x="1431" y="121"/>
      <point x="1431" y="409" type="curve" smooth="yes"/>
      <point x="1431" y="589" type="line"/>
      <point x="1241" y="589" type="line"/>
      <point x="1241" y="412" type="line" smooth="yes"/>
      <point x="1241" y="240"/>
      <point x="1178" y="152"/>
      <point x="1046" y="152" type="curve" smooth="yes"/>
      <point x="923" y="152"/>
      <point x="867" y="227"/>
      <point x="859" y="370" type="curve" smooth="yes"/>
      <point x="854" y="458" type="line"/>
      <point x="674" y="458" type="line"/>
      <point x="669" y="370" type="line" smooth="yes"/>
      <point x="661" y="227"/>
      <point x="597" y="149"/>
      <point x="467" y="149" type="curve" smooth="yes"/>
      <point x="348" y="149"/>
      <point x="289" y="213"/>
      <point x="289" y="307" type="curve" smooth="yes"/>
      <point x="289" y="309" type="line" smooth="yes"/>
      <point x="289" y="407"/>
      <point x="328" y="461"/>
      <point x="512" y="548" type="curve" smooth="yes"/>
      <point x="707" y="640"/>
      <point x="783" y="725"/>
      <point x="783" y="885" type="curve" smooth="yes"/>
      <point x="783" y="888" type="line" smooth="yes"/>
      <point x="783" y="1076"/>
      <point x="666" y="1179"/>
      <point x="446" y="1179" type="curve" smooth="yes"/>
      <point x="225" y="1179"/>
      <point x="110" y="1077"/>
      <point x="110" y="883" type="curve" smooth="yes"/>
      <point x="110" y="879" type="line" smooth="yes"/>
      <point x="110" y="815"/>
      <point x="125" y="749"/>
      <point x="148" y="691" type="curve"/>
      <point x="314" y="691" type="line"/>
      <point x="291" y="749"/>
      <point x="280" y="804"/>
      <point x="280" y="863" type="curve" smooth="yes"/>
      <point x="280" y="867" type="line" smooth="yes"/>
      <point x="280" y="974"/>
      <point x="336" y="1027"/>
      <point x="447" y="1027" type="curve" smooth="yes"/>
      <point x="554" y="1027"/>
      <point x="609" y="976"/>
      <point x="609" y="885" type="curve" smooth="yes"/>
      <point x="609" y="882" type="line" smooth="yes"/>
      <point x="609" y="782"/>
      <point x="564" y="742"/>
      <point x="395" y="662" type="curve" smooth="yes"/>
      <point x="169" y="555"/>
      <point x="98" y="463"/>
      <point x="98" y="292" type="curve" smooth="yes"/>
      <point x="98" y="288" type="line" smooth="yes"/>
      <point x="98" y="103"/>
      <point x="218" y="-27"/>
    </contour>
    <component base="Terminals.te" xOffset="912"/>
  </outline>
</glyph>
<glyph name="Ya.te" format="2">
  <advance width="2561"/>
  <unicode hex="0C2F"/>
  <anchor x="1280" y="-61" name="bottom"/>
  <outline>
    <contour>
      <point x="623" y="-28" type="curve" smooth="yes"/>
      <point x="898" y="-28"/>
      <point x="1047" y="96"/>
      <point x="1099" y="298" type="curve" smooth="yes"/>
      <point x="1115" y="352"/>
      <point x="1134" y="414"/>
      <point x="1134" y="500" type="curve" smooth="yes"/>
      <point x="1134" y="644" type="line" smooth="yes"/>
      <point x="1134" y="995"/>
      <point x="959" y="1179"/>
      <point x="623" y="1179" type="curve" smooth="yes"/>
      <point x="288" y="1179"/>
      <point x="112" y="994"/>
      <point x="112" y="644" type="curve" smooth="yes"/>
      <point x="112" y="497" type="line" smooth="yes"/>
      <point x="112" y="147"/>
      <point x="287" y="-28"/>
    </contour>
    <contour>
      <point x="623" y="147" type="curve" smooth="yes"/>
      <point x="410" y="147"/>
      <point x="302" y="266"/>
      <point x="302" y="500" type="curve" smooth="yes"/>
      <point x="302" y="645" type="line" smooth="yes"/>
      <point x="302" y="881"/>
      <point x="410" y="1005"/>
      <point x="623" y="1005" type="curve" smooth="yes"/>
      <point x="836" y="1005"/>
      <point x="944" y="881"/>
      <point x="944" y="645" type="curve" smooth="yes"/>
      <point x="944" y="500" type="line" smooth="yes"/>
      <point x="944" y="266"/>
      <point x="836" y="147"/>
    </contour>
    <contour>
      <point x="1395" y="-26" type="curve" smooth="yes"/>
      <point x="1612" y="-26"/>
      <point x="1728" y="89"/>
      <point x="1754" y="270" type="curve"/>
      <point x="1771" y="312"/>
      <point x="1791" y="358"/>
      <point x="1791" y="414" type="curve"/>
      <point x="1791" y="673" type="line" smooth="yes"/>
      <point x="1791" y="971"/>
      <point x="1663" y="1128"/>
      <point x="1396" y="1141" type="curve"/>
      <point x="1357" y="1008" type="line"/>
      <point x="1520" y="998"/>
      <point x="1601" y="888"/>
      <point x="1601" y="678" type="curve" smooth="yes"/>
      <point x="1601" y="428" type="line" smooth="yes"/>
      <point x="1601" y="243"/>
      <point x="1523" y="149"/>
      <point x="1366" y="149" type="curve" smooth="yes"/>
      <point x="1219" y="149"/>
      <point x="1134" y="236"/>
      <point x="1134" y="405" type="curve" smooth="yes"/>
      <point x="1134" y="510" type="line"/>
      <point x="1053" y="510" type="line"/>
      <point x="1053" y="299" type="line" smooth="yes"/>
      <point x="1053" y="89"/>
      <point x="1182" y="-26"/>
    </contour>
    <contour>
      <point x="1376" y="1006" type="curve"/>
      <point x="1436" y="1051" type="line"/>
      <point x="1554" y="1051"/>
      <point x="1622" y="1107"/>
      <point x="1685" y="1195" type="curve" smooth="yes"/>
      <point x="1811" y="1369" type="line" smooth="yes"/>
      <point x="1860" y="1436"/>
      <point x="1908" y="1452"/>
      <point x="1973" y="1452" type="curve" smooth="yes"/>
      <point x="2020" y="1452" type="line"/>
      <point x="2005" y="1619" type="line"/>
      <point x="1944" y="1619" type="line" smooth="yes"/>
      <point x="1831" y="1619"/>
      <point x="1760" y="1582"/>
      <point x="1693" y="1485" type="curve" smooth="yes"/>
      <point x="1538" y="1260" type="line" smooth="yes"/>
      <point x="1491" y="1192"/>
      <point x="1451" y="1164"/>
      <point x="1395" y="1164" type="curve"/>
      <point x="1388" y="1164" type="line"/>
      <point x="1325" y="1164"/>
      <point x="1287" y="1198"/>
      <point x="1258" y="1268" type="curve" smooth="yes"/>
      <point x="1203" y="1402" type="line"/>
      <point x="1015" y="1402" type="line"/>
      <point x="1084" y="1236" type="line" smooth="yes"/>
      <point x="1146" y="1086"/>
      <point x="1219" y="1006"/>
    </contour>
    <component base="matraU.te" xOffset="1835"/>
  </outline>
</glyph>
<glyph name="Rra.te" format="2">
  <advance width="1725"/>
  <unicode hex="0C31"/>
  <anchor x="861" y="-61" name="bottom"/>
  <outline>
    <contour>
      <point x="516" y="-27" type="curve" smooth="yes"/>
      <point x="730" y="-27"/>
      <point x="840" y="70"/>
      <point x="859" y="209" type="curve"/>
      <point x="865" y="209" type="line"/>
      <point x="884" y="70"/>
      <point x="994" y="-27"/>
      <point x="1208" y="-27" type="curve" smooth="yes"/>
      <point x="1473" y="-27"/>
      <point x="1613" y="134"/>
      <point x="1613" y="450" type="curve" smooth="yes"/>
      <point x="1613" y="765" type="line" smooth="yes"/>
      <point x="1613" y="1042"/>
      <point x="1493" y="1179"/>
      <point x="1248" y="1179" type="curve" smooth="yes"/>
      <point x="1035" y="1179"/>
      <point x="921" y="1067"/>
      <point x="921" y="893" type="curve" smooth="yes"/>
      <point x="921" y="875" type="line" smooth="yes"/>
      <point x="921" y="773"/>
      <point x="966" y="699"/>
      <point x="1051" y="654" type="curve"/>
      <point x="1051" y="649" type="line"/>
      <point x="798" y="649" type="line"/>
      <point x="809" y="496" type="line"/>
      <point x="1240" y="502" type="line"/>
      <point x="1240" y="643" type="line"/>
      <point x="1189" y="650" type="line"/>
      <point x="1122" y="693"/>
      <point x="1099" y="750"/>
      <point x="1099" y="823" type="curve" smooth="yes"/>
      <point x="1099" y="847" type="line" smooth="yes"/>
      <point x="1099" y="954"/>
      <point x="1151" y="1015"/>
      <point x="1251" y="1015" type="curve" smooth="yes"/>
      <point x="1359" y="1015"/>
      <point x="1425" y="944"/>
      <point x="1425" y="781" type="curve" smooth="yes"/>
      <point x="1425" y="455" type="line" smooth="yes"/>
      <point x="1425" y="259"/>
      <point x="1352" y="152"/>
      <point x="1178" y="152" type="curve" smooth="yes"/>
      <point x="1037" y="152"/>
      <point x="967" y="222"/>
      <point x="957" y="373" type="curve" smooth="yes"/>
      <point x="953" y="436" type="line"/>
      <point x="771" y="436" type="line"/>
      <point x="767" y="373" type="line" smooth="yes"/>
      <point x="757" y="222"/>
      <point x="688" y="152"/>
      <point x="547" y="152" type="curve" smooth="yes"/>
      <point x="371" y="152"/>
      <point x="301" y="260"/>
      <point x="301" y="455" type="curve" smooth="yes"/>
      <point x="301" y="610" type="line" smooth="yes"/>
      <point x="301" y="621"/>
      <point x="301" y="632"/>
      <point x="301" y="646" type="curve"/>
      <point x="311" y="646" type="line"/>
      <point x="302" y="759" type="line"/>
      <point x="302" y="817" type="line" smooth="yes"/>
      <point x="302" y="960"/>
      <point x="367" y="1023"/>
      <point x="480" y="1023" type="curve" smooth="yes"/>
      <point x="581" y="1023"/>
      <point x="635" y="964"/>
      <point x="635" y="856" type="curve" smooth="yes"/>
      <point x="635" y="826" type="line" smooth="yes"/>
      <point x="635" y="716"/>
      <point x="585" y="659"/>
      <point x="487" y="659" type="curve" smooth="yes"/>
      <point x="398" y="659"/>
      <point x="332" y="700"/>
      <point x="296" y="781" type="curve"/>
      <point x="304" y="651" type="line"/>
      <point x="341" y="569"/>
      <point x="419" y="511"/>
      <point x="537" y="511" type="curve" smooth="yes"/>
      <point x="714" y="511"/>
      <point x="809" y="620"/>
      <point x="809" y="819" type="curve" smooth="yes"/>
      <point x="809" y="854" type="line" smooth="yes"/>
      <point x="809" y="1064"/>
      <point x="694" y="1178"/>
      <point x="478" y="1178" type="curve" smooth="yes"/>
      <point x="245" y="1178"/>
      <point x="112" y="1047"/>
      <point x="112" y="797" type="curve" smooth="yes"/>
      <point x="112" y="450" type="line" smooth="yes"/>
      <point x="112" y="134"/>
      <point x="251" y="-27"/>
    </contour>
  </outline>
</glyph>
<glyph name="La.te" format="2">
  <advance width="1483"/>
  <unicode hex="0C32"/>
  <anchor x="742" y="-61" name="bottom"/>
  <outline>
    <contour>
      <point x="744" y="-28" type="curve" smooth="yes"/>
      <point x="1162" y="-28"/>
      <point x="1371" y="172"/>
      <point x="1371" y="557" type="curve" smooth="yes"/>
      <point x="1371" y="696" type="line" smooth="yes"/>
      <point x="1371" y="994"/>
      <point x="1230" y="1163"/>
      <point x="969" y="1163" type="curve" smooth="yes"/>
      <point x="954" y="1163" type="line"/>
      <point x="930" y="995" type="line"/>
      <point x="937" y="995" type="line" smooth="yes"/>
      <point x="1099" y="995"/>
      <point x="1181" y="888"/>
      <point x="1181" y="693" type="curve" smooth="yes"/>
      <point x="1181" y="562" type="line" smooth="yes"/>
      <point x="1181" y="283"/>
      <point x="1038" y="147"/>
      <point x="744" y="147" type="curve" smooth="yes"/>
      <point x="445" y="147"/>
      <point x="301" y="285"/>
      <point x="301" y="568" type="curve" smooth="yes"/>
      <point x="301" y="620" type="line" smooth="yes"/>
      <point x="301" y="628"/>
      <point x="301" y="636"/>
      <point x="301" y="646" type="curve"/>
      <point x="311" y="646" type="line"/>
      <point x="302" y="759" type="line"/>
      <point x="302" y="817" type="line" smooth="yes"/>
      <point x="302" y="959"/>
      <point x="367" y="1023"/>
      <point x="480" y="1023" type="curve" smooth="yes"/>
      <point x="581" y="1023"/>
      <point x="635" y="964"/>
      <point x="635" y="856" type="curve" smooth="yes"/>
      <point x="635" y="826" type="line" smooth="yes"/>
      <point x="635" y="716"/>
      <point x="585" y="659"/>
      <point x="487" y="659" type="curve" smooth="yes"/>
      <point x="398" y="659"/>
      <point x="332" y="700"/>
      <point x="296" y="781" type="curve"/>
      <point x="304" y="651" type="line"/>
      <point x="341" y="569"/>
      <point x="419" y="511"/>
      <point x="537" y="511" type="curve" smooth="yes"/>
      <point x="711" y="511"/>
      <point x="809" y="621"/>
      <point x="809" y="819" type="curve" smooth="yes"/>
      <point x="809" y="854" type="line" smooth="yes"/>
      <point x="809" y="1064"/>
      <point x="695" y="1178"/>
      <point x="480" y="1178" type="curve" smooth="yes"/>
      <point x="246" y="1178"/>
      <point x="112" y="1047"/>
      <point x="112" y="797" type="curve" smooth="yes"/>
      <point x="112" y="562" type="line" smooth="yes"/>
      <point x="112" y="174"/>
      <point x="324" y="-28"/>
    </contour>
  </outline>
</glyph>
<glyph name="Lla.te" format="2">
  <advance width="1410"/>
  <unicode hex="0C33"/>
  <anchor x="714" y="-61" name="bottom"/>
  <outline>
    <contour>
      <point x="988" y="1011" type="curve"/>
      <point x="1043" y="1051" type="line"/>
      <point x="1165" y="1053"/>
      <point x="1227" y="1112"/>
      <point x="1288" y="1197" type="curve" smooth="yes"/>
      <point x="1412" y="1371" type="line" smooth="yes"/>
      <point x="1461" y="1440"/>
      <point x="1511" y="1452"/>
      <point x="1572" y="1452" type="curve" smooth="yes"/>
      <point x="1618" y="1452" type="line"/>
      <point x="1603" y="1619" type="line"/>
      <point x="1543" y="1619" type="line" smooth="yes"/>
      <point x="1432" y="1619"/>
      <point x="1358" y="1583"/>
      <point x="1292" y="1485" type="curve" smooth="yes"/>
      <point x="1142" y="1261" type="line" smooth="yes"/>
      <point x="1095" y="1191"/>
      <point x="1057" y="1164"/>
      <point x="1001" y="1164" type="curve" smooth="yes"/>
      <point x="995" y="1164" type="line" smooth="yes"/>
      <point x="933" y="1164"/>
      <point x="898" y="1202"/>
      <point x="871" y="1268" type="curve" smooth="yes"/>
      <point x="816" y="1402" type="line"/>
      <point x="628" y="1402" type="line"/>
      <point x="700" y="1235" type="line" smooth="yes"/>
      <point x="760" y="1096"/>
      <point x="826" y="1011"/>
    </contour>
    <contour>
      <point x="713" y="402" type="line"/>
      <point x="818" y="380" type="line"/>
      <point x="1153" y="394"/>
      <point x="1318" y="545"/>
      <point x="1318" y="792" type="curve" smooth="yes"/>
      <point x="1318" y="817" type="line" smooth="yes"/>
      <point x="1318" y="1003"/>
      <point x="1221" y="1105"/>
      <point x="1003" y="1118" type="curve"/>
      <point x="959" y="1014" type="line"/>
      <point x="1075" y="1003"/>
      <point x="1134" y="939"/>
      <point x="1134" y="815" type="curve" smooth="yes"/>
      <point x="1134" y="792" type="line" smooth="yes"/>
      <point x="1134" y="610"/>
      <point x="1003" y="511"/>
      <point x="714" y="511" type="curve" smooth="yes"/>
      <point x="415" y="511"/>
      <point x="266" y="610"/>
      <point x="266" y="757" type="curve" smooth="yes"/>
      <point x="266" y="758" type="line"/>
      <point x="274" y="758" type="line"/>
      <point x="268" y="851" type="line"/>
      <point x="268" y="881" type="line" smooth="yes"/>
      <point x="268" y="984"/>
      <point x="322" y="1038"/>
      <point x="420" y="1038" type="curve" smooth="yes"/>
      <point x="509" y="1038"/>
      <point x="558" y="986"/>
      <point x="558" y="901" type="curve" smooth="yes"/>
      <point x="558" y="886" type="line" smooth="yes"/>
      <point x="558" y="806"/>
      <point x="511" y="763"/>
      <point x="425" y="763" type="curve" smooth="yes"/>
      <point x="350" y="763"/>
      <point x="295" y="797"/>
      <point x="262" y="874" type="curve"/>
      <point x="271" y="759" type="line"/>
      <point x="301" y="675"/>
      <point x="375" y="629"/>
      <point x="478" y="629" type="curve" smooth="yes"/>
      <point x="635" y="629"/>
      <point x="728" y="718"/>
      <point x="728" y="882" type="curve" smooth="yes"/>
      <point x="728" y="898" type="line" smooth="yes"/>
      <point x="728" y="1075"/>
      <point x="622" y="1188"/>
      <point x="419" y="1188" type="curve" smooth="yes"/>
      <point x="204" y="1188"/>
      <point x="92" y="1070"/>
      <point x="92" y="862" type="curve" smooth="yes"/>
      <point x="92" y="812" type="line" smooth="yes"/>
      <point x="92" y="556"/>
      <point x="261" y="394"/>
      <point x="606" y="380" type="curve"/>
    </contour>
    <contour>
      <point x="714" y="463" type="curve" smooth="yes"/>
      <point x="482" y="463"/>
      <point x="356" y="384"/>
      <point x="356" y="229" type="curve" smooth="yes"/>
      <point x="356" y="223" type="line" smooth="yes"/>
      <point x="356" y="70"/>
      <point x="476" y="-31"/>
      <point x="714" y="-31" type="curve" smooth="yes"/>
      <point x="952" y="-31"/>
      <point x="1071" y="70"/>
      <point x="1071" y="223" type="curve" smooth="yes"/>
      <point x="1071" y="229" type="line" smooth="yes"/>
      <point x="1071" y="384"/>
      <point x="946" y="463"/>
    </contour>
    <contour>
      <point x="714" y="129" type="curve" smooth="yes"/>
      <point x="593" y="129"/>
      <point x="531" y="170"/>
      <point x="531" y="250" type="curve" smooth="yes"/>
      <point x="531" y="256" type="line" smooth="yes"/>
      <point x="531" y="333"/>
      <point x="591" y="376"/>
      <point x="714" y="376" type="curve" smooth="yes"/>
      <point x="838" y="376"/>
      <point x="897" y="333"/>
      <point x="897" y="256" type="curve" smooth="yes"/>
      <point x="897" y="250" type="line" smooth="yes"/>
      <point x="897" y="170"/>
      <point x="835" y="129"/>
    </contour>
  </outline>
</glyph>
<glyph name="Va.te" format="2">
  <advance width="1483"/>
  <unicode hex="0C35"/>
  <anchor x="702" y="-61" name="bottom"/>
  <outline>
    <contour>
      <point x="411" y="-27" type="curve" smooth="yes"/>
      <point x="589" y="-27"/>
      <point x="678" y="64"/>
      <point x="700" y="191" type="curve"/>
      <point x="706" y="191" type="line"/>
      <point x="732" y="54"/>
      <point x="834" y="-27"/>
      <point x="1013" y="-27" type="curve" smooth="yes"/>
      <point x="1249" y="-27"/>
      <point x="1371" y="120"/>
      <point x="1371" y="413" type="curve" smooth="yes"/>
      <point x="1371" y="578" type="line" smooth="yes"/>
      <point x="1371" y="985"/>
      <point x="1149" y="1158"/>
      <point x="750" y="1158" type="curve" smooth="yes"/>
      <point x="638" y="1158" type="line"/>
      <point x="547" y="1098" type="line"/>
      <point x="562" y="1005" type="line"/>
      <point x="737" y="1005" type="line" smooth="yes"/>
      <point x="1054" y="1005"/>
      <point x="1181" y="854"/>
      <point x="1181" y="579" type="curve" smooth="yes"/>
      <point x="1181" y="411" type="line" smooth="yes"/>
      <point x="1181" y="236"/>
      <point x="1112" y="149"/>
      <point x="978" y="149" type="curve" smooth="yes"/>
      <point x="858" y="149"/>
      <point x="777" y="214"/>
      <point x="773" y="355" type="curve" smooth="yes"/>
      <point x="772" y="391" type="line" smooth="yes"/>
      <point x="766" y="599"/>
      <point x="642" y="713"/>
      <point x="433" y="713" type="curve" smooth="yes"/>
      <point x="211" y="713"/>
      <point x="90" y="584"/>
      <point x="90" y="367" type="curve" smooth="yes"/>
      <point x="90" y="315" type="line" smooth="yes"/>
      <point x="90" y="103"/>
      <point x="202" y="-27"/>
    </contour>
    <contour>
      <point x="433" y="145" type="curve" smooth="yes"/>
      <point x="324" y="145"/>
      <point x="266" y="208"/>
      <point x="266" y="324" type="curve" smooth="yes"/>
      <point x="266" y="367" type="line" smooth="yes"/>
      <point x="266" y="489"/>
      <point x="324" y="550"/>
      <point x="434" y="550" type="curve" smooth="yes"/>
      <point x="545" y="550"/>
      <point x="602" y="489"/>
      <point x="602" y="367" type="curve" smooth="yes"/>
      <point x="602" y="325" type="line" smooth="yes"/>
      <point x="602" y="207"/>
      <point x="545" y="145"/>
    </contour>
    <contour>
      <point x="562" y="1005" type="curve"/>
      <point x="626" y="1092" type="line"/>
      <point x="766" y="1092"/>
      <point x="837" y="1146"/>
      <point x="903" y="1229" type="curve" smooth="yes"/>
      <point x="1015" y="1371" type="line" smooth="yes"/>
      <point x="1064" y="1433"/>
      <point x="1108" y="1452"/>
      <point x="1175" y="1452" type="curve" smooth="yes"/>
      <point x="1262" y="1452" type="line"/>
      <point x="1246" y="1619" type="line"/>
      <point x="1151" y="1619" type="line" smooth="yes"/>
      <point x="1037" y="1619"/>
      <point x="964" y="1581"/>
      <point x="892" y="1485" type="curve" smooth="yes"/>
      <point x="724" y="1260" type="line" smooth="yes"/>
      <point x="677" y="1197"/>
      <point x="631" y="1164"/>
      <point x="567" y="1164" type="curve"/>
      <point x="560" y="1164" type="line"/>
      <point x="490" y="1164"/>
      <point x="450" y="1198"/>
      <point x="421" y="1268" type="curve" smooth="yes"/>
      <point x="366" y="1402" type="line"/>
      <point x="171" y="1402" type="line"/>
      <point x="234" y="1254" type="line" smooth="yes"/>
      <point x="301" y="1096"/>
      <point x="368" y="1005"/>
    </contour>
  </outline>
</glyph>
<glyph name="Sha.te" format="2">
  <advance width="1337"/>
  <unicode hex="0C36"/>
  <anchor x="671" y="-61" name="bottom"/>
  <outline>
    <contour>
      <point x="863" y="-29" type="curve" smooth="yes"/>
      <point x="1107" y="-29"/>
      <point x="1233" y="107"/>
      <point x="1233" y="318" type="curve" smooth="yes"/>
      <point x="1233" y="386" type="line" smooth="yes"/>
      <point x="1233" y="575"/>
      <point x="1150" y="702"/>
      <point x="998" y="774" type="curve"/>
      <point x="945" y="798" type="line"/>
      <point x="863" y="830"/>
      <point x="765" y="849"/>
      <point x="658" y="849" type="curve" smooth="yes"/>
      <point x="643" y="849" type="line" smooth="yes"/>
      <point x="294" y="849"/>
      <point x="93" y="687"/>
      <point x="93" y="376" type="curve" smooth="yes"/>
      <point x="93" y="353" type="line" smooth="yes"/>
      <point x="93" y="288"/>
      <point x="102" y="221"/>
      <point x="121" y="164" type="curve"/>
      <point x="306" y="164" type="line"/>
      <point x="290" y="222"/>
      <point x="281" y="286"/>
      <point x="281" y="346" type="curve" smooth="yes"/>
      <point x="281" y="368" type="line" smooth="yes"/>
      <point x="281" y="579"/>
      <point x="408" y="692"/>
      <point x="648" y="692" type="curve" smooth="yes"/>
      <point x="664" y="692" type="line" smooth="yes"/>
      <point x="729" y="692"/>
      <point x="770" y="686"/>
      <point x="826" y="673" type="curve"/>
      <point x="868" y="660" type="line"/>
      <point x="983" y="618"/>
      <point x="1043" y="530"/>
      <point x="1043" y="398" type="curve" smooth="yes"/>
      <point x="1043" y="325" type="line" smooth="yes"/>
      <point x="1043" y="209"/>
      <point x="983" y="146"/>
      <point x="864" y="146" type="curve" smooth="yes"/>
      <point x="743" y="146"/>
      <point x="683" y="208"/>
      <point x="683" y="317" type="curve" smooth="yes"/>
      <point x="683" y="343" type="line" smooth="yes"/>
      <point x="683" y="485"/>
      <point x="761" y="559"/>
      <point x="932" y="658" type="curve"/>
      <point x="1009" y="710" type="line"/>
      <point x="1132" y="789"/>
      <point x="1193" y="856"/>
      <point x="1193" y="959" type="curve" smooth="yes"/>
      <point x="1193" y="1083"/>
      <point x="1106" y="1155"/>
      <point x="950" y="1155" type="curve" smooth="yes"/>
      <point x="755" y="1155" type="line"/>
      <point x="695" y="1030" type="line"/>
      <point x="897" y="1030" type="line" smooth="yes"/>
      <point x="972" y="1030"/>
      <point x="1008" y="998"/>
      <point x="1008" y="946" type="curve" smooth="yes"/>
      <point x="1008" y="888"/>
      <point x="960" y="850"/>
      <point x="846" y="783" type="curve"/>
      <point x="758" y="722" type="line"/>
      <point x="575" y="611"/>
      <point x="497" y="514"/>
      <point x="497" y="323" type="curve" smooth="yes"/>
      <point x="497" y="297" type="line" smooth="yes"/>
      <point x="497" y="100"/>
      <point x="623" y="-29"/>
    </contour>
    <contour>
      <point x="695" y="1030" type="curve"/>
      <point x="771" y="1092" type="line"/>
      <point x="906" y="1092"/>
      <point x="976" y="1144"/>
      <point x="1042" y="1229" type="curve" smooth="yes"/>
      <point x="1151" y="1370" type="line" smooth="yes"/>
      <point x="1203" y="1438"/>
      <point x="1252" y="1452"/>
      <point x="1316" y="1452" type="curve" smooth="yes"/>
      <point x="1363" y="1452" type="line"/>
      <point x="1348" y="1619" type="line"/>
      <point x="1289" y="1619" type="line" smooth="yes"/>
      <point x="1175" y="1619"/>
      <point x="1102" y="1581"/>
      <point x="1031" y="1485" type="curve" smooth="yes"/>
      <point x="865" y="1260" type="line" smooth="yes"/>
      <point x="811" y="1187"/>
      <point x="765" y="1164"/>
      <point x="708" y="1164" type="curve" smooth="yes"/>
      <point x="701" y="1164" type="line" smooth="yes"/>
      <point x="631" y="1164"/>
      <point x="590" y="1197"/>
      <point x="561" y="1268" type="curve" smooth="yes"/>
      <point x="507" y="1402" type="line"/>
      <point x="312" y="1402" type="line"/>
      <point x="374" y="1259" type="line" smooth="yes"/>
      <point x="437" y="1114"/>
      <point x="510" y="1030"/>
    </contour>
  </outline>
</glyph>
<glyph name="Sa.te" format="2">
  <advance width="1477"/>
  <unicode hex="0C38"/>
  <anchor x="705" y="-61" name="bottom"/>
  <outline>
    <contour>
      <point x="995" y="-24" type="curve" smooth="yes"/>
      <point x="1237" y="-24"/>
      <point x="1365" y="128"/>
      <point x="1365" y="407" type="curve" smooth="yes"/>
      <point x="1365" y="584" type="line"/>
      <point x="1174" y="584" type="line"/>
      <point x="1174" y="406" type="line" smooth="yes"/>
      <point x="1174" y="239"/>
      <point x="1113" y="151"/>
      <point x="991" y="151" type="curve" smooth="yes"/>
      <point x="879" y="151"/>
      <point x="822" y="216"/>
      <point x="796" y="348" type="curve" smooth="yes"/>
      <point x="784" y="408" type="line" smooth="yes"/>
      <point x="747" y="592"/>
      <point x="652" y="712"/>
      <point x="433" y="712" type="curve" smooth="yes"/>
      <point x="215" y="712"/>
      <point x="93" y="579"/>
      <point x="93" y="333" type="curve" smooth="yes"/>
      <point x="93" y="301" type="line" smooth="yes"/>
      <point x="93" y="186"/>
      <point x="112" y="86"/>
      <point x="148" y="-2" type="curve"/>
      <point x="342" y="-2" type="line"/>
      <point x="300" y="100"/>
      <point x="283" y="196"/>
      <point x="283" y="298" type="curve" smooth="yes"/>
      <point x="283" y="328" type="line" smooth="yes"/>
      <point x="283" y="470"/>
      <point x="341" y="540"/>
      <point x="441" y="540" type="curve" smooth="yes"/>
      <point x="547" y="540"/>
      <point x="587" y="473"/>
      <point x="615" y="341" type="curve" smooth="yes"/>
      <point x="628" y="279" type="line" smooth="yes"/>
      <point x="665" y="104"/>
      <point x="765" y="-24"/>
    </contour>
    <contour>
      <point x="458" y="1001" type="curve" smooth="yes"/>
      <point x="471" y="1001" type="line" smooth="yes"/>
      <point x="605" y="1001"/>
      <point x="689" y="1073"/>
      <point x="782" y="1192" type="curve" smooth="yes"/>
      <point x="921" y="1370" type="line" smooth="yes"/>
      <point x="973" y="1436"/>
      <point x="1021" y="1451"/>
      <point x="1082" y="1451" type="curve" smooth="yes"/>
      <point x="1199" y="1451" type="line"/>
      <point x="1185" y="1618" type="line"/>
      <point x="1058" y="1618" type="line" smooth="yes"/>
      <point x="939" y="1618"/>
      <point x="869" y="1576"/>
      <point x="799" y="1484" type="curve" smooth="yes"/>
      <point x="627" y="1260" type="line" smooth="yes"/>
      <point x="578" y="1196"/>
      <point x="535" y="1162"/>
      <point x="474" y="1162" type="curve" smooth="yes"/>
      <point x="467" y="1162" type="line" smooth="yes"/>
      <point x="402" y="1162"/>
      <point x="358" y="1194"/>
      <point x="328" y="1268" type="curve" smooth="yes"/>
      <point x="274" y="1402" type="line"/>
      <point x="80" y="1402" type="line"/>
      <point x="152" y="1236" type="line" smooth="yes"/>
      <point x="218" y="1083"/>
      <point x="298" y="1001"/>
    </contour>
    <contour>
      <point x="1174" y="523" type="line"/>
      <point x="1365" y="523" type="line"/>
      <point x="1365" y="665" type="line" smooth="yes"/>
      <point x="1365" y="989"/>
      <point x="1215" y="1162"/>
      <point x="930" y="1162" type="curve"/>
      <point x="916" y="1162" type="line"/>
      <point x="887" y="995" type="line"/>
      <point x="894" y="995" type="line"/>
      <point x="1081" y="995"/>
      <point x="1174" y="883"/>
      <point x="1174" y="661" type="curve" smooth="yes"/>
    </contour>
  </outline>
</glyph>
<glyph name="Ha.te" format="2">
  <advance width="2343"/>
  <unicode hex="0C39"/>
  <anchor x="706" y="-61" name="bottom"/>
  <outline>
    <contour>
      <point x="414" y="-27" type="curve" smooth="yes"/>
      <point x="592" y="-27"/>
      <point x="681" y="64"/>
      <point x="703" y="191" type="curve"/>
      <point x="709" y="191" type="line"/>
      <point x="735" y="58"/>
      <point x="836" y="-27"/>
      <point x="1019" y="-27" type="curve" smooth="yes"/>
      <point x="1257" y="-27"/>
      <point x="1380" y="126"/>
      <point x="1380" y="420" type="curve"/>
      <point x="1380" y="649" type="line"/>
      <point x="1380" y="941"/>
      <point x="1235" y="1099"/>
      <point x="963" y="1099" type="curve"/>
      <point x="926" y="1163" type="line"/>
      <point x="898" y="995" type="line"/>
      <point x="905" y="995" type="line"/>
      <point x="1095" y="995"/>
      <point x="1190" y="884"/>
      <point x="1190" y="661" type="curve"/>
      <point x="1190" y="425" type="line"/>
      <point x="1190" y="240"/>
      <point x="1120" y="149"/>
      <point x="983" y="149" type="curve" smooth="yes"/>
      <point x="862" y="149"/>
      <point x="780" y="214"/>
      <point x="776" y="355" type="curve" smooth="yes"/>
      <point x="775" y="391" type="line" smooth="yes"/>
      <point x="769" y="599"/>
      <point x="645" y="713"/>
      <point x="436" y="713" type="curve" smooth="yes"/>
      <point x="214" y="713"/>
      <point x="93" y="584"/>
      <point x="93" y="367" type="curve" smooth="yes"/>
      <point x="93" y="315" type="line" smooth="yes"/>
      <point x="93" y="103"/>
      <point x="205" y="-27"/>
    </contour>
    <contour>
      <point x="436" y="145" type="curve" smooth="yes"/>
      <point x="327" y="145"/>
      <point x="269" y="208"/>
      <point x="269" y="324" type="curve" smooth="yes"/>
      <point x="269" y="367" type="line" smooth="yes"/>
      <point x="269" y="489"/>
      <point x="327" y="550"/>
      <point x="437" y="550" type="curve" smooth="yes"/>
      <point x="548" y="550"/>
      <point x="605" y="489"/>
      <point x="605" y="367" type="curve" smooth="yes"/>
      <point x="605" y="325" type="line" smooth="yes"/>
      <point x="605" y="207"/>
      <point x="548" y="145"/>
    </contour>
    <contour>
      <point x="459" y="1001" type="curve" smooth="yes"/>
      <point x="471" y="1001" type="line" smooth="yes"/>
      <point x="607" y="1001"/>
      <point x="688" y="1072"/>
      <point x="776" y="1184" type="curve" smooth="yes"/>
      <point x="922" y="1370" type="line" smooth="yes"/>
      <point x="975" y="1437"/>
      <point x="1022" y="1451"/>
      <point x="1083" y="1451" type="curve" smooth="yes"/>
      <point x="1200" y="1451" type="line"/>
      <point x="1185" y="1618" type="line"/>
      <point x="1058" y="1618" type="line" smooth="yes"/>
      <point x="938" y="1618"/>
      <point x="868" y="1575"/>
      <point x="799" y="1484" type="curve" smooth="yes"/>
      <point x="628" y="1260" type="line" smooth="yes"/>
      <point x="579" y="1195"/>
      <point x="535" y="1162"/>
      <point x="474" y="1162" type="curve" smooth="yes"/>
      <point x="467" y="1162" type="line" smooth="yes"/>
      <point x="402" y="1162"/>
      <point x="359" y="1194"/>
      <point x="329" y="1268" type="curve" smooth="yes"/>
      <point x="274" y="1402" type="line"/>
      <point x="80" y="1402" type="line"/>
      <point x="151" y="1241" type="line" smooth="yes"/>
      <point x="224" y="1075"/>
      <point x="301" y="1001"/>
    </contour>
    <contour>
      <point x="1888" y="172" type="curve" smooth="yes"/>
      <point x="2112" y="172"/>
      <point x="2231" y="311"/>
      <point x="2231" y="544" type="curve" smooth="yes"/>
      <point x="2231" y="665" type="line" smooth="yes"/>
      <point x="2231" y="975"/>
      <point x="2064" y="1163"/>
      <point x="1713" y="1163" type="curve" smooth="yes"/>
      <point x="926" y="1163" type="line"/>
      <point x="938" y="1029" type="line"/>
      <point x="1324" y="1008" type="line"/>
      <point x="1709" y="1008" type="line" smooth="yes"/>
      <point x="1950" y="1008"/>
      <point x="2055" y="887"/>
      <point x="2055" y="696" type="curve" smooth="yes"/>
      <point x="2055" y="694" type="line"/>
      <point x="2043" y="694" type="line"/>
      <point x="2052" y="600" type="line"/>
      <point x="2052" y="527" type="line" smooth="yes"/>
      <point x="2052" y="406"/>
      <point x="1996" y="342"/>
      <point x="1889" y="342" type="curve" smooth="yes"/>
      <point x="1791" y="342"/>
      <point x="1736" y="400"/>
      <point x="1736" y="500" type="curve" smooth="yes"/>
      <point x="1736" y="531" type="line" smooth="yes"/>
      <point x="1736" y="635"/>
      <point x="1788" y="690"/>
      <point x="1884" y="690" type="curve" smooth="yes"/>
      <point x="1965" y="690"/>
      <point x="2026" y="654"/>
      <point x="2057" y="578" type="curve"/>
      <point x="2050" y="692" type="line"/>
      <point x="2023" y="777"/>
      <point x="1959" y="838"/>
      <point x="1829" y="838" type="curve" smooth="yes"/>
      <point x="1660" y="838"/>
      <point x="1559" y="726"/>
      <point x="1559" y="535" type="curve" smooth="yes"/>
      <point x="1559" y="501" type="line" smooth="yes"/>
      <point x="1559" y="299"/>
      <point x="1673" y="172"/>
    </contour>
  </outline>
</glyph>
<glyph name="Avagraha.te" format="2">
  <advance width="1236"/>
  <unicode hex="0C3D"/>
  <outline>
    <contour>
      <point x="484" y="0" type="curve" smooth="yes"/>
      <point x="1193" y="0" type="line"/>
      <point x="1193" y="169" type="line"/>
      <point x="483" y="169" type="line" smooth="yes"/>
      <point x="345" y="169"/>
      <point x="286" y="210"/>
      <point x="286" y="294" type="curve" smooth="yes"/>
      <point x="286" y="297" type="line" smooth="yes"/>
      <point x="286" y="383"/>
      <point x="339" y="420"/>
      <point x="602" y="489" type="curve" smooth="yes"/>
      <point x="940" y="575"/>
      <point x="1019" y="671"/>
      <point x="1019" y="846" type="curve" smooth="yes"/>
      <point x="1019" y="851" type="line" smooth="yes"/>
      <point x="1019" y="1057"/>
      <point x="858" y="1162"/>
      <point x="572" y="1162" type="curve" smooth="yes"/>
      <point x="263" y="1162"/>
      <point x="123" y="1049"/>
      <point x="123" y="849" type="curve" smooth="yes"/>
      <point x="123" y="844" type="line" smooth="yes"/>
      <point x="123" y="813"/>
      <point x="125" y="786"/>
      <point x="131" y="748" type="curve"/>
      <point x="311" y="748" type="line"/>
      <point x="306" y="778"/>
      <point x="305" y="802"/>
      <point x="305" y="825" type="curve" smooth="yes"/>
      <point x="305" y="829" type="line" smooth="yes"/>
      <point x="305" y="939"/>
      <point x="386" y="1002"/>
      <point x="572" y="1002" type="curve" smooth="yes"/>
      <point x="753" y="1002"/>
      <point x="833" y="948"/>
      <point x="833" y="845" type="curve" smooth="yes"/>
      <point x="833" y="840" type="line" smooth="yes"/>
      <point x="833" y="747"/>
      <point x="786" y="699"/>
      <point x="525" y="631" type="curve" smooth="yes"/>
      <point x="193" y="549"/>
      <point x="99" y="460"/>
      <point x="99" y="283" type="curve" smooth="yes"/>
      <point x="99" y="280" type="line" smooth="yes"/>
      <point x="99" y="106"/>
      <point x="219" y="0"/>
    </contour>
  </outline>
</glyph>
<glyph name="matraAa.te" format="2">
  <advance width="1015"/>
  <unicode hex="0C3E"/>
  <outline>
    <contour>
      <point x="560" y="184" type="curve" smooth="yes"/>
      <point x="787" y="184"/>
      <point x="903" y="317"/>
      <point x="903" y="554" type="curve" smooth="yes"/>
      <point x="903" y="665" type="line" smooth="yes"/>
      <point x="903" y="974"/>
      <point x="736" y="1163"/>
      <point x="385" y="1163" type="curve" smooth="yes"/>
      <point x="-404" y="1163" type="line"/>
      <point x="-404" y="1005" type="line"/>
      <point x="382" y="1005" type="line" smooth="yes"/>
      <point x="622" y="1005"/>
      <point x="727" y="885"/>
      <point x="727" y="696" type="curve" smooth="yes"/>
      <point x="727" y="681" type="line"/>
      <point x="715" y="679" type="line"/>
      <point x="725" y="610" type="line"/>
      <point x="725" y="528" type="line"/>
      <point x="725" y="407"/>
      <point x="670" y="342"/>
      <point x="561" y="342" type="curve" smooth="yes"/>
      <point x="462" y="342"/>
      <point x="408" y="400"/>
      <point x="408" y="500" type="curve" smooth="yes"/>
      <point x="408" y="532" type="line" smooth="yes"/>
      <point x="408" y="635"/>
      <point x="460" y="690"/>
      <point x="557" y="690" type="curve" smooth="yes"/>
      <point x="637" y="690"/>
      <point x="698" y="654"/>
      <point x="729" y="578" type="curve"/>
      <point x="727" y="670" type="line"/>
      <point x="701" y="767"/>
      <point x="626" y="833"/>
      <point x="496" y="833" type="curve" smooth="yes"/>
      <point x="327" y="833"/>
      <point x="231" y="727"/>
      <point x="231" y="536" type="curve" smooth="yes"/>
      <point x="231" y="501" type="line" smooth="yes"/>
      <point x="231" y="303"/>
      <point x="344" y="184"/>
    </contour>
  </outline>
</glyph>
<glyph name="matraI.te" format="2">
  <advance width="11"/>
  <unicode hex="0C3F"/>
  <outline>
    <contour>
      <point x="-534" y="1001" type="curve" smooth="yes"/>
      <point x="-286" y="1001"/>
      <point x="-157" y="1140"/>
      <point x="-157" y="1389" type="curve" smooth="yes"/>
      <point x="-157" y="1422" type="line" smooth="yes"/>
      <point x="-157" y="1647"/>
      <point x="-272" y="1764"/>
      <point x="-504" y="1764" type="curve" smooth="yes"/>
      <point x="-718" y="1764"/>
      <point x="-830" y="1675"/>
      <point x="-830" y="1514" type="curve" smooth="yes"/>
      <point x="-830" y="1511" type="line" smooth="yes"/>
      <point x="-830" y="1360"/>
      <point x="-744" y="1268"/>
      <point x="-554" y="1268" type="curve" smooth="yes"/>
      <point x="-417" y="1268"/>
      <point x="-354" y="1324"/>
      <point x="-326" y="1394" type="curve"/>
      <point x="-324" y="1498" type="line"/>
      <point x="-358" y="1443"/>
      <point x="-415" y="1409"/>
      <point x="-512" y="1409" type="curve" smooth="yes"/>
      <point x="-610" y="1409"/>
      <point x="-658" y="1444"/>
      <point x="-658" y="1510" type="curve" smooth="yes"/>
      <point x="-658" y="1513" type="line" smooth="yes"/>
      <point x="-658" y="1584"/>
      <point x="-607" y="1620"/>
      <point x="-502" y="1620" type="curve" smooth="yes"/>
      <point x="-386" y="1620"/>
      <point x="-329" y="1570"/>
      <point x="-329" y="1465" type="curve"/>
      <point x="-329" y="1450" type="line"/>
      <point x="-331" y="1392" type="line"/>
      <point x="-322" y="1392" type="line"/>
      <point x="-322" y="1390" type="line"/>
      <point x="-322" y="1246"/>
      <point x="-401" y="1146"/>
      <point x="-557" y="1146" type="curve" smooth="yes"/>
      <point x="-635" y="1146"/>
      <point x="-725" y="1159"/>
      <point x="-809" y="1201" type="curve"/>
      <point x="-789" y="1053" type="line"/>
      <point x="-710" y="1017"/>
      <point x="-623" y="1001"/>
    </contour>
  </outline>
</glyph>
<glyph name="matraU.te" format="2">
  <advance width="726"/>
  <unicode hex="0C41"/>
  <outline>
    <contour>
      <point x="227" y="-26" type="curve" smooth="yes"/>
      <point x="482" y="-26"/>
      <point x="614" y="128"/>
      <point x="614" y="426" type="curve" smooth="yes"/>
      <point x="614" y="555" type="line"/>
      <point x="424" y="555" type="line"/>
      <point x="424" y="435" type="line" smooth="yes"/>
      <point x="424" y="245"/>
      <point x="346" y="149"/>
      <point x="190" y="149" type="curve" smooth="yes"/>
      <point x="41" y="149"/>
      <point x="-44" y="230"/>
      <point x="-44" y="387" type="curve" smooth="yes"/>
      <point x="-44" y="427" type="line"/>
      <point x="-113" y="427" type="line"/>
      <point x="-113" y="283" type="line" smooth="yes"/>
      <point x="-113" y="93"/>
      <point x="9" y="-26"/>
    </contour>
    <component base="Terminals.te" xOffset="95"/>
  </outline>
</glyph>
<glyph name="matraUu.te" format="2">
  <advance width="1585"/>
  <unicode hex="0C42"/>
  <outline>
    <contour>
      <point x="242" y="-26" type="curve" smooth="yes"/>
      <point x="492" y="-26"/>
      <point x="622" y="127"/>
      <point x="622" y="413" type="curve"/>
      <point x="622" y="545" type="line"/>
      <point x="432" y="554" type="line"/>
      <point x="432" y="425" type="line"/>
      <point x="432" y="243"/>
      <point x="354" y="149"/>
      <point x="198" y="149" type="curve" smooth="yes"/>
      <point x="49" y="149"/>
      <point x="-35" y="230"/>
      <point x="-35" y="387" type="curve" smooth="yes"/>
      <point x="-35" y="427" type="line"/>
      <point x="-100" y="427" type="line"/>
      <point x="-100" y="285" type="line" smooth="yes"/>
      <point x="-100" y="93"/>
      <point x="26" y="-26"/>
    </contour>
    <contour>
      <point x="432" y="527" type="line"/>
      <point x="622" y="519" type="line"/>
      <point x="622" y="642" type="line"/>
      <point x="622" y="928"/>
      <point x="478" y="1082"/>
      <point x="191" y="1095" type="curve"/>
      <point x="161" y="1163" type="line"/>
      <point x="137" y="995" type="line"/>
      <point x="144" y="995" type="line"/>
      <point x="336" y="995"/>
      <point x="432" y="884"/>
      <point x="432" y="661" type="curve"/>
    </contour>
    <contour>
      <point x="1130" y="185" type="curve" smooth="yes"/>
      <point x="1356" y="185"/>
      <point x="1473" y="317"/>
      <point x="1473" y="553" type="curve" smooth="yes"/>
      <point x="1473" y="665" type="line" smooth="yes"/>
      <point x="1473" y="975"/>
      <point x="1306" y="1163"/>
      <point x="955" y="1163" type="curve" smooth="yes"/>
      <point x="161" y="1163" type="line"/>
      <point x="169" y="1029" type="line"/>
      <point x="564" y="1006" type="line"/>
      <point x="951" y="1006" type="line" smooth="yes"/>
      <point x="1192" y="1006"/>
      <point x="1297" y="885"/>
      <point x="1297" y="697" type="curve" smooth="yes"/>
      <point x="1297" y="681" type="line"/>
      <point x="1285" y="680" type="line"/>
      <point x="1295" y="611" type="line"/>
      <point x="1295" y="528" type="line"/>
      <point x="1295" y="407"/>
      <point x="1238" y="342"/>
      <point x="1131" y="342" type="curve" smooth="yes"/>
      <point x="1033" y="342"/>
      <point x="977" y="400"/>
      <point x="977" y="501" type="curve" smooth="yes"/>
      <point x="977" y="531" type="line" smooth="yes"/>
      <point x="977" y="635"/>
      <point x="1030" y="691"/>
      <point x="1126" y="691" type="curve" smooth="yes"/>
      <point x="1207" y="691"/>
      <point x="1268" y="654"/>
      <point x="1299" y="578" type="curve"/>
      <point x="1297" y="670" type="line"/>
      <point x="1271" y="768"/>
      <point x="1196" y="833"/>
      <point x="1066" y="833" type="curve" smooth="yes"/>
      <point x="898" y="833"/>
      <point x="801" y="728"/>
      <point x="801" y="535" type="curve" smooth="yes"/>
      <point x="801" y="501" type="line" smooth="yes"/>
      <point x="801" y="304"/>
      <point x="915" y="185"/>
    </contour>
  </outline>
</glyph>
<glyph name="matraVocalicR.te" format="2">
  <advance width="384"/>
  <unicode hex="0C43"/>
  <outline>
    <contour>
      <point x="-2" y="-687" type="curve" smooth="yes"/>
      <point x="254" y="-687"/>
      <point x="382" y="-536"/>
      <point x="382" y="-259" type="curve" smooth="yes"/>
      <point x="382" y="42" type="line" smooth="yes"/>
      <point x="382" y="384"/>
      <point x="248" y="552"/>
      <point x="37" y="558" type="curve"/>
      <point x="14" y="418" type="line"/>
      <point x="149" y="413"/>
      <point x="230" y="295"/>
      <point x="230" y="39" type="curve" smooth="yes"/>
      <point x="230" y="-256" type="line" smooth="yes"/>
      <point x="230" y="-450"/>
      <point x="161" y="-557"/>
      <point x="-9" y="-557" type="curve" smooth="yes"/>
      <point x="-145" y="-557"/>
      <point x="-225" y="-494"/>
      <point x="-225" y="-408" type="curve" smooth="yes"/>
      <point x="-225" y="-406" type="line"/>
      <point x="-217" y="-406" type="line"/>
      <point x="-223" y="-336" type="line"/>
      <point x="-223" y="-328" type="line" smooth="yes"/>
      <point x="-223" y="-266"/>
      <point x="-190" y="-235"/>
      <point x="-134" y="-235" type="curve" smooth="yes"/>
      <point x="-85" y="-235"/>
      <point x="-58" y="-261"/>
      <point x="-58" y="-302" type="curve" smooth="yes"/>
      <point x="-58" y="-305" type="line" smooth="yes"/>
      <point x="-58" y="-350"/>
      <point x="-82" y="-378"/>
      <point x="-130" y="-378" type="curve" smooth="yes"/>
      <point x="-172" y="-378"/>
      <point x="-206" y="-360"/>
      <point x="-229" y="-319" type="curve"/>
      <point x="-222" y="-404" type="line"/>
      <point x="-201" y="-453"/>
      <point x="-154" y="-483"/>
      <point x="-81" y="-483" type="curve" smooth="yes"/>
      <point x="21" y="-483"/>
      <point x="78" y="-417"/>
      <point x="78" y="-305" type="curve" smooth="yes"/>
      <point x="78" y="-302" type="line" smooth="yes"/>
      <point x="78" y="-188"/>
      <point x="6" y="-115"/>
      <point x="-130" y="-115" type="curve" smooth="yes"/>
      <point x="-282" y="-115"/>
      <point x="-363" y="-204"/>
      <point x="-363" y="-356" type="curve" smooth="yes"/>
      <point x="-363" y="-375" type="line" smooth="yes"/>
      <point x="-363" y="-567"/>
      <point x="-230" y="-687"/>
    </contour>
  </outline>
</glyph>
<glyph name="matraVocalicRr.te" format="2">
  <advance width="936"/>
  <unicode hex="0C44"/>
  <outline>
    <contour>
      <point x="-2" y="-687" type="curve" smooth="yes"/>
      <point x="254" y="-687"/>
      <point x="382" y="-536"/>
      <point x="382" y="-259" type="curve" smooth="yes"/>
      <point x="382" y="42" type="line" smooth="yes"/>
      <point x="382" y="329"/>
      <point x="277" y="486"/>
      <point x="59" y="512" type="curve"/>
      <point x="37" y="556" type="line"/>
      <point x="14" y="418" type="line"/>
      <point x="149" y="413"/>
      <point x="230" y="295"/>
      <point x="230" y="39" type="curve" smooth="yes"/>
      <point x="230" y="-256" type="line" smooth="yes"/>
      <point x="230" y="-450"/>
      <point x="161" y="-557"/>
      <point x="-9" y="-557" type="curve" smooth="yes"/>
      <point x="-145" y="-557"/>
      <point x="-225" y="-494"/>
      <point x="-225" y="-408" type="curve" smooth="yes"/>
      <point x="-225" y="-406" type="line"/>
      <point x="-217" y="-406" type="line"/>
      <point x="-223" y="-336" type="line"/>
      <point x="-223" y="-328" type="line" smooth="yes"/>
      <point x="-223" y="-266"/>
      <point x="-190" y="-235"/>
      <point x="-134" y="-235" type="curve" smooth="yes"/>
      <point x="-85" y="-235"/>
      <point x="-58" y="-261"/>
      <point x="-58" y="-302" type="curve" smooth="yes"/>
      <point x="-58" y="-305" type="line" smooth="yes"/>
      <point x="-58" y="-350"/>
      <point x="-82" y="-378"/>
      <point x="-130" y="-378" type="curve" smooth="yes"/>
      <point x="-172" y="-378"/>
      <point x="-206" y="-360"/>
      <point x="-229" y="-319" type="curve"/>
      <point x="-222" y="-404" type="line"/>
      <point x="-201" y="-453"/>
      <point x="-154" y="-483"/>
      <point x="-81" y="-483" type="curve" smooth="yes"/>
      <point x="21" y="-483"/>
      <point x="78" y="-417"/>
      <point x="78" y="-305" type="curve" smooth="yes"/>
      <point x="78" y="-302" type="line" smooth="yes"/>
      <point x="78" y="-188"/>
      <point x="6" y="-115"/>
      <point x="-130" y="-115" type="curve" smooth="yes"/>
      <point x="-282" y="-115"/>
      <point x="-363" y="-204"/>
      <point x="-363" y="-356" type="curve" smooth="yes"/>
      <point x="-363" y="-375" type="line" smooth="yes"/>
      <point x="-363" y="-567"/>
      <point x="-230" y="-687"/>
    </contour>
    <contour>
      <point x="681" y="-51" type="curve" smooth="yes"/>
      <point x="824" y="-51"/>
      <point x="898" y="41"/>
      <point x="898" y="186" type="curve" smooth="yes"/>
      <point x="898" y="253" type="line" smooth="yes"/>
      <point x="898" y="452"/>
      <point x="782" y="556"/>
      <point x="561" y="556" type="curve" smooth="yes"/>
      <point x="37" y="556" type="line"/>
      <point x="38" y="446" type="line"/>
      <point x="361" y="431" type="line"/>
      <point x="561" y="431" type="line" smooth="yes"/>
      <point x="704" y="431"/>
      <point x="764" y="373"/>
      <point x="764" y="263" type="curve" smooth="yes"/>
      <point x="764" y="261" type="line"/>
      <point x="755" y="261" type="line"/>
      <point x="762" y="204" type="line"/>
      <point x="762" y="168" type="line" smooth="yes"/>
      <point x="762" y="106"/>
      <point x="735" y="69"/>
      <point x="681" y="69" type="curve" smooth="yes"/>
      <point x="630" y="69"/>
      <point x="603" y="100"/>
      <point x="603" y="149" type="curve" smooth="yes"/>
      <point x="603" y="154" type="line" smooth="yes"/>
      <point x="603" y="206"/>
      <point x="631" y="233"/>
      <point x="677" y="233" type="curve" smooth="yes"/>
      <point x="717" y="233"/>
      <point x="747" y="216"/>
      <point x="767" y="183" type="curve"/>
      <point x="761" y="259" type="line"/>
      <point x="747" y="307"/>
      <point x="704" y="341"/>
      <point x="629" y="341" type="curve" smooth="yes"/>
      <point x="528" y="341"/>
      <point x="467" y="272"/>
      <point x="467" y="158" type="curve" smooth="yes"/>
      <point x="467" y="150" type="line" smooth="yes"/>
      <point x="467" y="30"/>
      <point x="543" y="-51"/>
    </contour>
  </outline>
</glyph>
<glyph name="matraE.te" format="2">
  <advance width="11"/>
  <unicode hex="0C46"/>
  <outline>
    <contour>
      <point x="-299" y="1538" type="curve" smooth="yes"/>
      <point x="-795" y="1538" type="line"/>
      <point x="-817" y="1382" type="line"/>
      <point x="-309" y="1382" type="line" smooth="yes"/>
      <point x="-216" y="1382"/>
      <point x="-169" y="1348"/>
      <point x="-169" y="1273" type="curve" smooth="yes"/>
      <point x="-169" y="1198"/>
      <point x="-216" y="1163"/>
      <point x="-309" y="1163" type="curve" smooth="yes"/>
      <point x="-550" y="1163" type="line"/>
      <point x="-550" y="1013" type="line"/>
      <point x="-298" y="1013" type="line" smooth="yes"/>
      <point x="-96" y="1013"/>
      <point x="6" y="1101"/>
      <point x="6" y="1274" type="curve" smooth="yes"/>
      <point x="6" y="1449"/>
      <point x="-96" y="1538"/>
    </contour>
  </outline>
</glyph>
<glyph name="matraO.te" format="2">
  <advance width="940"/>
  <unicode hex="0C4A"/>
  <outline>
    <contour>
      <point x="519" y="436" type="curve" smooth="yes"/>
      <point x="745" y="436"/>
      <point x="863" y="566"/>
      <point x="863" y="819" type="curve" smooth="yes"/>
      <point x="863" y="1010" type="line" smooth="yes"/>
      <point x="863" y="1289"/>
      <point x="726" y="1472"/>
      <point x="424" y="1472" type="curve" smooth="yes"/>
      <point x="240" y="1472"/>
      <point x="120" y="1397"/>
      <point x="89" y="1278" type="curve"/>
      <point x="84" y="1278" type="line"/>
      <point x="55" y="1462"/>
      <point x="-117" y="1553"/>
      <point x="-392" y="1553" type="curve" smooth="yes"/>
      <point x="-474" y="1553" type="line" smooth="yes"/>
      <point x="-751" y="1553"/>
      <point x="-887" y="1468"/>
      <point x="-887" y="1298" type="curve" smooth="yes"/>
      <point x="-887" y="1154"/>
      <point x="-774" y="1081"/>
      <point x="-577" y="1081" type="curve" smooth="yes"/>
      <point x="-450" y="1081" type="line"/>
      <point x="-439" y="1163" type="line"/>
      <point x="-545" y="1163" type="line" smooth="yes"/>
      <point x="-648" y="1163"/>
      <point x="-706" y="1198"/>
      <point x="-706" y="1269" type="curve" smooth="yes"/>
      <point x="-706" y="1359"/>
      <point x="-622" y="1395"/>
      <point x="-465" y="1395" type="curve" smooth="yes"/>
      <point x="-382" y="1395" type="line" smooth="yes"/>
      <point x="-151" y="1395"/>
      <point x="-19" y="1321"/>
      <point x="-11" y="1149" type="curve" smooth="yes"/>
      <point x="-9" y="1108" type="line"/>
      <point x="164" y="1108" type="line"/>
      <point x="166" y="1135" type="line" smooth="yes"/>
      <point x="175" y="1244"/>
      <point x="258" y="1312"/>
      <point x="408" y="1312" type="curve" smooth="yes"/>
      <point x="600" y="1312"/>
      <point x="685" y="1201"/>
      <point x="685" y="1014" type="curve" smooth="yes"/>
      <point x="685" y="948" type="line"/>
      <point x="674" y="946" type="line"/>
      <point x="683" y="880" type="line"/>
      <point x="683" y="782" type="line"/>
      <point x="683" y="655"/>
      <point x="628" y="593"/>
      <point x="521" y="593" type="curve" smooth="yes"/>
      <point x="423" y="593"/>
      <point x="368" y="648"/>
      <point x="368" y="750" type="curve" smooth="yes"/>
      <point x="368" y="789" type="line" smooth="yes"/>
      <point x="368" y="894"/>
      <point x="420" y="949"/>
      <point x="517" y="949" type="curve" smooth="yes"/>
      <point x="594" y="949"/>
      <point x="654" y="915"/>
      <point x="687" y="845" type="curve"/>
      <point x="685" y="936" type="line"/>
      <point x="658" y="1027"/>
      <point x="583" y="1089"/>
      <point x="455" y="1089" type="curve" smooth="yes"/>
      <point x="289" y="1089"/>
      <point x="192" y="987"/>
      <point x="192" y="794" type="curve" smooth="yes"/>
      <point x="192" y="749" type="line" smooth="yes"/>
      <point x="192" y="549"/>
      <point x="308" y="436"/>
    </contour>
  </outline>
</glyph>
<glyph name="matraAu.te" format="2">
  <advance width="997"/>
  <unicode hex="0C4C"/>
  <outline>
    <contour>
      <point x="591" y="565" type="curve" smooth="yes"/>
      <point x="815" y="565"/>
      <point x="933" y="697"/>
      <point x="933" y="944" type="curve" smooth="yes"/>
      <point x="933" y="1048" type="line" smooth="yes"/>
      <point x="933" y="1353"/>
      <point x="764" y="1537"/>
      <point x="409" y="1537" type="curve" smooth="yes"/>
      <point x="-765" y="1537" type="line"/>
      <point x="-788" y="1383" type="line"/>
      <point x="-99" y="1383" type="line"/>
      <point x="-67" y="1391" type="line"/>
      <point x="109" y="1383" type="line"/>
      <point x="406" y="1383" type="line" smooth="yes"/>
      <point x="650" y="1383"/>
      <point x="756" y="1264"/>
      <point x="756" y="1078" type="curve" smooth="yes"/>
      <point x="756" y="1063" type="line"/>
      <point x="745" y="1062" type="line"/>
      <point x="753" y="992" type="line"/>
      <point x="753" y="909" type="line"/>
      <point x="753" y="785"/>
      <point x="698" y="723"/>
      <point x="593" y="723" type="curve" smooth="yes"/>
      <point x="493" y="723"/>
      <point x="438" y="780"/>
      <point x="438" y="879" type="curve" smooth="yes"/>
      <point x="438" y="912" type="line" smooth="yes"/>
      <point x="438" y="1015"/>
      <point x="490" y="1070"/>
      <point x="587" y="1070" type="curve" smooth="yes"/>
      <point x="666" y="1070"/>
      <point x="725" y="1035"/>
      <point x="758" y="964" type="curve"/>
      <point x="755" y="1057" type="line"/>
      <point x="728" y="1147"/>
      <point x="655" y="1211"/>
      <point x="526" y="1211" type="curve" smooth="yes"/>
      <point x="358" y="1211"/>
      <point x="262" y="1108"/>
      <point x="262" y="917" type="curve" smooth="yes"/>
      <point x="262" y="879" type="line" smooth="yes"/>
      <point x="262" y="682"/>
      <point x="376" y="565"/>
    </contour>
    <contour>
      <point x="-446" y="1071" type="line"/>
      <point x="-234" y="1071" type="line" smooth="yes"/>
      <point x="-42" y="1071"/>
      <point x="61" y="1134"/>
      <point x="61" y="1267" type="curve" smooth="yes"/>
      <point x="61" y="1401"/>
      <point x="-42" y="1468"/>
      <point x="-237" y="1468" type="curve" smooth="yes"/>
      <point x="-405" y="1468" type="line"/>
      <point x="-437" y="1383" type="line"/>
      <point x="-250" y="1383" type="line" smooth="yes"/>
      <point x="-159" y="1383"/>
      <point x="-110" y="1350"/>
      <point x="-110" y="1273" type="curve" smooth="yes"/>
      <point x="-110" y="1199"/>
      <point x="-157" y="1163"/>
      <point x="-250" y="1163" type="curve" smooth="yes"/>
      <point x="-446" y="1163" type="line"/>
    </contour>
  </outline>
</glyph>
<glyph name="Halant.te" format="2">
  <advance width="11"/>
  <unicode hex="0C4D"/>
  <outline>
    <contour>
      <point x="-528" y="1015" type="curve" smooth="yes"/>
      <point x="-317" y="1015" type="line"/>
      <point x="-317" y="1163" type="line"/>
      <point x="-521" y="1163" type="line" smooth="yes"/>
      <point x="-603" y="1163"/>
      <point x="-645" y="1187"/>
      <point x="-645" y="1247" type="curve" smooth="yes"/>
      <point x="-645" y="1306"/>
      <point x="-607" y="1334"/>
      <point x="-522" y="1334" type="curve" smooth="yes"/>
      <point x="-125" y="1334" type="line"/>
      <point x="-125" y="1481" type="line"/>
      <point x="-537" y="1481" type="line" smooth="yes"/>
      <point x="-622" y="1481"/>
      <point x="-669" y="1508"/>
      <point x="-669" y="1571" type="curve" smooth="yes"/>
      <point x="-669" y="1634"/>
      <point x="-625" y="1660"/>
      <point x="-537" y="1660" type="curve" smooth="yes"/>
      <point x="90" y="1660" type="line"/>
      <point x="66" y="1813" type="line"/>
      <point x="-545" y="1813" type="line" smooth="yes"/>
      <point x="-743" y="1813"/>
      <point x="-851" y="1743"/>
      <point x="-851" y="1595" type="curve" smooth="yes"/>
      <point x="-851" y="1487"/>
      <point x="-787" y="1425"/>
      <point x="-672" y="1409" type="curve"/>
      <point x="-672" y="1404" type="line"/>
      <point x="-771" y="1383"/>
      <point x="-827" y="1325"/>
      <point x="-827" y="1226" type="curve" smooth="yes"/>
      <point x="-827" y="1085"/>
      <point x="-729" y="1015"/>
    </contour>
  </outline>
</glyph>
<glyph name="Lengthmark.te" format="2">
  <advance width="11"/>
  <unicode hex="0C55"/>
  <outline>
    <contour>
      <point x="781" y="1890" type="curve"/>
      <point x="761" y="2050" type="line"/>
      <point x="706" y="2078"/>
      <point x="630" y="2101"/>
      <point x="538" y="2101" type="curve" smooth="yes"/>
      <point x="370" y="2101"/>
      <point x="274" y="2028"/>
      <point x="274" y="1904" type="curve" smooth="yes"/>
      <point x="274" y="1799"/>
      <point x="347" y="1733"/>
      <point x="492" y="1713" type="curve"/>
      <point x="552" y="1753" type="line"/>
      <point x="469" y="1769"/>
      <point x="435" y="1801"/>
      <point x="435" y="1854" type="curve" smooth="yes"/>
      <point x="435" y="1911"/>
      <point x="482" y="1944"/>
      <point x="581" y="1944" type="curve" smooth="yes"/>
      <point x="658" y="1944"/>
      <point x="727" y="1920"/>
    </contour>
  </outline>
</glyph>
<glyph name="matraAiLengthmark.te" format="2">
  <advance width="3"/>
  <unicode hex="0C56"/>
  <anchor x="-79" y="-36" name="_bottom"/>
  <outline>
    <contour>
      <point x="-425" y="-605" type="curve" smooth="yes"/>
      <point x="415" y="-605" type="line"/>
      <point x="440" y="-459" type="line"/>
      <point x="-248" y="-459" type="line"/>
      <point x="-248" y="-454" type="line"/>
      <point x="-188" y="-429"/>
      <point x="-166" y="-375"/>
      <point x="-166" y="-311" type="curve" smooth="yes"/>
      <point x="-166" y="-308" type="line" smooth="yes"/>
      <point x="-166" y="-183"/>
      <point x="-262" y="-110"/>
      <point x="-430" y="-110" type="curve" smooth="yes"/>
      <point x="-599" y="-110"/>
      <point x="-692" y="-197"/>
      <point x="-692" y="-356" type="curve" smooth="yes"/>
      <point x="-692" y="-361" type="line" smooth="yes"/>
      <point x="-692" y="-517"/>
      <point x="-597" y="-605"/>
    </contour>
    <contour>
      <point x="-430" y="-459" type="curve" smooth="yes"/>
      <point x="-496" y="-459"/>
      <point x="-526" y="-423"/>
      <point x="-526" y="-356" type="curve" smooth="yes"/>
      <point x="-526" y="-352" type="line" smooth="yes"/>
      <point x="-526" y="-287"/>
      <point x="-495" y="-249"/>
      <point x="-430" y="-249" type="curve" smooth="yes"/>
      <point x="-364" y="-249"/>
      <point x="-332" y="-287"/>
      <point x="-332" y="-352" type="curve" smooth="yes"/>
      <point x="-332" y="-356" type="line" smooth="yes"/>
      <point x="-332" y="-423"/>
      <point x="-364" y="-459"/>
    </contour>
  </outline>
</glyph>
<glyph name="Tsa.te" format="2">
  <advance width="1552"/>
  <unicode hex="0C58"/>
  <anchor x="790" y="-61" name="bottom"/>
  <outline>
    <contour>
      <point x="95" y="1499" type="line"/>
      <point x="775" y="1499" type="line" smooth="yes"/>
      <point x="945" y="1499"/>
      <point x="1038" y="1586"/>
      <point x="1038" y="1738" type="curve" smooth="yes"/>
      <point x="1038" y="1745" type="line" smooth="yes"/>
      <point x="1038" y="1900"/>
      <point x="946" y="1986"/>
      <point x="779" y="1986" type="curve" smooth="yes"/>
      <point x="614" y="1986"/>
      <point x="521" y="1913"/>
      <point x="521" y="1789" type="curve" smooth="yes"/>
      <point x="521" y="1785" type="line" smooth="yes"/>
      <point x="521" y="1722"/>
      <point x="542" y="1667"/>
      <point x="602" y="1642" type="curve"/>
      <point x="602" y="1637" type="line"/>
      <point x="63" y="1638" type="line"/>
    </contour>
    <contour>
      <point x="779" y="1637" type="curve"/>
      <point x="711" y="1637"/>
      <point x="678" y="1674"/>
      <point x="678" y="1742" type="curve" smooth="yes"/>
      <point x="678" y="1749" type="line" smooth="yes"/>
      <point x="678" y="1815"/>
      <point x="711" y="1854"/>
      <point x="779" y="1854" type="curve" smooth="yes"/>
      <point x="846" y="1854"/>
      <point x="879" y="1815"/>
      <point x="879" y="1749" type="curve" smooth="yes"/>
      <point x="879" y="1742" type="line" smooth="yes"/>
      <point x="879" y="1674"/>
      <point x="847" y="1637"/>
    </contour>
    <component base="Ca.te" xOffset="1"/>
  </outline>
</glyph>
<glyph name="Dza.te" format="2">
  <advance width="1514"/>
  <unicode hex="0C59"/>
  <anchor x="765" y="-61" name="bottom"/>
  <outline>
    <contour>
      <point x="164" y="1302" type="line"/>
      <point x="1119" y="1302" type="line" smooth="yes"/>
      <point x="1289" y="1302"/>
      <point x="1382" y="1389"/>
      <point x="1382" y="1541" type="curve" smooth="yes"/>
      <point x="1382" y="1548" type="line" smooth="yes"/>
      <point x="1382" y="1703"/>
      <point x="1290" y="1789"/>
      <point x="1123" y="1789" type="curve" smooth="yes"/>
      <point x="958" y="1789"/>
      <point x="865" y="1716"/>
      <point x="865" y="1592" type="curve" smooth="yes"/>
      <point x="865" y="1588" type="line" smooth="yes"/>
      <point x="865" y="1525"/>
      <point x="886" y="1470"/>
      <point x="946" y="1445" type="curve"/>
      <point x="946" y="1440" type="line"/>
      <point x="132" y="1441" type="line"/>
    </contour>
    <contour>
      <point x="1123" y="1440" type="curve"/>
      <point x="1055" y="1440"/>
      <point x="1022" y="1477"/>
      <point x="1022" y="1545" type="curve" smooth="yes"/>
      <point x="1022" y="1552" type="line" smooth="yes"/>
      <point x="1022" y="1618"/>
      <point x="1055" y="1657"/>
      <point x="1123" y="1657" type="curve" smooth="yes"/>
      <point x="1190" y="1657"/>
      <point x="1223" y="1618"/>
      <point x="1223" y="1552" type="curve" smooth="yes"/>
      <point x="1223" y="1545" type="line" smooth="yes"/>
      <point x="1223" y="1477"/>
      <point x="1191" y="1440"/>
    </contour>
    <component base="Ja.te"/>
  </outline>
</glyph>
<glyph name="Rrr.te" format="2">
  <advance width="1541"/>
  <unicode hex="0C5A"/>
  <outline>
    <contour>
      <point x="252" y="566" type="line"/>
      <point x="1285" y="566" type="line"/>
      <point x="1285" y="721" type="line"/>
      <point x="252" y="721" type="line"/>
    </contour>
    <contour>
      <point x="465" y="-26" type="curve" smooth="yes"/>
      <point x="654" y="-26"/>
      <point x="751" y="66"/>
      <point x="767" y="211" type="curve"/>
      <point x="773" y="211" type="line"/>
      <point x="789" y="66"/>
      <point x="887" y="-26"/>
      <point x="1076" y="-26" type="curve" smooth="yes"/>
      <point x="1306" y="-26"/>
      <point x="1429" y="117"/>
      <point x="1429" y="397" type="curve" smooth="yes"/>
      <point x="1429" y="540" type="line" smooth="yes"/>
      <point x="1429" y="966"/>
      <point x="1202" y="1176"/>
      <point x="769" y="1176" type="curve" smooth="yes"/>
      <point x="336" y="1176"/>
      <point x="112" y="966"/>
      <point x="112" y="540" type="curve" smooth="yes"/>
      <point x="112" y="397" type="line" smooth="yes"/>
      <point x="112" y="117"/>
      <point x="235" y="-26"/>
    </contour>
    <contour>
      <point x="495" y="152" type="curve" smooth="yes"/>
      <point x="364" y="152"/>
      <point x="300" y="234"/>
      <point x="300" y="406" type="curve" smooth="yes"/>
      <point x="300" y="536" type="line" smooth="yes"/>
      <point x="300" y="853"/>
      <point x="453" y="1007"/>
      <point x="769" y="1007" type="curve" smooth="yes"/>
      <point x="1085" y="1007"/>
      <point x="1241" y="853"/>
      <point x="1241" y="536" type="curve" smooth="yes"/>
      <point x="1241" y="406" type="line" smooth="yes"/>
      <point x="1241" y="234"/>
      <point x="1176" y="152"/>
      <point x="1045" y="152" type="curve" smooth="yes"/>
      <point x="932" y="152"/>
      <point x="873" y="225"/>
      <point x="865" y="366" type="curve" smooth="yes"/>
      <point x="859" y="472" type="line"/>
      <point x="681" y="472" type="line"/>
      <point x="675" y="366" type="line" smooth="yes"/>
      <point x="667" y="225"/>
      <point x="608" y="152"/>
    </contour>
  </outline>
</glyph>
<glyph name="vowelVocalicRr.te" format="2">
  <advance width="3711"/>
  <unicode hex="0C60"/>
  <anchor x="763" y="0" name="_bottom"/>
  <outline>
    <contour>
      <point x="439" y="-27" type="curve" smooth="yes"/>
      <point x="638" y="-27"/>
      <point x="742" y="73"/>
      <point x="761" y="209" type="curve"/>
      <point x="767" y="209" type="line"/>
      <point x="786" y="73"/>
      <point x="886" y="-27"/>
      <point x="1082" y="-27" type="curve" smooth="yes"/>
      <point x="1263" y="-27"/>
      <point x="1374" y="82"/>
      <point x="1396" y="267" type="curve"/>
      <point x="1418" y="307"/>
      <point x="1431" y="353"/>
      <point x="1431" y="404" type="curve" smooth="yes"/>
      <point x="1431" y="589" type="line"/>
      <point x="1241" y="589" type="line"/>
      <point x="1241" y="407" type="line" smooth="yes"/>
      <point x="1241" y="238"/>
      <point x="1177" y="152"/>
      <point x="1046" y="152" type="curve" smooth="yes"/>
      <point x="923" y="152"/>
      <point x="867" y="227"/>
      <point x="859" y="370" type="curve" smooth="yes"/>
      <point x="854" y="458" type="line"/>
      <point x="674" y="458" type="line"/>
      <point x="669" y="370" type="line" smooth="yes"/>
      <point x="661" y="227"/>
      <point x="597" y="149"/>
      <point x="467" y="149" type="curve" smooth="yes"/>
      <point x="348" y="149"/>
      <point x="289" y="213"/>
      <point x="289" y="307" type="curve" smooth="yes"/>
      <point x="289" y="309" type="line" smooth="yes"/>
      <point x="289" y="407"/>
      <point x="328" y="461"/>
      <point x="512" y="548" type="curve" smooth="yes"/>
      <point x="707" y="640"/>
      <point x="783" y="725"/>
      <point x="783" y="885" type="curve" smooth="yes"/>
      <point x="783" y="888" type="line" smooth="yes"/>
      <point x="783" y="1076"/>
      <point x="666" y="1179"/>
      <point x="446" y="1179" type="curve" smooth="yes"/>
      <point x="225" y="1179"/>
      <point x="110" y="1077"/>
      <point x="110" y="883" type="curve" smooth="yes"/>
      <point x="110" y="879" type="line" smooth="yes"/>
      <point x="110" y="815"/>
      <point x="125" y="749"/>
      <point x="148" y="691" type="curve"/>
      <point x="314" y="691" type="line"/>
      <point x="291" y="749"/>
      <point x="280" y="804"/>
      <point x="280" y="863" type="curve" smooth="yes"/>
      <point x="280" y="867" type="line" smooth="yes"/>
      <point x="280" y="974"/>
      <point x="336" y="1027"/>
      <point x="447" y="1027" type="curve" smooth="yes"/>
      <point x="554" y="1027"/>
      <point x="609" y="976"/>
      <point x="609" y="885" type="curve" smooth="yes"/>
      <point x="609" y="882" type="line" smooth="yes"/>
      <point x="609" y="782"/>
      <point x="564" y="742"/>
      <point x="395" y="662" type="curve" smooth="yes"/>
      <point x="169" y="555"/>
      <point x="98" y="463"/>
      <point x="98" y="292" type="curve" smooth="yes"/>
      <point x="98" y="288" type="line" smooth="yes"/>
      <point x="98" y="103"/>
      <point x="218" y="-27"/>
    </contour>
    <contour>
      <point x="1431" y="385" type="curve" smooth="yes"/>
      <point x="1431" y="445" type="line"/>
      <point x="1358" y="445" type="line"/>
      <point x="1358" y="295" type="line" smooth="yes"/>
      <point x="1358" y="91"/>
      <point x="1484" y="-26"/>
      <point x="1702" y="-26" type="curve" smooth="yes"/>
      <point x="1911" y="-26"/>
      <point x="2027" y="91"/>
      <point x="2053" y="276" type="curve"/>
      <point x="2073" y="310"/>
      <point x="2088" y="362"/>
      <point x="2088" y="416" type="curve" smooth="yes"/>
      <point x="2088" y="583" type="line"/>
      <point x="1898" y="583" type="line"/>
      <point x="1898" y="426" type="line" smooth="yes"/>
      <point x="1898" y="243"/>
      <point x="1819" y="149"/>
      <point x="1663" y="149" type="curve" smooth="yes"/>
      <point x="1514" y="149"/>
      <point x="1431" y="231"/>
    </contour>
    <contour>
      <point x="2359" y="-26" type="curve" smooth="yes"/>
      <point x="2614" y="-26"/>
      <point x="2746" y="126"/>
      <point x="2746" y="416" type="curve" smooth="yes"/>
      <point x="2746" y="546" type="line"/>
      <point x="2556" y="555" type="line"/>
      <point x="2556" y="425" type="line" smooth="yes"/>
      <point x="2556" y="243"/>
      <point x="2478" y="149"/>
      <point x="2322" y="149" type="curve" smooth="yes"/>
      <point x="2173" y="149"/>
      <point x="2088" y="231"/>
      <point x="2088" y="385" type="curve"/>
      <point x="2088" y="427" type="line"/>
      <point x="2019" y="427" type="line"/>
      <point x="2019" y="283" type="line"/>
      <point x="2019" y="93"/>
      <point x="2141" y="-26"/>
    </contour>
    <contour>
      <point x="2556" y="527" type="line"/>
      <point x="2746" y="517" type="line"/>
      <point x="2746" y="640" type="line" smooth="yes"/>
      <point x="2746" y="915"/>
      <point x="2611" y="1080"/>
      <point x="2316" y="1094" type="curve"/>
      <point x="2285" y="1163" type="line"/>
      <point x="2260" y="995" type="line"/>
      <point x="2269" y="995" type="line"/>
      <point x="2467" y="995"/>
      <point x="2556" y="875"/>
      <point x="2556" y="661" type="curve" smooth="yes"/>
    </contour>
    <contour>
      <point x="3256" y="172" type="curve" smooth="yes"/>
      <point x="3480" y="172"/>
      <point x="3599" y="311"/>
      <point x="3599" y="544" type="curve" smooth="yes"/>
      <point x="3599" y="665" type="line" smooth="yes"/>
      <point x="3599" y="975"/>
      <point x="3432" y="1163"/>
      <point x="3081" y="1163" type="curve" smooth="yes"/>
      <point x="2285" y="1163" type="line"/>
      <point x="2297" y="1029" type="line"/>
      <point x="2685" y="1008" type="line"/>
      <point x="3077" y="1008" type="line" smooth="yes"/>
      <point x="3318" y="1008"/>
      <point x="3423" y="887"/>
      <point x="3423" y="696" type="curve" smooth="yes"/>
      <point x="3423" y="694" type="line"/>
      <point x="3411" y="694" type="line"/>
      <point x="3420" y="600" type="line"/>
      <point x="3420" y="527" type="line" smooth="yes"/>
      <point x="3420" y="406"/>
      <point x="3364" y="342"/>
      <point x="3257" y="342" type="curve" smooth="yes"/>
      <point x="3159" y="342"/>
      <point x="3104" y="400"/>
      <point x="3104" y="500" type="curve" smooth="yes"/>
      <point x="3104" y="531" type="line" smooth="yes"/>
      <point x="3104" y="635"/>
      <point x="3156" y="690"/>
      <point x="3252" y="690" type="curve" smooth="yes"/>
      <point x="3333" y="690"/>
      <point x="3394" y="654"/>
      <point x="3425" y="578" type="curve"/>
      <point x="3418" y="692" type="line"/>
      <point x="3391" y="777"/>
      <point x="3327" y="838"/>
      <point x="3197" y="838" type="curve" smooth="yes"/>
      <point x="3028" y="838"/>
      <point x="2927" y="726"/>
      <point x="2927" y="535" type="curve" smooth="yes"/>
      <point x="2927" y="501" type="line" smooth="yes"/>
      <point x="2927" y="299"/>
      <point x="3041" y="172"/>
    </contour>
    <component base="Terminals.te" xOffset="1569"/>
    <component base="Terminals.te" xOffset="912"/>
  </outline>
</glyph>
<glyph name="vowelVocalicLl.te" format="2">
  <advance width="2786"/>
  <unicode hex="0C61"/>
  <outline>
    <contour>
      <point x="1209" y="-28" type="curve" smooth="yes"/>
      <point x="1615" y="-28"/>
      <point x="1825" y="174"/>
      <point x="1825" y="544" type="curve" smooth="yes"/>
      <point x="1825" y="677" type="line" smooth="yes"/>
      <point x="1825" y="932"/>
      <point x="1697" y="1074"/>
      <point x="1442" y="1086" type="curve"/>
      <point x="1408" y="1163" type="line"/>
      <point x="1377" y="997" type="line"/>
      <point x="1384" y="997" type="line" smooth="yes"/>
      <point x="1549" y="997"/>
      <point x="1635" y="882"/>
      <point x="1635" y="677" type="curve" smooth="yes"/>
      <point x="1635" y="546" type="line" smooth="yes"/>
      <point x="1635" y="280"/>
      <point x="1494" y="147"/>
      <point x="1208" y="147" type="curve" smooth="yes"/>
      <point x="982" y="147"/>
      <point x="867" y="210"/>
      <point x="867" y="323" type="curve" smooth="yes"/>
      <point x="867" y="325" type="line" smooth="yes"/>
      <point x="867" y="419"/>
      <point x="912" y="462"/>
      <point x="1096" y="537" type="curve" smooth="yes"/>
      <point x="1290" y="617"/>
      <point x="1348" y="713"/>
      <point x="1348" y="861" type="curve" smooth="yes"/>
      <point x="1348" y="868" type="line" smooth="yes"/>
      <point x="1348" y="1068"/>
      <point x="1233" y="1179"/>
      <point x="1011" y="1179" type="curve" smooth="yes"/>
      <point x="826" y="1179"/>
      <point x="737" y="1091"/>
      <point x="714" y="970" type="curve"/>
      <point x="708" y="970" type="line"/>
      <point x="686" y="1091"/>
      <point x="598" y="1179"/>
      <point x="417" y="1179" type="curve" smooth="yes"/>
      <point x="203" y="1179"/>
      <point x="87" y="1056"/>
      <point x="87" y="834" type="curve" smooth="yes"/>
      <point x="87" y="829" type="line" smooth="yes"/>
      <point x="87" y="779"/>
      <point x="93" y="724"/>
      <point x="108" y="674" type="curve"/>
      <point x="290" y="674" type="line"/>
      <point x="279" y="721"/>
      <point x="273" y="765"/>
      <point x="273" y="814" type="curve" smooth="yes"/>
      <point x="273" y="819" type="line" smooth="yes"/>
      <point x="273" y="946"/>
      <point x="327" y="1010"/>
      <point x="442" y="1010" type="curve" smooth="yes"/>
      <point x="564" y="1010"/>
      <point x="613" y="941"/>
      <point x="618" y="817" type="curve" smooth="yes"/>
      <point x="622" y="717" type="line"/>
      <point x="800" y="717" type="line"/>
      <point x="804" y="817" type="line" smooth="yes"/>
      <point x="809" y="941"/>
      <point x="869" y="1010"/>
      <point x="987" y="1010" type="curve" smooth="yes"/>
      <point x="1108" y="1010"/>
      <point x="1161" y="956"/>
      <point x="1161" y="855" type="curve" smooth="yes"/>
      <point x="1161" y="850" type="line" smooth="yes"/>
      <point x="1161" y="777"/>
      <point x="1135" y="719"/>
      <point x="977" y="655" type="curve" smooth="yes"/>
      <point x="760" y="567"/>
      <point x="675" y="475"/>
      <point x="675" y="317" type="curve" smooth="yes"/>
      <point x="675" y="312" type="line" smooth="yes"/>
      <point x="675" y="97"/>
      <point x="863" y="-28"/>
    </contour>
    <contour>
      <point x="2331" y="172" type="curve" smooth="yes"/>
      <point x="2555" y="172"/>
      <point x="2674" y="311"/>
      <point x="2674" y="544" type="curve" smooth="yes"/>
      <point x="2674" y="665" type="line" smooth="yes"/>
      <point x="2674" y="975"/>
      <point x="2507" y="1163"/>
      <point x="2156" y="1163" type="curve" smooth="yes"/>
      <point x="1408" y="1163" type="line"/>
      <point x="1420" y="1029" type="line"/>
      <point x="1767" y="1008" type="line"/>
      <point x="2152" y="1008" type="line" smooth="yes"/>
      <point x="2393" y="1008"/>
      <point x="2498" y="887"/>
      <point x="2498" y="696" type="curve" smooth="yes"/>
      <point x="2498" y="694" type="line"/>
      <point x="2486" y="694" type="line"/>
      <point x="2495" y="600" type="line"/>
      <point x="2495" y="527" type="line" smooth="yes"/>
      <point x="2495" y="406"/>
      <point x="2439" y="342"/>
      <point x="2332" y="342" type="curve" smooth="yes"/>
      <point x="2234" y="342"/>
      <point x="2179" y="400"/>
      <point x="2179" y="500" type="curve" smooth="yes"/>
      <point x="2179" y="531" type="line" smooth="yes"/>
      <point x="2179" y="635"/>
      <point x="2231" y="690"/>
      <point x="2327" y="690" type="curve" smooth="yes"/>
      <point x="2408" y="690"/>
      <point x="2469" y="654"/>
      <point x="2500" y="578" type="curve"/>
      <point x="2493" y="692" type="line"/>
      <point x="2466" y="777"/>
      <point x="2402" y="838"/>
      <point x="2272" y="838" type="curve" smooth="yes"/>
      <point x="2103" y="838"/>
      <point x="2002" y="726"/>
      <point x="2002" y="535" type="curve" smooth="yes"/>
      <point x="2002" y="501" type="line" smooth="yes"/>
      <point x="2002" y="299"/>
      <point x="2116" y="172"/>
    </contour>
  </outline>
</glyph>
<glyph name="VocalicLsmall1.te" format="2">
  <advance width="3"/>
  <unicode hex="0C62"/>
  <anchor x="-21" y="-27" name="_bottom"/>
  <outline>
    <contour>
      <point x="147" y="-742" type="curve" smooth="yes"/>
      <point x="393" y="-742"/>
      <point x="518" y="-634"/>
      <point x="518" y="-433" type="curve" smooth="yes"/>
      <point x="518" y="-380" type="line" smooth="yes"/>
      <point x="518" y="-202"/>
      <point x="430" y="-105"/>
      <point x="277" y="-105" type="curve" smooth="yes"/>
      <point x="270" y="-105" type="line"/>
      <point x="248" y="-231" type="line"/>
      <point x="253" y="-231" type="line" smooth="yes"/>
      <point x="333" y="-231"/>
      <point x="374" y="-284"/>
      <point x="374" y="-381" type="curve" smooth="yes"/>
      <point x="374" y="-430" type="line" smooth="yes"/>
      <point x="374" y="-554"/>
      <point x="302" y="-621"/>
      <point x="144" y="-621" type="curve" smooth="yes"/>
      <point x="27" y="-621"/>
      <point x="-30" y="-595"/>
      <point x="-31" y="-547" type="curve" smooth="yes"/>
      <point x="-31" y="-545" type="line" smooth="yes"/>
      <point x="-31" y="-512"/>
      <point x="-10" y="-490"/>
      <point x="89" y="-456" type="curve" smooth="yes"/>
      <point x="214" y="-413"/>
      <point x="241" y="-353"/>
      <point x="241" y="-283" type="curve" smooth="yes"/>
      <point x="241" y="-280" type="line" smooth="yes"/>
      <point x="241" y="-166"/>
      <point x="169" y="-103"/>
      <point x="32" y="-103" type="curve" smooth="yes"/>
      <point x="-86" y="-103"/>
      <point x="-143" y="-151"/>
      <point x="-157" y="-228" type="curve"/>
      <point x="-163" y="-228" type="line"/>
      <point x="-175" y="-148"/>
      <point x="-238" y="-103"/>
      <point x="-343" y="-103" type="curve" smooth="yes"/>
      <point x="-479" y="-103"/>
      <point x="-552" y="-170"/>
      <point x="-552" y="-296" type="curve" smooth="yes"/>
      <point x="-552" y="-301" type="line" smooth="yes"/>
      <point x="-552" y="-325"/>
      <point x="-550" y="-347"/>
      <point x="-543" y="-372" type="curve"/>
      <point x="-402" y="-372" type="line"/>
      <point x="-407" y="-352"/>
      <point x="-409" y="-334"/>
      <point x="-409" y="-317" type="curve" smooth="yes"/>
      <point x="-409" y="-313" type="line" smooth="yes"/>
      <point x="-409" y="-257"/>
      <point x="-380" y="-228"/>
      <point x="-320" y="-228" type="curve" smooth="yes"/>
      <point x="-265" y="-228"/>
      <point x="-235" y="-256"/>
      <point x="-230" y="-313" type="curve" smooth="yes"/>
      <point x="-227" y="-351" type="line"/>
      <point x="-92" y="-351" type="line"/>
      <point x="-89" y="-313" type="line" smooth="yes"/>
      <point x="-84" y="-256"/>
      <point x="-55" y="-228"/>
      <point x="10" y="-228" type="curve" smooth="yes"/>
      <point x="71" y="-228"/>
      <point x="98" y="-250"/>
      <point x="98" y="-289" type="curve" smooth="yes"/>
      <point x="98" y="-291" type="line" smooth="yes"/>
      <point x="98" y="-325"/>
      <point x="77" y="-348"/>
      <point x="-15" y="-380" type="curve" smooth="yes"/>
      <point x="-136" y="-422"/>
      <point x="-176" y="-470"/>
      <point x="-176" y="-550" type="curve" smooth="yes"/>
      <point x="-176" y="-553" type="line" smooth="yes"/>
      <point x="-176" y="-675"/>
      <point x="-65" y="-742"/>
    </contour>
  </outline>
</glyph>
<glyph name="VocalicLlsmall1.te" format="2">
  <advance width="3"/>
  <unicode hex="0C63"/>
  <anchor x="230" y="-27" name="_bottom"/>
  <outline>
    <contour>
      <point x="147" y="-742" type="curve" smooth="yes"/>
      <point x="393" y="-742"/>
      <point x="518" y="-631"/>
      <point x="518" y="-435" type="curve"/>
      <point x="518" y="-392" type="line"/>
      <point x="518" y="-247"/>
      <point x="435" y="-171"/>
      <point x="289" y="-171" type="curve"/>
      <point x="270" y="-105" type="line"/>
      <point x="248" y="-231" type="line"/>
      <point x="253" y="-231" type="line" smooth="yes"/>
      <point x="332" y="-231"/>
      <point x="374" y="-284"/>
      <point x="374" y="-381" type="curve"/>
      <point x="373" y="-430" type="line"/>
      <point x="373" y="-555"/>
      <point x="301" y="-621"/>
      <point x="144" y="-621" type="curve" smooth="yes"/>
      <point x="25" y="-621"/>
      <point x="-31" y="-595"/>
      <point x="-31" y="-547" type="curve" smooth="yes"/>
      <point x="-31" y="-545" type="line" smooth="yes"/>
      <point x="-31" y="-511"/>
      <point x="-10" y="-490"/>
      <point x="88" y="-456" type="curve" smooth="yes"/>
      <point x="210" y="-414"/>
      <point x="240" y="-358"/>
      <point x="240" y="-283" type="curve" smooth="yes"/>
      <point x="240" y="-280" type="line" smooth="yes"/>
      <point x="240" y="-165"/>
      <point x="167" y="-103"/>
      <point x="32" y="-103" type="curve" smooth="yes"/>
      <point x="-83" y="-103"/>
      <point x="-143" y="-148"/>
      <point x="-158" y="-228" type="curve"/>
      <point x="-163" y="-228" type="line"/>
      <point x="-176" y="-148"/>
      <point x="-237" y="-103"/>
      <point x="-343" y="-103" type="curve" smooth="yes"/>
      <point x="-480" y="-103"/>
      <point x="-552" y="-170"/>
      <point x="-552" y="-296" type="curve" smooth="yes"/>
      <point x="-552" y="-301" type="line" smooth="yes"/>
      <point x="-552" y="-323"/>
      <point x="-551" y="-347"/>
      <point x="-544" y="-372" type="curve"/>
      <point x="-402" y="-372" type="line"/>
      <point x="-407" y="-352"/>
      <point x="-409" y="-334"/>
      <point x="-409" y="-317" type="curve" smooth="yes"/>
      <point x="-409" y="-313" type="line" smooth="yes"/>
      <point x="-409" y="-257"/>
      <point x="-381" y="-228"/>
      <point x="-320" y="-228" type="curve" smooth="yes"/>
      <point x="-268" y="-228"/>
      <point x="-236" y="-253"/>
      <point x="-231" y="-313" type="curve" smooth="yes"/>
      <point x="-228" y="-351" type="line"/>
      <point x="-92" y="-351" type="line"/>
      <point x="-89" y="-313" type="line" smooth="yes"/>
      <point x="-85" y="-260"/>
      <point x="-59" y="-228"/>
      <point x="10" y="-228" type="curve" smooth="yes"/>
      <point x="71" y="-228"/>
      <point x="98" y="-250"/>
      <point x="98" y="-289" type="curve" smooth="yes"/>
      <point x="98" y="-291" type="line" smooth="yes"/>
      <point x="98" y="-325"/>
      <point x="80" y="-347"/>
      <point x="-16" y="-380" type="curve" smooth="yes"/>
      <point x="-136" y="-421"/>
      <point x="-176" y="-472"/>
      <point x="-176" y="-550" type="curve" smooth="yes"/>
      <point x="-176" y="-553" type="line" smooth="yes"/>
      <point x="-176" y="-675"/>
      <point x="-65" y="-742"/>
    </contour>
    <contour>
      <point x="797" y="-660" type="curve" smooth="yes"/>
      <point x="930" y="-660"/>
      <point x="1004" y="-577"/>
      <point x="1004" y="-441" type="curve"/>
      <point x="1004" y="-378" type="line"/>
      <point x="1004" y="-199"/>
      <point x="896" y="-105"/>
      <point x="698" y="-105" type="curve" smooth="yes"/>
      <point x="270" y="-105" type="line"/>
      <point x="271" y="-207" type="line"/>
      <point x="535" y="-223" type="line"/>
      <point x="696" y="-223" type="line" smooth="yes"/>
      <point x="821" y="-223"/>
      <point x="875" y="-274"/>
      <point x="875" y="-370" type="curve" smooth="yes"/>
      <point x="875" y="-375" type="line"/>
      <point x="869" y="-375" type="line"/>
      <point x="873" y="-421" type="line"/>
      <point x="873" y="-462" type="line"/>
      <point x="873" y="-517"/>
      <point x="848" y="-550"/>
      <point x="799" y="-550" type="curve" smooth="yes"/>
      <point x="753" y="-550"/>
      <point x="729" y="-523"/>
      <point x="729" y="-478" type="curve" smooth="yes"/>
      <point x="729" y="-470" type="line" smooth="yes"/>
      <point x="729" y="-421"/>
      <point x="754" y="-397"/>
      <point x="796" y="-397" type="curve" smooth="yes"/>
      <point x="834" y="-397"/>
      <point x="860" y="-414"/>
      <point x="878" y="-448" type="curve"/>
      <point x="876" y="-382" type="line"/>
      <point x="862" y="-337"/>
      <point x="824" y="-299"/>
      <point x="752" y="-299" type="curve" smooth="yes"/>
      <point x="654" y="-299"/>
      <point x="597" y="-358"/>
      <point x="597" y="-467" type="curve" smooth="yes"/>
      <point x="597" y="-480" type="line" smooth="yes"/>
      <point x="597" y="-593"/>
      <point x="668" y="-660"/>
    </contour>
  </outline>
</glyph>
<glyph name="zero.te" format="2">
  <advance width="1265"/>
  <unicode hex="0C66"/>
  <outline>
    <contour>
      <point x="633" y="-28" type="curve" smooth="yes"/>
      <point x="974" y="-28"/>
      <point x="1153" y="151"/>
      <point x="1153" y="500" type="curve" smooth="yes"/>
      <point x="1153" y="650" type="line" smooth="yes"/>
      <point x="1153" y="998"/>
      <point x="974" y="1178"/>
      <point x="633" y="1178" type="curve" smooth="yes"/>
      <point x="292" y="1178"/>
      <point x="112" y="998"/>
      <point x="112" y="650" type="curve" smooth="yes"/>
      <point x="112" y="500" type="line" smooth="yes"/>
      <point x="112" y="151"/>
      <point x="292" y="-28"/>
    </contour>
    <contour>
      <point x="633" y="146" type="curve" smooth="yes"/>
      <point x="413" y="146"/>
      <point x="302" y="263"/>
      <point x="302" y="500" type="curve" smooth="yes"/>
      <point x="302" y="650" type="line" smooth="yes"/>
      <point x="302" y="887"/>
      <point x="413" y="1004"/>
      <point x="633" y="1004" type="curve" smooth="yes"/>
      <point x="853" y="1004"/>
      <point x="963" y="887"/>
      <point x="963" y="650" type="curve" smooth="yes"/>
      <point x="963" y="500" type="line" smooth="yes"/>
      <point x="963" y="263"/>
      <point x="852" y="146"/>
    </contour>
  </outline>
</glyph>
<glyph name="one.te" format="2">
  <advance width="1222"/>
  <unicode hex="0C67"/>
  <outline>
    <contour>
      <point x="797" y="0" type="curve"/>
      <point x="999" y="0" type="line"/>
      <point x="1084" y="164"/>
      <point x="1110" y="317"/>
      <point x="1110" y="476" type="curve" smooth="yes"/>
      <point x="1110" y="653" type="line" smooth="yes"/>
      <point x="1110" y="997"/>
      <point x="942" y="1188"/>
      <point x="611" y="1188" type="curve" smooth="yes"/>
      <point x="280" y="1188"/>
      <point x="112" y="997"/>
      <point x="112" y="654" type="curve" smooth="yes"/>
      <point x="112" y="476" type="line" smooth="yes"/>
      <point x="112" y="317"/>
      <point x="139" y="164"/>
      <point x="222" y="0" type="curve"/>
      <point x="425" y="0" type="line"/>
      <point x="335" y="172"/>
      <point x="304" y="322"/>
      <point x="304" y="476" type="curve" smooth="yes"/>
      <point x="304" y="653" type="line" smooth="yes"/>
      <point x="304" y="896"/>
      <point x="415" y="1014"/>
      <point x="611" y="1014" type="curve" smooth="yes"/>
      <point x="807" y="1014"/>
      <point x="918" y="896"/>
      <point x="918" y="653" type="curve" smooth="yes"/>
      <point x="918" y="476" type="line" smooth="yes"/>
      <point x="918" y="324"/>
      <point x="888" y="173"/>
    </contour>
  </outline>
</glyph>
<glyph name="two.te" format="2">
  <advance width="1322"/>
  <unicode hex="0C68"/>
  <outline>
    <contour>
      <point x="50" y="1" type="line"/>
      <point x="583" y="1" type="line" smooth="yes"/>
      <point x="1004" y="1"/>
      <point x="1210" y="193"/>
      <point x="1210" y="552" type="curve" smooth="yes"/>
      <point x="1210" y="667" type="line" smooth="yes"/>
      <point x="1210" y="1001"/>
      <point x="1021" y="1179"/>
      <point x="657" y="1179" type="curve" smooth="yes"/>
      <point x="342" y="1179"/>
      <point x="198" y="1033"/>
      <point x="198" y="805" type="curve" smooth="yes"/>
      <point x="198" y="786" type="line" smooth="yes"/>
      <point x="198" y="592"/>
      <point x="310" y="462"/>
      <point x="542" y="462" type="curve" smooth="yes"/>
      <point x="775" y="462"/>
      <point x="866" y="589"/>
      <point x="866" y="755" type="curve" smooth="yes"/>
      <point x="866" y="776" type="line" smooth="yes"/>
      <point x="866" y="874"/>
      <point x="832" y="964"/>
      <point x="735" y="1019" type="curve"/>
      <point x="743" y="1079" type="line"/>
      <point x="574" y="1032" type="line"/>
      <point x="665" y="976"/>
      <point x="698" y="906"/>
      <point x="698" y="814" type="curve" smooth="yes"/>
      <point x="698" y="790" type="line" smooth="yes"/>
      <point x="698" y="681"/>
      <point x="648" y="622"/>
      <point x="542" y="622" type="curve" smooth="yes"/>
      <point x="435" y="622"/>
      <point x="380" y="679"/>
      <point x="380" y="789" type="curve" smooth="yes"/>
      <point x="380" y="809" type="line" smooth="yes"/>
      <point x="380" y="952"/>
      <point x="470" y="1029"/>
      <point x="639" y="1029" type="curve" smooth="yes"/>
      <point x="913" y="1029"/>
      <point x="1025" y="908"/>
      <point x="1025" y="671" type="curve" smooth="yes"/>
      <point x="1025" y="558" type="line" smooth="yes"/>
      <point x="1025" y="303"/>
      <point x="880" y="166"/>
      <point x="566" y="166" type="curve" smooth="yes"/>
      <point x="20" y="166" type="line"/>
    </contour>
  </outline>
</glyph>
<glyph name="three.te" format="2">
  <advance width="965"/>
  <unicode hex="0C69"/>
  <outline>
    <contour>
      <point x="451" y="-23" type="curve" smooth="yes"/>
      <point x="723" y="-23"/>
      <point x="870" y="95"/>
      <point x="870" y="297" type="curve" smooth="yes"/>
      <point x="870" y="320" type="line" smooth="yes"/>
      <point x="870" y="486"/>
      <point x="781" y="564"/>
      <point x="650" y="587" type="curve"/>
      <point x="650" y="592" type="line"/>
      <point x="777" y="614"/>
      <point x="863" y="691"/>
      <point x="863" y="851" type="curve" smooth="yes"/>
      <point x="863" y="872" type="line" smooth="yes"/>
      <point x="863" y="1071"/>
      <point x="718" y="1177"/>
      <point x="458" y="1177" type="curve" smooth="yes"/>
      <point x="321" y="1177"/>
      <point x="205" y="1150"/>
      <point x="110" y="1109" type="curve"/>
      <point x="92" y="937" type="line"/>
      <point x="181" y="980"/>
      <point x="294" y="1008"/>
      <point x="418" y="1008" type="curve" smooth="yes"/>
      <point x="597" y="1008"/>
      <point x="675" y="956"/>
      <point x="675" y="845" type="curve" smooth="yes"/>
      <point x="675" y="826" type="line" smooth="yes"/>
      <point x="675" y="727"/>
      <point x="602" y="675"/>
      <point x="452" y="670" type="curve" smooth="yes"/>
      <point x="279" y="664" type="line"/>
      <point x="279" y="515" type="line"/>
      <point x="452" y="509" type="line" smooth="yes"/>
      <point x="606" y="504"/>
      <point x="682" y="448"/>
      <point x="682" y="343" type="curve" smooth="yes"/>
      <point x="682" y="322" type="line" smooth="yes"/>
      <point x="682" y="209"/>
      <point x="604" y="149"/>
      <point x="418" y="149" type="curve" smooth="yes"/>
      <point x="284" y="149"/>
      <point x="171" y="178"/>
      <point x="75" y="231" type="curve"/>
      <point x="93" y="55" type="line"/>
      <point x="188" y="7"/>
      <point x="307" y="-23"/>
    </contour>
  </outline>
</glyph>
<glyph name="four.te" format="2">
  <advance width="1278"/>
  <unicode hex="0C6A"/>
  <outline>
    <contour>
      <point x="507" y="396" type="curve"/>
      <point x="639" y="417" type="line"/>
      <point x="766" y="396" type="line"/>
      <point x="1067" y="418"/>
      <point x="1193" y="571"/>
      <point x="1193" y="776" type="curve" smooth="yes"/>
      <point x="1193" y="818" type="line" smooth="yes"/>
      <point x="1193" y="1036"/>
      <point x="1063" y="1163"/>
      <point x="835" y="1163" type="curve" smooth="yes"/>
      <point x="821" y="1163" type="line"/>
      <point x="789" y="999" type="line"/>
      <point x="797" y="999" type="line" smooth="yes"/>
      <point x="930" y="999"/>
      <point x="1008" y="936"/>
      <point x="1008" y="804" type="curve" smooth="yes"/>
      <point x="1008" y="771" type="line" smooth="yes"/>
      <point x="1008" y="631"/>
      <point x="922" y="525"/>
      <point x="639" y="525" type="curve" smooth="yes"/>
      <point x="356" y="525"/>
      <point x="270" y="631"/>
      <point x="270" y="771" type="curve" smooth="yes"/>
      <point x="270" y="804" type="line" smooth="yes"/>
      <point x="270" y="936"/>
      <point x="347" y="999"/>
      <point x="480" y="999" type="curve" smooth="yes"/>
      <point x="488" y="999" type="line"/>
      <point x="456" y="1163" type="line"/>
      <point x="442" y="1163" type="line" smooth="yes"/>
      <point x="215" y="1163"/>
      <point x="85" y="1036"/>
      <point x="85" y="818" type="curve" smooth="yes"/>
      <point x="85" y="776" type="line" smooth="yes"/>
      <point x="85" y="572"/>
      <point x="210" y="418"/>
    </contour>
    <contour>
      <point x="639" y="-31" type="curve" smooth="yes"/>
      <point x="888" y="-31"/>
      <point x="987" y="85"/>
      <point x="987" y="227" type="curve" smooth="yes"/>
      <point x="987" y="236" type="line" smooth="yes"/>
      <point x="987" y="388"/>
      <point x="875" y="461"/>
      <point x="639" y="461" type="curve" smooth="yes"/>
      <point x="404" y="461"/>
      <point x="290" y="388"/>
      <point x="290" y="236" type="curve" smooth="yes"/>
      <point x="290" y="227" type="line" smooth="yes"/>
      <point x="290" y="85"/>
      <point x="390" y="-31"/>
    </contour>
    <contour>
      <point x="639" y="129" type="curve" smooth="yes"/>
      <point x="528" y="129"/>
      <point x="470" y="172"/>
      <point x="470" y="252" type="curve" smooth="yes"/>
      <point x="470" y="263" type="line" smooth="yes"/>
      <point x="470" y="342"/>
      <point x="529" y="385"/>
      <point x="639" y="385" type="curve" smooth="yes"/>
      <point x="750" y="385"/>
      <point x="807" y="342"/>
      <point x="807" y="263" type="curve" smooth="yes"/>
      <point x="807" y="252" type="line" smooth="yes"/>
      <point x="807" y="172"/>
      <point x="750" y="129"/>
    </contour>
  </outline>
</glyph>
<glyph name="five.te" format="2">
  <advance width="1557"/>
  <unicode hex="0C6B"/>
  <outline>
    <contour>
      <point x="127" y="-12" type="line"/>
      <point x="320" y="-12" type="line"/>
      <point x="320" y="28" type="line" smooth="yes"/>
      <point x="320" y="158"/>
      <point x="428" y="222"/>
      <point x="582" y="283" type="curve" smooth="yes"/>
      <point x="830" y="381" type="line" smooth="yes"/>
      <point x="925" y="418"/>
      <point x="1003" y="439"/>
      <point x="1076" y="439" type="curve" smooth="yes"/>
      <point x="1081" y="439" type="line" smooth="yes"/>
      <point x="1194" y="439"/>
      <point x="1245" y="383"/>
      <point x="1245" y="263" type="curve" smooth="yes"/>
      <point x="1245" y="179" type="line" smooth="yes"/>
      <point x="1245" y="111"/>
      <point x="1252" y="50"/>
      <point x="1280" y="-18" type="curve"/>
      <point x="1467" y="-18" type="line"/>
      <point x="1433" y="62"/>
      <point x="1423" y="126"/>
      <point x="1423" y="199" type="curve" smooth="yes"/>
      <point x="1423" y="294" type="line" smooth="yes"/>
      <point x="1423" y="499"/>
      <point x="1318" y="605"/>
      <point x="1116" y="605" type="curve" smooth="yes"/>
      <point x="1096" y="605" type="line" smooth="yes"/>
      <point x="1005" y="605"/>
      <point x="877" y="575"/>
      <point x="762" y="531" type="curve" smooth="yes"/>
      <point x="501" y="430" type="line" smooth="yes"/>
      <point x="270" y="341"/>
      <point x="127" y="227"/>
      <point x="127" y="34" type="curve" smooth="yes"/>
    </contour>
    <contour>
      <point x="393" y="344" type="curve"/>
      <point x="572" y="374" type="line"/>
      <point x="603" y="461"/>
      <point x="620" y="549"/>
      <point x="620" y="635" type="curve" smooth="yes"/>
      <point x="620" y="777" type="line" smooth="yes"/>
      <point x="620" y="1048"/>
      <point x="508" y="1181"/>
      <point x="287" y="1181" type="curve" smooth="yes"/>
      <point x="216" y="1181"/>
      <point x="147" y="1164"/>
      <point x="93" y="1136" type="curve"/>
      <point x="74" y="962" type="line"/>
      <point x="122" y="995"/>
      <point x="185" y="1014"/>
      <point x="248" y="1014" type="curve" smooth="yes"/>
      <point x="388" y="1014"/>
      <point x="445" y="934"/>
      <point x="445" y="757" type="curve" smooth="yes"/>
      <point x="445" y="603" type="line" smooth="yes"/>
      <point x="445" y="514"/>
      <point x="431" y="434"/>
    </contour>
    <contour>
      <point x="915" y="532" type="curve"/>
      <point x="1037" y="587" type="line"/>
      <point x="972" y="639"/>
      <point x="945" y="706"/>
      <point x="945" y="793" type="curve" smooth="yes"/>
      <point x="945" y="839" type="line" smooth="yes"/>
      <point x="945" y="955"/>
      <point x="997" y="1020"/>
      <point x="1109" y="1020" type="curve" smooth="yes"/>
      <point x="1221" y="1020"/>
      <point x="1273" y="955"/>
      <point x="1273" y="839" type="curve" smooth="yes"/>
      <point x="1273" y="793" type="line" smooth="yes"/>
      <point x="1273" y="705"/>
      <point x="1246" y="638"/>
      <point x="1179" y="585" type="curve"/>
      <point x="1307" y="521" type="line"/>
      <point x="1410" y="593"/>
      <point x="1453" y="688"/>
      <point x="1453" y="817" type="curve" smooth="yes"/>
      <point x="1453" y="859" type="line" smooth="yes"/>
      <point x="1453" y="1060"/>
      <point x="1335" y="1180"/>
      <point x="1109" y="1180" type="curve" smooth="yes"/>
      <point x="884" y="1180"/>
      <point x="765" y="1060"/>
      <point x="765" y="860" type="curve" smooth="yes"/>
      <point x="765" y="818" type="line" smooth="yes"/>
      <point x="765" y="690"/>
      <point x="808" y="595"/>
    </contour>
  </outline>
</glyph>
<glyph name="six.te" format="2">
  <advance width="1291"/>
  <unicode hex="0C6C"/>
  <outline>
    <contour>
      <point x="482" y="0" type="curve" smooth="yes"/>
      <point x="1244" y="0" type="line"/>
      <point x="1244" y="166" type="line"/>
      <point x="490" y="166" type="line" smooth="yes"/>
      <point x="346" y="166"/>
      <point x="278" y="216"/>
      <point x="278" y="332" type="curve" smooth="yes"/>
      <point x="278" y="342" type="line" smooth="yes"/>
      <point x="278" y="447"/>
      <point x="357" y="503"/>
      <point x="477" y="503" type="curve" smooth="yes"/>
      <point x="888" y="503" type="line"/>
      <point x="888" y="661" type="line"/>
      <point x="479" y="661" type="line" smooth="yes"/>
      <point x="359" y="661"/>
      <point x="285" y="716"/>
      <point x="285" y="821" type="curve" smooth="yes"/>
      <point x="285" y="832" type="line" smooth="yes"/>
      <point x="285" y="945"/>
      <point x="351" y="997"/>
      <point x="491" y="997" type="curve" smooth="yes"/>
      <point x="667" y="997" type="line"/>
      <point x="634" y="1163" type="line"/>
      <point x="482" y="1163" type="line" smooth="yes"/>
      <point x="223" y="1163"/>
      <point x="99" y="1057"/>
      <point x="99" y="860" type="curve" smooth="yes"/>
      <point x="99" y="845" type="line" smooth="yes"/>
      <point x="99" y="695"/>
      <point x="178" y="611"/>
      <point x="304" y="585" type="curve"/>
      <point x="304" y="580" type="line"/>
      <point x="175" y="557"/>
      <point x="92" y="471"/>
      <point x="92" y="316" type="curve" smooth="yes"/>
      <point x="92" y="302" type="line" smooth="yes"/>
      <point x="92" y="107"/>
      <point x="218" y="0"/>
    </contour>
  </outline>
</glyph>
<glyph name="seven.te" format="2">
  <advance width="1116"/>
  <unicode hex="0C6D"/>
  <outline>
    <contour>
      <point x="1000" y="79" type="curve"/>
      <point x="1025" y="272" type="line"/>
      <point x="900" y="197"/>
      <point x="754" y="146"/>
      <point x="583" y="146" type="curve" smooth="yes"/>
      <point x="375" y="146"/>
      <point x="291" y="206"/>
      <point x="291" y="312" type="curve" smooth="yes"/>
      <point x="291" y="316" type="line" smooth="yes"/>
      <point x="291" y="414"/>
      <point x="356" y="455"/>
      <point x="610" y="530" type="curve" smooth="yes"/>
      <point x="910" y="615"/>
      <point x="993" y="714"/>
      <point x="993" y="870" type="curve" smooth="yes"/>
      <point x="993" y="875" type="line" smooth="yes"/>
      <point x="993" y="1064"/>
      <point x="862" y="1177"/>
      <point x="575" y="1177" type="curve" smooth="yes"/>
      <point x="413" y="1177"/>
      <point x="273" y="1137"/>
      <point x="175" y="1089" type="curve"/>
      <point x="150" y="908" type="line"/>
      <point x="263" y="969"/>
      <point x="407" y="1012"/>
      <point x="552" y="1012" type="curve" smooth="yes"/>
      <point x="736" y="1012"/>
      <point x="807" y="955"/>
      <point x="807" y="866" type="curve" smooth="yes"/>
      <point x="807" y="863" type="line" smooth="yes"/>
      <point x="807" y="785"/>
      <point x="761" y="747"/>
      <point x="509" y="671" type="curve" smooth="yes"/>
      <point x="200" y="580"/>
      <point x="101" y="490"/>
      <point x="101" y="307" type="curve" smooth="yes"/>
      <point x="101" y="301" type="line" smooth="yes"/>
      <point x="101" y="96"/>
      <point x="251" y="-26"/>
      <point x="576" y="-26" type="curve" smooth="yes"/>
      <point x="764" y="-26"/>
      <point x="902" y="25"/>
    </contour>
  </outline>
</glyph>
<glyph name="eight.te" format="2">
  <advance width="1219"/>
  <unicode hex="0C6E"/>
  <outline>
    <contour>
      <point x="608" y="-27" type="curve" smooth="yes"/>
      <point x="936" y="-27"/>
      <point x="1105" y="160"/>
      <point x="1105" y="487" type="curve" smooth="yes"/>
      <point x="1105" y="663" type="line" smooth="yes"/>
      <point x="1105" y="823"/>
      <point x="1059" y="940"/>
      <point x="952" y="1008" type="curve"/>
      <point x="952" y="1014" type="line"/>
      <point x="1167" y="1011" type="line"/>
      <point x="1142" y="1171" type="line"/>
      <point x="729" y="1162" type="line"/>
      <point x="729" y="1012" type="line"/>
      <point x="799" y="1007" type="line"/>
      <point x="882" y="939"/>
      <point x="915" y="834"/>
      <point x="915" y="698" type="curve" smooth="yes"/>
      <point x="915" y="510" type="line" smooth="yes"/>
      <point x="915" y="277"/>
      <point x="810" y="148"/>
      <point x="608" y="148" type="curve" smooth="yes"/>
      <point x="406" y="148"/>
      <point x="301" y="277"/>
      <point x="301" y="510" type="curve" smooth="yes"/>
      <point x="301" y="698" type="line" smooth="yes"/>
      <point x="301" y="854"/>
      <point x="332" y="1002"/>
      <point x="422" y="1164" type="curve"/>
      <point x="222" y="1164" type="line"/>
      <point x="136" y="1007"/>
      <point x="109" y="861"/>
      <point x="109" y="701" type="curve" smooth="yes"/>
      <point x="109" y="510" type="line" smooth="yes"/>
      <point x="109" y="167"/>
      <point x="279" y="-27"/>
    </contour>
  </outline>
</glyph>
<glyph name="nine.te" format="2">
  <advance width="1288"/>
  <unicode hex="0C6F"/>
  <outline>
    <contour>
      <point x="488" y="0" type="curve" smooth="yes"/>
      <point x="671" y="0" type="line"/>
      <point x="671" y="166" type="line"/>
      <point x="496" y="166" type="line" smooth="yes"/>
      <point x="351" y="166"/>
      <point x="283" y="216"/>
      <point x="283" y="332" type="curve" smooth="yes"/>
      <point x="283" y="342" type="line" smooth="yes"/>
      <point x="283" y="447"/>
      <point x="363" y="503"/>
      <point x="483" y="503" type="curve" smooth="yes"/>
      <point x="894" y="503" type="line"/>
      <point x="894" y="661" type="line"/>
      <point x="485" y="661" type="line" smooth="yes"/>
      <point x="363" y="661"/>
      <point x="290" y="716"/>
      <point x="290" y="820" type="curve" smooth="yes"/>
      <point x="290" y="833" type="line" smooth="yes"/>
      <point x="290" y="945"/>
      <point x="357" y="997"/>
      <point x="497" y="997" type="curve" smooth="yes"/>
      <point x="1250" y="997" type="line"/>
      <point x="1217" y="1163" type="line"/>
      <point x="488" y="1163" type="line" smooth="yes"/>
      <point x="228" y="1163"/>
      <point x="104" y="1058"/>
      <point x="104" y="864" type="curve" smooth="yes"/>
      <point x="104" y="842" type="line" smooth="yes"/>
      <point x="104" y="695"/>
      <point x="182" y="611"/>
      <point x="309" y="585" type="curve"/>
      <point x="309" y="580" type="line"/>
      <point x="180" y="557"/>
      <point x="97" y="469"/>
      <point x="97" y="316" type="curve" smooth="yes"/>
      <point x="97" y="302" type="line" smooth="yes"/>
      <point x="97" y="107"/>
      <point x="224" y="0"/>
    </contour>
  </outline>
</glyph>
<glyph name="BaHalant.te" format="2">
  <advance width="1543"/>
  <anchor x="764" y="-61" name="bottom"/>
  <outline>
    <contour>
      <point x="439" y="-27" type="curve" smooth="yes"/>
      <point x="638" y="-27"/>
      <point x="742" y="73"/>
      <point x="761" y="209" type="curve"/>
      <point x="767" y="209" type="line"/>
      <point x="786" y="73"/>
      <point x="886" y="-27"/>
      <point x="1083" y="-27" type="curve" smooth="yes"/>
      <point x="1310" y="-27"/>
      <point x="1431" y="121"/>
      <point x="1431" y="409" type="curve" smooth="yes"/>
      <point x="1431" y="589" type="line"/>
      <point x="1241" y="589" type="line"/>
      <point x="1241" y="412" type="line" smooth="yes"/>
      <point x="1241" y="240"/>
      <point x="1178" y="152"/>
      <point x="1046" y="152" type="curve" smooth="yes"/>
      <point x="923" y="152"/>
      <point x="867" y="227"/>
      <point x="859" y="370" type="curve" smooth="yes"/>
      <point x="854" y="458" type="line"/>
      <point x="674" y="458" type="line"/>
      <point x="669" y="370" type="line" smooth="yes"/>
      <point x="661" y="227"/>
      <point x="597" y="149"/>
      <point x="467" y="149" type="curve" smooth="yes"/>
      <point x="348" y="149"/>
      <point x="289" y="213"/>
      <point x="289" y="307" type="curve" smooth="yes"/>
      <point x="289" y="309" type="line" smooth="yes"/>
      <point x="289" y="407"/>
      <point x="328" y="461"/>
      <point x="512" y="548" type="curve" smooth="yes"/>
      <point x="707" y="640"/>
      <point x="783" y="725"/>
      <point x="783" y="885" type="curve" smooth="yes"/>
      <point x="783" y="888" type="line" smooth="yes"/>
      <point x="783" y="1076"/>
      <point x="666" y="1179"/>
      <point x="446" y="1179" type="curve" smooth="yes"/>
      <point x="225" y="1179"/>
      <point x="110" y="1077"/>
      <point x="110" y="883" type="curve" smooth="yes"/>
      <point x="110" y="879" type="line" smooth="yes"/>
      <point x="110" y="815"/>
      <point x="125" y="749"/>
      <point x="148" y="691" type="curve"/>
      <point x="314" y="691" type="line"/>
      <point x="291" y="749"/>
      <point x="280" y="804"/>
      <point x="280" y="863" type="curve" smooth="yes"/>
      <point x="280" y="867" type="line" smooth="yes"/>
      <point x="280" y="974"/>
      <point x="336" y="1027"/>
      <point x="447" y="1027" type="curve" smooth="yes"/>
      <point x="554" y="1027"/>
      <point x="609" y="976"/>
      <point x="609" y="885" type="curve" smooth="yes"/>
      <point x="609" y="882" type="line" smooth="yes"/>
      <point x="609" y="782"/>
      <point x="564" y="742"/>
      <point x="395" y="662" type="curve" smooth="yes"/>
      <point x="169" y="555"/>
      <point x="98" y="463"/>
      <point x="98" y="292" type="curve" smooth="yes"/>
      <point x="98" y="288" type="line" smooth="yes"/>
      <point x="98" y="103"/>
      <point x="218" y="-27"/>
    </contour>
    <contour>
      <point x="1023" y="1019" type="curve" smooth="yes"/>
      <point x="1167" y="968"/>
      <point x="1241" y="882"/>
      <point x="1241" y="677" type="curve" smooth="yes"/>
      <point x="1241" y="520" type="line"/>
      <point x="1431" y="520" type="line"/>
      <point x="1431" y="682" type="line" smooth="yes"/>
      <point x="1431" y="966"/>
      <point x="1314" y="1086"/>
      <point x="1138" y="1142" type="curve" smooth="yes"/>
      <point x="1015" y="1182"/>
      <point x="977" y="1204"/>
      <point x="977" y="1257" type="curve" smooth="yes"/>
      <point x="977" y="1308"/>
      <point x="1016" y="1334"/>
      <point x="1098" y="1334" type="curve" smooth="yes"/>
      <point x="1441" y="1334" type="line"/>
      <point x="1441" y="1481" type="line"/>
      <point x="1085" y="1481" type="line" smooth="yes"/>
      <point x="999" y="1481"/>
      <point x="953" y="1509"/>
      <point x="953" y="1573" type="curve" smooth="yes"/>
      <point x="953" y="1637"/>
      <point x="997" y="1663"/>
      <point x="1085" y="1663" type="curve" smooth="yes"/>
      <point x="1655" y="1663" type="line"/>
      <point x="1632" y="1815" type="line"/>
      <point x="1078" y="1815" type="line" smooth="yes"/>
      <point x="879" y="1815"/>
      <point x="771" y="1744"/>
      <point x="771" y="1595" type="curve" smooth="yes"/>
      <point x="771" y="1488"/>
      <point x="832" y="1429"/>
      <point x="935" y="1409" type="curve"/>
      <point x="935" y="1404" type="line"/>
      <point x="847" y="1382"/>
      <point x="797" y="1330"/>
      <point x="797" y="1241" type="curve" smooth="yes"/>
      <point x="797" y="1135"/>
      <point x="865" y="1075"/>
    </contour>
  </outline>
</glyph>
<glyph name="BamatraAa.te" format="2">
  <advance width="2394"/>
  <anchor x="764" y="-61" name="bottom"/>
  <outline>
    <contour>
      <point x="439" y="-27" type="curve" smooth="yes"/>
      <point x="638" y="-27"/>
      <point x="742" y="73"/>
      <point x="761" y="209" type="curve"/>
      <point x="767" y="209" type="line"/>
      <point x="786" y="73"/>
      <point x="886" y="-27"/>
      <point x="1083" y="-27" type="curve" smooth="yes"/>
      <point x="1310" y="-27"/>
      <point x="1431" y="121"/>
      <point x="1431" y="409" type="curve" smooth="yes"/>
      <point x="1431" y="580" type="line"/>
      <point x="1241" y="589" type="line"/>
      <point x="1241" y="412" type="line" smooth="yes"/>
      <point x="1241" y="240"/>
      <point x="1178" y="152"/>
      <point x="1046" y="152" type="curve" smooth="yes"/>
      <point x="923" y="152"/>
      <point x="867" y="227"/>
      <point x="859" y="370" type="curve" smooth="yes"/>
      <point x="854" y="458" type="line"/>
      <point x="674" y="458" type="line"/>
      <point x="669" y="370" type="line" smooth="yes"/>
      <point x="661" y="227"/>
      <point x="597" y="149"/>
      <point x="467" y="149" type="curve" smooth="yes"/>
      <point x="348" y="149"/>
      <point x="289" y="213"/>
      <point x="289" y="307" type="curve" smooth="yes"/>
      <point x="289" y="309" type="line" smooth="yes"/>
      <point x="289" y="407"/>
      <point x="328" y="461"/>
      <point x="512" y="548" type="curve" smooth="yes"/>
      <point x="707" y="640"/>
      <point x="783" y="725"/>
      <point x="783" y="885" type="curve" smooth="yes"/>
      <point x="783" y="888" type="line" smooth="yes"/>
      <point x="783" y="1076"/>
      <point x="666" y="1179"/>
      <point x="446" y="1179" type="curve" smooth="yes"/>
      <point x="225" y="1179"/>
      <point x="110" y="1077"/>
      <point x="110" y="883" type="curve" smooth="yes"/>
      <point x="110" y="879" type="line" smooth="yes"/>
      <point x="110" y="815"/>
      <point x="125" y="749"/>
      <point x="148" y="691" type="curve"/>
      <point x="314" y="691" type="line"/>
      <point x="291" y="749"/>
      <point x="280" y="804"/>
      <point x="280" y="863" type="curve" smooth="yes"/>
      <point x="280" y="867" type="line" smooth="yes"/>
      <point x="280" y="974"/>
      <point x="336" y="1027"/>
      <point x="447" y="1027" type="curve" smooth="yes"/>
      <point x="554" y="1027"/>
      <point x="609" y="976"/>
      <point x="609" y="885" type="curve" smooth="yes"/>
      <point x="609" y="882" type="line" smooth="yes"/>
      <point x="609" y="782"/>
      <point x="564" y="742"/>
      <point x="395" y="662" type="curve" smooth="yes"/>
      <point x="169" y="555"/>
      <point x="98" y="463"/>
      <point x="98" y="292" type="curve" smooth="yes"/>
      <point x="98" y="288" type="line" smooth="yes"/>
      <point x="98" y="103"/>
      <point x="218" y="-27"/>
    </contour>
    <contour>
      <point x="1241" y="527" type="line"/>
      <point x="1431" y="519" type="line"/>
      <point x="1431" y="649" type="line" smooth="yes"/>
      <point x="1431" y="942"/>
      <point x="1286" y="1099"/>
      <point x="1014" y="1099" type="curve"/>
      <point x="977" y="1163" type="line"/>
      <point x="949" y="995" type="line"/>
      <point x="956" y="995" type="line"/>
      <point x="1146" y="995"/>
      <point x="1241" y="884"/>
      <point x="1241" y="661" type="curve" smooth="yes"/>
    </contour>
    <contour>
      <point x="1939" y="172" type="curve" smooth="yes"/>
      <point x="2163" y="172"/>
      <point x="2282" y="311"/>
      <point x="2282" y="544" type="curve" smooth="yes"/>
      <point x="2282" y="665" type="line" smooth="yes"/>
      <point x="2282" y="975"/>
      <point x="2115" y="1163"/>
      <point x="1764" y="1163" type="curve" smooth="yes"/>
      <point x="977" y="1163" type="line"/>
      <point x="989" y="1029" type="line"/>
      <point x="1375" y="1008" type="line"/>
      <point x="1760" y="1008" type="line" smooth="yes"/>
      <point x="2001" y="1008"/>
      <point x="2106" y="887"/>
      <point x="2106" y="696" type="curve" smooth="yes"/>
      <point x="2106" y="694" type="line"/>
      <point x="2094" y="694" type="line"/>
      <point x="2103" y="600" type="line"/>
      <point x="2103" y="527" type="line" smooth="yes"/>
      <point x="2103" y="406"/>
      <point x="2047" y="342"/>
      <point x="1940" y="342" type="curve" smooth="yes"/>
      <point x="1842" y="342"/>
      <point x="1787" y="400"/>
      <point x="1787" y="500" type="curve" smooth="yes"/>
      <point x="1787" y="531" type="line" smooth="yes"/>
      <point x="1787" y="635"/>
      <point x="1839" y="690"/>
      <point x="1935" y="690" type="curve" smooth="yes"/>
      <point x="2016" y="690"/>
      <point x="2077" y="654"/>
      <point x="2108" y="578" type="curve"/>
      <point x="2101" y="692" type="line"/>
      <point x="2074" y="777"/>
      <point x="2010" y="838"/>
      <point x="1880" y="838" type="curve" smooth="yes"/>
      <point x="1711" y="838"/>
      <point x="1610" y="726"/>
      <point x="1610" y="535" type="curve" smooth="yes"/>
      <point x="1610" y="501" type="line" smooth="yes"/>
      <point x="1610" y="299"/>
      <point x="1724" y="172"/>
    </contour>
  </outline>
</glyph>
<glyph name="BamatraAu.te" format="2">
  <advance width="2316"/>
  <anchor x="764" y="-61" name="bottom"/>
  <outline>
    <contour>
      <point x="1850" y="1218" type="curve" smooth="yes"/>
      <point x="1681" y="1218"/>
      <point x="1580" y="1106"/>
      <point x="1580" y="916" type="curve" smooth="yes"/>
      <point x="1580" y="880" type="line" smooth="yes"/>
      <point x="1580" y="679"/>
      <point x="1694" y="552"/>
      <point x="1909" y="552" type="curve" smooth="yes"/>
      <point x="2133" y="552"/>
      <point x="2252" y="691"/>
      <point x="2252" y="924" type="curve" smooth="yes"/>
      <point x="2252" y="1045" type="line" smooth="yes"/>
      <point x="2252" y="1355"/>
      <point x="2083" y="1541"/>
      <point x="1728" y="1541" type="curve" smooth="yes"/>
      <point x="584" y="1541" type="line"/>
      <point x="562" y="1386" type="line"/>
      <point x="1250" y="1386" type="line"/>
      <point x="1282" y="1394" type="line"/>
      <point x="1458" y="1386" type="line"/>
      <point x="1725" y="1386" type="line" smooth="yes"/>
      <point x="1969" y="1386"/>
      <point x="2076" y="1265"/>
      <point x="2076" y="1076" type="curve" smooth="yes"/>
      <point x="2076" y="1074" type="line"/>
      <point x="2064" y="1074" type="line"/>
      <point x="2073" y="980" type="line"/>
      <point x="2073" y="907" type="line" smooth="yes"/>
      <point x="2073" y="786"/>
      <point x="2017" y="722"/>
      <point x="1910" y="722" type="curve" smooth="yes"/>
      <point x="1811" y="722"/>
      <point x="1757" y="780"/>
      <point x="1757" y="880" type="curve" smooth="yes"/>
      <point x="1757" y="911" type="line" smooth="yes"/>
      <point x="1757" y="1015"/>
      <point x="1808" y="1070"/>
      <point x="1905" y="1070" type="curve" smooth="yes"/>
      <point x="1985" y="1070"/>
      <point x="2045" y="1034"/>
      <point x="2076" y="964" type="curve"/>
      <point x="2071" y="1072" type="line"/>
      <point x="2044" y="1157"/>
      <point x="1980" y="1218"/>
    </contour>
    <contour>
      <point x="439" y="-27" type="curve" smooth="yes"/>
      <point x="638" y="-27"/>
      <point x="742" y="73"/>
      <point x="761" y="209" type="curve"/>
      <point x="767" y="209" type="line"/>
      <point x="786" y="73"/>
      <point x="886" y="-27"/>
      <point x="1083" y="-27" type="curve" smooth="yes"/>
      <point x="1310" y="-27"/>
      <point x="1431" y="121"/>
      <point x="1431" y="409" type="curve" smooth="yes"/>
      <point x="1431" y="589" type="line"/>
      <point x="1241" y="589" type="line"/>
      <point x="1241" y="412" type="line" smooth="yes"/>
      <point x="1241" y="240"/>
      <point x="1178" y="152"/>
      <point x="1046" y="152" type="curve" smooth="yes"/>
      <point x="923" y="152"/>
      <point x="867" y="227"/>
      <point x="859" y="370" type="curve" smooth="yes"/>
      <point x="854" y="458" type="line"/>
      <point x="674" y="458" type="line"/>
      <point x="669" y="370" type="line" smooth="yes"/>
      <point x="661" y="227"/>
      <point x="597" y="149"/>
      <point x="467" y="149" type="curve" smooth="yes"/>
      <point x="348" y="149"/>
      <point x="289" y="213"/>
      <point x="289" y="307" type="curve" smooth="yes"/>
      <point x="289" y="309" type="line" smooth="yes"/>
      <point x="289" y="407"/>
      <point x="328" y="461"/>
      <point x="512" y="548" type="curve" smooth="yes"/>
      <point x="707" y="640"/>
      <point x="783" y="725"/>
      <point x="783" y="885" type="curve" smooth="yes"/>
      <point x="783" y="888" type="line" smooth="yes"/>
      <point x="783" y="1076"/>
      <point x="666" y="1179"/>
      <point x="446" y="1179" type="curve" smooth="yes"/>
      <point x="225" y="1179"/>
      <point x="110" y="1077"/>
      <point x="110" y="883" type="curve" smooth="yes"/>
      <point x="110" y="879" type="line" smooth="yes"/>
      <point x="110" y="815"/>
      <point x="125" y="749"/>
      <point x="148" y="691" type="curve"/>
      <point x="314" y="691" type="line"/>
      <point x="291" y="749"/>
      <point x="280" y="804"/>
      <point x="280" y="863" type="curve" smooth="yes"/>
      <point x="280" y="867" type="line" smooth="yes"/>
      <point x="280" y="974"/>
      <point x="336" y="1027"/>
      <point x="447" y="1027" type="curve" smooth="yes"/>
      <point x="554" y="1027"/>
      <point x="609" y="976"/>
      <point x="609" y="885" type="curve" smooth="yes"/>
      <point x="609" y="882" type="line" smooth="yes"/>
      <point x="609" y="782"/>
      <point x="564" y="742"/>
      <point x="395" y="662" type="curve" smooth="yes"/>
      <point x="169" y="555"/>
      <point x="98" y="463"/>
      <point x="98" y="292" type="curve" smooth="yes"/>
      <point x="98" y="288" type="line" smooth="yes"/>
      <point x="98" y="103"/>
      <point x="218" y="-27"/>
    </contour>
    <contour>
      <point x="1241" y="527" type="line"/>
      <point x="1431" y="526" type="line"/>
      <point x="1431" y="665" type="line" smooth="yes"/>
      <point x="1431" y="968"/>
      <point x="1279" y="1126"/>
      <point x="989" y="1126" type="curve"/>
      <point x="970" y="1163" type="line"/>
      <point x="945" y="995" type="line"/>
      <point x="953" y="995" type="line"/>
      <point x="1145" y="995"/>
      <point x="1241" y="884"/>
      <point x="1241" y="661" type="curve" smooth="yes"/>
    </contour>
    <contour>
      <point x="980" y="1045" type="line"/>
      <point x="1115" y="1045" type="line" smooth="yes"/>
      <point x="1307" y="1045"/>
      <point x="1410" y="1116"/>
      <point x="1410" y="1264" type="curve" smooth="yes"/>
      <point x="1410" y="1400"/>
      <point x="1307" y="1468"/>
      <point x="1112" y="1468" type="curve" smooth="yes"/>
      <point x="944" y="1468" type="line"/>
      <point x="912" y="1386" type="line"/>
      <point x="1099" y="1386" type="line" smooth="yes"/>
      <point x="1190" y="1386"/>
      <point x="1239" y="1353"/>
      <point x="1239" y="1275" type="curve" smooth="yes"/>
      <point x="1239" y="1200"/>
      <point x="1193" y="1163"/>
      <point x="1099" y="1163" type="curve" smooth="yes"/>
      <point x="970" y="1163" type="line"/>
    </contour>
  </outline>
</glyph>
